  0
SECTION
  2
HEADER
  9
$ACADVER
  1
AC1014
  9
$HANDSEED
  5
FFFF
  9
$MEASUREMENT
 70
     1
  0
ENDSEC
  0
SECTION
  2
TABLES
  0
TABLE
  2
VPORT
  5
8
330
0
100
AcDbSymbolTable
 70
     4
  0
VPORT
  5
2E
330
8
100
AcDbSymbolTableRecord
100
AcDbViewportTableRecord
  2
*ACTIVE
 70
     0
 10
0.0
 20
0.0
 11
1.0
 21
1.0
 12
210.0
 22
148.5
 13
0.0
 23
0.0
 14
10.0
 24
10.0
 15
10.0
 25
10.0
 16
0.0
 26
0.0
 36
1.0
 17
0.0
 27
0.0
 37
0.0
 40
341.0
 41
1.24
 42
50.0
 43
0.0
 44
0.0
 50
0.0
 51
0.0
 71
     0
 72
   100
 73
     1
 74
     3
 75
     0
 76
     0
 77
     0
 78
     0
  0
ENDTAB
  0
TABLE
  2
LTYPE
  5
5
330
0
100
AcDbSymbolTable
 70
     1
  0
LTYPE
  5
14
330
5
100
AcDbSymbolTableRecord
100
AcDbLinetypeTableRecord
  2
BYBLOCK
 70
     0
  3

 72
    65
 73
     0
 40
0.0
  0
LTYPE
  5
15
330
5
100
AcDbSymbolTableRecord
100
AcDbLinetypeTableRecord
  2
BYLAYER
 70
     0
  3

 72
    65
 73
     0
 40
0.0
  0
LTYPE
  5
16
330
5
100
AcDbSymbolTableRecord
100
AcDbLinetypeTableRecord
  2
CONTINUOUS
 70
     0
  3
Solid line
 72
    65
 73
     0
 40
0.0
  0
ENDTAB
  0
TABLE
  2
LAYER
  5
2
100
AcDbSymbolTable
 70
2
  0
LAYER
  5
50
100
AcDbSymbolTableRecord
100
AcDbLayerTableRecord
  2
0
 70
0
  6
CONTINUOUS
  0
LAYER
  5
51
100
AcDbSymbolTableRecord
100
AcDbLayerTableRecord
  2
Layer_1
 70
0
  6
CONTINUOUS
  0
ENDTAB
  0
TABLE
  2
STYLE
  5
3
330
0
100
AcDbSymbolTable
 70
     1
  0
STYLE
  5
11
330
3
100
AcDbSymbolTableRecord
100
AcDbTextStyleTableRecord
  2
STANDARD
 70
     0
 40
0.0
 41
1.0
 50
0.0
 71
     0
 42
2.5
  3
txt
  4

  0
ENDTAB
  0
TABLE
  2
VIEW
  5
6
330
0
100
AcDbSymbolTable
 70
     0
  0
ENDTAB
  0
TABLE
  2
UCS
  5
7
330
0
100
AcDbSymbolTable
 70
     0
  0
ENDTAB
  0
TABLE
  2
APPID
  5
9
330
0
100
AcDbSymbolTable
 70
     2
  0
APPID
  5
12
330
9
100
AcDbSymbolTableRecord
100
AcDbRegAppTableRecord
  2
ACAD
 70
     0
  0
ENDTAB
  0
TABLE
  2
DIMSTYLE
  5
A
330
0
100
AcDbSymbolTable
 70
     1
  0
DIMSTYLE
105
27
330
A
100
AcDbSymbolTableRecord
100
AcDbDimStyleTableRecord
  2
ISO-25
 70
     0
  3

  4

  5

  6

  7

 40
1.0
 41
2.5
 42
0.625
 43
3.75
 44
1.25
 45
0.0
 46
0.0
 47
0.0
 48
0.0
140
2.5
141
2.5
142
0.0
143
0.03937007874016
144
1.0
145
0.0
146
1.0
147
0.625
 71
     0
 72
     0
 73
     0
 74
     0
 75
     0
 76
     0
 77
     1
 78
     8
170
     0
171
     3
172
     1
173
     0
174
     0
175
     0
176
     0
177
     0
178
     0
270
     2
271
     2
272
     2
273
     2
274
     3
340
11
275
     0
280
     0
281
     0
282
     0
283
     0
284
     8
285
     0
286
     0
287
     3
288
     0
  0
ENDTAB
  0
TABLE
  2
BLOCK_RECORD
  5
1
330
0
100
AcDbSymbolTable
 70
     1
  0
BLOCK_RECORD
  5
1F
330
1
100
AcDbSymbolTableRecord
100
AcDbBlockTableRecord
  2
*MODEL_SPACE
  0
BLOCK_RECORD
  5
1B
330
1
100
AcDbSymbolTableRecord
100
AcDbBlockTableRecord
  2
*PAPER_SPACE
  0
ENDTAB
  0
ENDSEC
  0
SECTION
  2
BLOCKS
  0
BLOCK
  5
20
330
1F
100
AcDbEntity
  8
0
100
AcDbBlockBegin
  2
*MODEL_SPACE
 70
     0
 10
0.0
 20
0.0
 30
0.0
  3
*MODEL_SPACE
  1

  0
ENDBLK
  5
21
330
1F
100
AcDbEntity
  8
0
100
AcDbBlockEnd
  0
BLOCK
  5
1C
330
1B
100
AcDbEntity
 67
     1
  8
0
100
AcDbBlockBegin
  2
*PAPER_SPACE
  1

  0
ENDBLK
  5
1D
330
1B
100
AcDbEntity
 67
     1
  8
0
100
AcDbBlockEnd
  0
ENDSEC
  0
SECTION
  2
ENTITIES
  0
LWPOLYLINE
  5
100
100
AcDbEntity
  8
Layer_1
 62
7
100
AcDbPolyline
 90
15
 70
1
 10
5.097752
 20
55.049984
 30
0.0
 10
95.097769
 20
55.049984
 30
0.0
 10
100.018257
 20
55.010190
 30
0.0
 10
99.944259
 20
40.056928
 30
0.0
 10
95.097769
 20
40.092573
 30
0.0
 10
95.097769
 20
5.049999
 30
0.0
 10
69.988994
 20
5.049999
 30
0.0
 10
70.006210
 20
0.021109
 30
0.0
 10
30.033468
 20
-0.011177
 30
0.0
 10
29.934098
 20
5.049999
 30
0.0
 10
5.097667
 20
5.049999
 30
0.0
 10
5.097667
 20
40.092573
 30
0.0
 10
0.049925
 20
40.045865
 30
0.0
 10
0.088307
 20
55.019109
 30
0.0
 10
5.097752
 20
55.049984
 30
0.0
  0
SPLINE
  5
101
100
AcDbEntity
  8
Layer_1
 62
7
100
AcDbSpline
 70
0
 71
3
 72
25
 73
21
 74
19
 40
0.000000
 40
0.000000
 40
0.000000
 40
0.000000
 40
9.908177
 40
19.522481
 40
29.430658
 40
34.391295
 40
39.310880
 40
44.271517
 40
49.232154
 40
54.151740
 40
59.112377
 40
64.073014
 40
68.992600
 40
73.953237
 40
78.913873
 40
83.833459
 40
88.794096
 40
98.702273
 40
108.316577
 40
118.224754
 40
118.224754
 40
118.224754
 40
118.224754
 10
67.997296
 20
28.999687
 30
0.0
 10
67.475861
 20
25.659342
 30
0.0
 10
66.448458
 20
19.077725
 30
0.0
 10
58.912894
 20
11.828110
 30
0.0
 10
50.697787
 20
9.605157
 30
0.0
 10
44.086829
 20
10.487065
 30
0.0
 10
39.463830
 20
12.399917
 30
0.0
 10
35.492877
 20
15.445301
 30
0.0
 10
32.447897
 20
19.416349
 30
0.0
 10
30.533343
 20
24.038566
 30
0.0
 10
29.878383
 20
28.999687
 30
0.0
 10
30.533343
 20
33.960808
 30
0.0
 10
32.447897
 20
38.583025
 30
0.0
 10
35.492877
 20
42.554074
 30
0.0
 10
39.463830
 20
45.599458
 30
0.0
 10
44.086829
 20
47.512309
 30
0.0
 10
50.697787
 20
48.394217
 30
0.0
 10
58.912895
 20
46.171265
 30
0.0
 10
66.448458
 20
38.921650
 30
0.0
 10
67.475861
 20
32.340033
 30
0.0
 10
67.997296
 20
28.999687
 30
0.0
 11
67.997296
 21
28.999687
 31
0.0
 11
65.410072
 21
19.435261
 31
0.0
 11
58.611737
 21
12.636917
 31
0.0
 11
49.047315
 21
10.049679
 31
0.0
 11
44.129347
 21
10.698914
 31
0.0
 11
39.584242
 21
12.581557
 31
0.0
 11
35.647633
 21
15.600005
 31
0.0
 11
32.629185
 21
19.536614
 31
0.0
 11
30.746542
 21
24.081719
 31
0.0
 11
30.097307
 21
28.999687
 31
0.0
 11
30.746542
 21
33.917656
 31
0.0
 11
32.629185
 21
38.462761
 31
0.0
 11
35.647633
 21
42.399370
 31
0.0
 11
39.584242
 21
45.417818
 31
0.0
 11
44.129347
 21
47.300460
 31
0.0
 11
49.047315
 21
47.949696
 31
0.0
 11
58.611737
 21
45.362458
 31
0.0
 11
65.410072
 21
38.564113
 31
0.0
 11
67.997296
 21
28.999687
 31
0.0
  0
LWPOLYLINE
  5
102
100
AcDbEntity
  8
Layer_1
 62
7
100
AcDbPolyline
 90
2
 70
1
 10
67.997296
 20
28.999687
 30
0.0
 10
67.997296
 20
28.999687
 30
0.0
  0
SPLINE
  5
103
100
AcDbEntity
  8
Layer_1
 62
7
100
AcDbSpline
 70
0
 71
3
 72
28
 73
24
 74
22
 40
0.000000
 40
0.000000
 40
0.000000
 40
0.000000
 40
0.510461
 40
1.016698
 40
1.527159
 40
2.037620
 40
2.543857
 40
3.054318
 40
4.073884
 40
5.063211
 40
6.082777
 40
6.593238
 40
7.099475
 40
7.609936
 40
8.120397
 40
8.626634
 40
9.137095
 40
9.647561
 40
10.153803
 40
10.664269
 40
11.174734
 40
11.680976
 40
12.191442
 40
12.191442
 40
12.191442
 40
12.191442
 10
34.997757
 20
12.999973
 30
0.0
 10
34.984756
 20
12.829332
 30
0.0
 10
34.958862
 20
12.489463
 30
0.0
 10
34.754260
 20
12.013827
 30
0.0
 10
34.442952
 20
11.605200
 30
0.0
 10
34.033835
 20
11.291824
 30
0.0
 10
33.558062
 20
11.094997
 30
0.0
 10
32.878731
 20
11.004216
 30
0.0
 10
32.025896
 20
11.233237
 30
0.0
 10
31.281005
 20
11.978122
 30
0.0
 10
31.051985
 20
12.830979
 30
0.0
 10
31.142766
 20
13.510262
 30
0.0
 10
31.339593
 20
13.986180
 30
0.0
 10
31.652969
 20
14.394749
 30
0.0
 10
32.061596
 20
14.708102
 30
0.0
 10
32.537234
 20
14.905114
 30
0.0
 10
33.047735
 20
14.972516
 30
0.0
 10
33.558290
 20
14.905122
 30
0.0
 10
34.033783
 20
14.708108
 30
0.0
 10
34.442978
 20
14.394776
 30
0.0
 10
34.754265
 20
13.986129
 30
0.0
 10
34.958870
 20
13.510490
 30
0.0
 10
34.984759
 20
13.170616
 30
0.0
 10
34.997757
 20
12.999973
 30
0.0
 11
34.997757
 21
12.999973
 31
0.0
 11
34.930945
 21
12.493903
 31
0.0
 11
34.737213
 21
12.026203
 31
0.0
 11
34.426605
 21
11.621119
 31
0.0
 11
34.021517
 21
11.310516
 31
0.0
 11
33.553813
 21
11.116791
 31
0.0
 11
33.047742
 21
11.049987
 31
0.0
 11
32.063550
 21
11.316221
 31
0.0
 11
31.363991
 21
12.015781
 31
0.0
 11
31.097756
 21
12.999973
 31
0.0
 11
31.164561
 21
13.506044
 31
0.0
 11
31.358286
 21
13.973747
 31
0.0
 11
31.668888
 21
14.378836
 31
0.0
 11
32.073972
 21
14.689444
 31
0.0
 11
32.541673
 21
14.883176
 31
0.0
 11
33.047742
 21
14.949988
 31
0.0
 11
33.553818
 21
14.883182
 31
0.0
 11
34.021525
 21
14.689454
 31
0.0
 11
34.426615
 21
14.378846
 31
0.0
 11
34.737223
 21
13.973756
 31
0.0
 11
34.930951
 21
13.506049
 31
0.0
 11
34.997757
 21
12.999973
 31
0.0
  0
LWPOLYLINE
  5
104
100
AcDbEntity
  8
Layer_1
 62
7
100
AcDbPolyline
 90
2
 70
1
 10
34.997757
 20
12.999973
 30
0.0
 10
34.997757
 20
12.999973
 30
0.0
  0
SPLINE
  5
105
100
AcDbEntity
  8
Layer_1
 62
7
100
AcDbSpline
 70
0
 71
3
 72
28
 73
24
 74
22
 40
0.000000
 40
0.000000
 40
0.000000
 40
0.000000
 40
1.019566
 40
2.008893
 40
3.028459
 40
3.538920
 40
4.045157
 40
4.555618
 40
5.066079
 40
5.572316
 40
6.082777
 40
6.593243
 40
7.099484
 40
7.609950
 40
8.120416
 40
8.626658
 40
9.137123
 40
9.647585
 40
10.153821
 40
10.664283
 40
11.174744
 40
11.680981
 40
12.191442
 40
12.191442
 40
12.191442
 40
12.191442
 10
66.997749
 20
12.999973
 30
0.0
 10
66.944091
 20
12.656247
 30
0.0
 10
66.838365
 20
11.978990
 30
0.0
 10
66.062945
 20
11.232995
 30
0.0
 10
65.217598
 20
11.004246
 30
0.0
 10
64.537317
 20
11.094992
 30
0.0
 10
64.061598
 20
11.291825
 30
0.0
 10
63.652976
 20
11.605199
 30
0.0
 10
63.339637
 20
12.013827
 30
0.0
 10
63.142622
 20
12.489463
 30
0.0
 10
63.075221
 20
12.999974
 30
0.0
 10
63.142615
 20
13.510490
 30
0.0
 10
63.339629
 20
13.986129
 30
0.0
 10
63.652961
 20
14.394776
 30
0.0
 10
64.061607
 20
14.708108
 30
0.0
 10
64.537249
 20
14.905122
 30
0.0
 10
65.047753
 20
14.972516
 30
0.0
 10
65.558305
 20
14.905115
 30
0.0
 10
66.033791
 20
14.708098
 30
0.0
 10
66.442981
 20
14.394765
 30
0.0
 10
66.754262
 20
13.986120
 30
0.0
 10
66.958863
 20
13.510485
 30
0.0
 10
66.984751
 20
13.170615
 30
0.0
 10
66.997749
 20
12.999973
 30
0.0
 11
66.997749
 21
12.999973
 31
0.0
 11
66.731515
 21
12.015781
 31
0.0
 11
66.031955
 21
11.316221
 31
0.0
 11
65.047763
 21
11.049987
 31
0.0
 11
64.541692
 21
11.116791
 31
0.0
 11
64.073989
 21
11.310516
 31
0.0
 11
63.668900
 21
11.621119
 31
0.0
 11
63.358292
 21
12.026203
 31
0.0
 11
63.164560
 21
12.493903
 31
0.0
 11
63.097749
 21
12.999973
 31
0.0
 11
63.164554
 21
13.506049
 31
0.0
 11
63.358283
 21
13.973756
 31
0.0
 11
63.668890
 21
14.378846
 31
0.0
 11
64.073981
 21
14.689454
 31
0.0
 11
64.541688
 21
14.883182
 31
0.0
 11
65.047763
 21
14.949988
 31
0.0
 11
65.553833
 21
14.883176
 31
0.0
 11
66.021534
 21
14.689444
 31
0.0
 11
66.426618
 21
14.378836
 31
0.0
 11
66.737220
 21
13.973747
 31
0.0
 11
66.930945
 21
13.506044
 31
0.0
 11
66.997749
 21
12.999973
 31
0.0
  0
LWPOLYLINE
  5
106
100
AcDbEntity
  8
Layer_1
 62
7
100
AcDbPolyline
 90
2
 70
1
 10
66.997749
 20
12.999973
 30
0.0
 10
66.997749
 20
12.999973
 30
0.0
  0
SPLINE
  5
107
100
AcDbEntity
  8
Layer_1
 62
7
100
AcDbSpline
 70
0
 71
3
 72
28
 73
24
 74
22
 40
0.000000
 40
0.000000
 40
0.000000
 40
0.000000
 40
0.510466
 40
1.016707
 40
1.527173
 40
2.037639
 40
2.543880
 40
3.054346
 40
3.564807
 40
4.071044
 40
4.581505
 40
5.091966
 40
5.598203
 40
6.108664
 40
7.128231
 40
8.117557
 40
9.137123
 40
9.647585
 40
10.153821
 40
10.664283
 40
11.174744
 40
11.680981
 40
12.191442
 40
12.191442
 40
12.191442
 40
12.191442
 10
34.997757
 20
44.999966
 30
0.0
 10
34.984759
 20
44.829323
 30
0.0
 10
34.958870
 20
44.489449
 30
0.0
 10
34.754265
 20
44.013810
 30
0.0
 10
34.442978
 20
43.605163
 30
0.0
 10
34.033783
 20
43.291831
 30
0.0
 10
33.558290
 20
43.094817
 30
0.0
 10
33.047735
 20
43.027423
 30
0.0
 10
32.537234
 20
43.094825
 30
0.0
 10
32.061596
 20
43.291837
 30
0.0
 10
31.652969
 20
43.605190
 30
0.0
 10
31.339593
 20
44.013759
 30
0.0
 10
31.142766
 20
44.489677
 30
0.0
 10
31.051985
 20
45.168960
 30
0.0
 10
31.281005
 20
46.021817
 30
0.0
 10
32.025896
 20
46.766701
 30
0.0
 10
32.878731
 20
46.995723
 30
0.0
 10
33.558062
 20
46.904942
 30
0.0
 10
34.033835
 20
46.708115
 30
0.0
 10
34.442952
 20
46.394739
 30
0.0
 10
34.754260
 20
45.986112
 30
0.0
 10
34.958862
 20
45.510476
 30
0.0
 10
34.984756
 20
45.170607
 30
0.0
 10
34.997757
 20
44.999966
 30
0.0
 11
34.997757
 21
44.999966
 31
0.0
 11
34.930951
 21
44.493890
 31
0.0
 11
34.737223
 21
44.026183
 31
0.0
 11
34.426615
 21
43.621093
 31
0.0
 11
34.021525
 21
43.310485
 31
0.0
 11
33.553818
 21
43.116757
 31
0.0
 11
33.047742
 21
43.049951
 31
0.0
 11
32.541673
 21
43.116763
 31
0.0
 11
32.073972
 21
43.310495
 31
0.0
 11
31.668888
 21
43.621103
 31
0.0
 11
31.358286
 21
44.026192
 31
0.0
 11
31.164561
 21
44.493895
 31
0.0
 11
31.097756
 21
44.999966
 31
0.0
 11
31.363991
 21
45.984158
 31
0.0
 11
32.063550
 21
46.683718
 31
0.0
 11
33.047742
 21
46.949952
 31
0.0
 11
33.553813
 21
46.883148
 31
0.0
 11
34.021517
 21
46.689423
 31
0.0
 11
34.426605
 21
46.378820
 31
0.0
 11
34.737213
 21
45.973736
 31
0.0
 11
34.930945
 21
45.506036
 31
0.0
 11
34.997757
 21
44.999966
 31
0.0
  0
LWPOLYLINE
  5
108
100
AcDbEntity
  8
Layer_1
 62
7
100
AcDbPolyline
 90
2
 70
1
 10
34.997757
 20
44.999966
 30
0.0
 10
34.997757
 20
44.999966
 30
0.0
  0
SPLINE
  5
109
100
AcDbEntity
  8
Layer_1
 62
7
100
AcDbSpline
 70
0
 71
3
 72
28
 73
24
 74
22
 40
0.000000
 40
0.000000
 40
0.000000
 40
0.000000
 40
0.510461
 40
1.016698
 40
1.527159
 40
2.037620
 40
2.543857
 40
3.054318
 40
3.564784
 40
4.071026
 40
4.581491
 40
5.091957
 40
5.598199
 40
6.108664
 40
6.619126
 40
7.125362
 40
7.635824
 40
8.146285
 40
8.652522
 40
9.162983
 40
10.182549
 40
11.171875
 40
12.191442
 40
12.191442
 40
12.191442
 40
12.191442
 10
66.997749
 20
44.999966
 30
0.0
 10
66.984751
 20
44.829324
 30
0.0
 10
66.958863
 20
44.489454
 30
0.0
 10
66.754262
 20
44.013819
 30
0.0
 10
66.442981
 20
43.605174
 30
0.0
 10
66.033791
 20
43.291841
 30
0.0
 10
65.558305
 20
43.094824
 30
0.0
 10
65.047753
 20
43.027423
 30
0.0
 10
64.537249
 20
43.094817
 30
0.0
 10
64.061607
 20
43.291831
 30
0.0
 10
63.652961
 20
43.605163
 30
0.0
 10
63.339629
 20
44.013810
 30
0.0
 10
63.142615
 20
44.489449
 30
0.0
 10
63.075221
 20
44.999964
 30
0.0
 10
63.142622
 20
45.510476
 30
0.0
 10
63.339637
 20
45.986112
 30
0.0
 10
63.652976
 20
46.394740
 30
0.0
 10
64.061598
 20
46.708114
 30
0.0
 10
64.537317
 20
46.904947
 30
0.0
 10
65.217598
 20
46.995693
 30
0.0
 10
66.062945
 20
46.766944
 30
0.0
 10
66.838365
 20
46.020949
 30
0.0
 10
66.944091
 20
45.343692
 30
0.0
 10
66.997749
 20
44.999966
 30
0.0
 11
66.997749
 21
44.999966
 31
0.0
 11
66.930945
 21
44.493895
 31
0.0
 11
66.737220
 21
44.026192
 31
0.0
 11
66.426618
 21
43.621103
 31
0.0
 11
66.021534
 21
43.310495
 31
0.0
 11
65.553833
 21
43.116763
 31
0.0
 11
65.047763
 21
43.049951
 31
0.0
 11
64.541688
 21
43.116757
 31
0.0
 11
64.073981
 21
43.310485
 31
0.0
 11
63.668890
 21
43.621093
 31
0.0
 11
63.358283
 21
44.026183
 31
0.0
 11
63.164554
 21
44.493890
 31
0.0
 11
63.097749
 21
44.999966
 31
0.0
 11
63.164560
 21
45.506036
 31
0.0
 11
63.358292
 21
45.973736
 31
0.0
 11
63.668900
 21
46.378820
 31
0.0
 11
64.073989
 21
46.689423
 31
0.0
 11
64.541692
 21
46.883148
 31
0.0
 11
65.047763
 21
46.949952
 31
0.0
 11
66.031955
 21
46.683718
 31
0.0
 11
66.731515
 21
45.984158
 31
0.0
 11
66.997749
 21
44.999966
 31
0.0
  0
LWPOLYLINE
  5
10a
100
AcDbEntity
  8
Layer_1
 62
7
100
AcDbPolyline
 90
2
 70
1
 10
66.997749
 20
44.999966
 30
0.0
 10
66.997749
 20
44.999966
 30
0.0
  0
ENDSEC
  0
SECTION
  2
OBJECTS
  0
DICTIONARY
  5
C
330
0
100
AcDbDictionary
  3
ACAD_GROUP
350
D
  3
ACAD_MLINESTYLE
350
17
  0
DICTIONARY
  5
D
330
C
100
AcDbDictionary
  0
DICTIONARY
  5
1A
330
C
100
AcDbDictionary
  0
DICTIONARY
  5
17
330
C
100
AcDbDictionary
  3
STANDARD
350
18
  0
DICTIONARY
  5
19
330
C
100
AcDbDictionary
  0
ENDSEC
  0
EOF
