<svg xmlns="http://www.w3.org/2000/svg" version="1.1" width="512.7mm" height="372.7mm" viewBox = " 0 0 1816.6550370000002 1320.591637" >
<!-- Front--> 
<g transform="translate(22.5000185, 22.5000185) " > 
<polygon style="stroke:#000000; fill:none; stroke-width:0.90000074" points="0, 0 44.291375, 0 44.291375, 17.716549999999998 88.58275, 17.716549999999998 88.58275, 0 124.01585, 0 124.01585, 17.716549999999998 159.44895, 17.716549999999998 159.44895, 0 194.88205, 0 194.88205, 17.716549999999998 230.31515, 17.716549999999998 230.31515, 0 265.74825, 0 265.74825, 17.716549999999998 310.039625, 17.716549999999998 310.039625, 0 354.331, 0 354.331, 44.291375 336.61445000000003, 44.291375 336.61445000000003, 88.58275 354.331, 88.58275 354.331, 124.01585 336.61445000000003, 124.01585 336.61445000000003, 168.307225 354.331, 168.307225 354.331, 212.5986 310.039625, 212.5986 310.039625, 194.88205 265.74825, 194.88205 265.74825, 212.5986 230.31515, 212.5986 230.31515, 194.88205 194.88205, 194.88205 194.88205, 212.5986 159.44895, 212.5986 159.44895, 194.88205 124.01585, 194.88205 124.01585, 212.5986 88.58275, 212.5986 88.58275, 194.88205 44.291375, 194.88205 44.291375, 212.5986 0, 212.5986 0, 168.307225 17.716549999999998, 168.307225 17.716549999999998, 124.01585 0, 124.01585 0, 88.58275 17.716549999999998, 88.58275 17.716549999999998, 44.291375 0, 44.291375 "/> 
</g>
<!-- Back--> 
<g transform="translate(376.83101849999997, 22.5000185) " > 
 <circle cx="85.03944" cy="38.97641" r="7.08662" style="stroke:#000000;stroke-width:0.90000074;fill:none" /> 
 <circle cx="85.03944" cy="173.62219" r="7.08662" style="stroke:#000000;stroke-width:0.90000074;fill:none" /> 
 <circle cx="269.29156" cy="173.62219" r="7.08662" style="stroke:#000000;stroke-width:0.90000074;fill:none" /> 
 <circle cx="269.29156" cy="38.97641" r="7.08662" style="stroke:#000000;stroke-width:0.90000074;fill:none" /> 
<polygon style="stroke:#000000; fill:none; stroke-width:0.90000074" points="0, 0 44.291375, 0 44.291375, 17.716549999999998 88.58275, 17.716549999999998 88.58275, 0 124.01585, 0 124.01585, 17.716549999999998 159.44895, 17.716549999999998 159.44895, 0 194.88205, 0 194.88205, 17.716549999999998 230.31515, 17.716549999999998 230.31515, 0 265.74825, 0 265.74825, 17.716549999999998 310.039625, 17.716549999999998 310.039625, 0 354.331, 0 354.331, 44.291375 336.61445000000003, 44.291375 336.61445000000003, 88.58275 354.331, 88.58275 354.331, 124.01585 336.61445000000003, 124.01585 336.61445000000003, 168.307225 354.331, 168.307225 354.331, 212.5986 310.039625, 212.5986 310.039625, 194.88205 265.74825, 194.88205 265.74825, 212.5986 230.31515, 212.5986 230.31515, 194.88205 194.88205, 194.88205 194.88205, 212.5986 159.44895, 212.5986 159.44895, 194.88205 124.01585, 194.88205 124.01585, 212.5986 88.58275, 212.5986 88.58275, 194.88205 44.291375, 194.88205 44.291375, 212.5986 0, 212.5986 0, 168.307225 17.716549999999998, 168.307225 17.716549999999998, 124.01585 0, 124.01585 0, 88.58275 17.716549999999998, 88.58275 17.716549999999998, 44.291375 0, 44.291375 "/> 
</g>
<!-- Left--> 
<g transform="translate(731.1620184999999, 22.5000185) " > 
 <rect x="283.46479999999997" y="141.73239999999998" width="17.716549999999998" height="70.86619999999999" rx="0" ry="0" style="stroke:#000000;stroke-width:0.90000074;fill:none" /> 
<polygon style="stroke:#000000; fill:none; stroke-width:0.90000074" points="17.716549999999998, 0 44.291375, 0 44.291375, 17.716549999999998 88.58275, 17.716549999999998 88.58275, 0 124.01585, 0 124.01585, 17.716549999999998 159.44895, 17.716549999999998 159.44895, 0 194.88205, 0 194.88205, 17.716549999999998 230.31515, 17.716549999999998 230.31515, 0 265.74825, 0 265.74825, 17.716549999999998 301.18134999999995, 17.716549999999998 301.18134999999995, 0 336.61445, 0 336.61445, 17.716549999999998 372.04755, 17.716549999999998 372.04755, 0 407.48064999999997, 0 407.48064999999997, 17.716549999999998 442.91374999999994, 17.716549999999998 442.91374999999994, 0 478.34685, 0 478.34685, 17.716549999999998 513.77995, 17.716549999999998 513.77995, 0 549.21305, 0 549.21305, 17.716549999999998 584.6461499999999, 17.716549999999998 584.6461499999999, 0 620.07925, 0 620.07925, 17.716549999999998 655.51235, 17.716549999999998 655.51235, 0 690.9454499999999, 0 690.9454499999999, 17.716549999999998 726.3785499999999, 17.716549999999998 726.3785499999999, 0 761.81165, 0 761.81165, 17.716549999999998 797.24475, 17.716549999999998 797.24475, 0 832.6778499999999, 0 832.6778499999999, 17.716549999999998 868.11095, 17.716549999999998 868.11095, 0 903.54405, 0 903.54405, 17.716549999999998 938.9771499999999, 17.716549999999998 938.9771499999999, 0 974.4102499999999, 0 974.4102499999999, 17.716549999999998 1018.7016249999999, 17.716549999999998 1018.7016249999999, 0 1045.2764499999998, 0 1045.2764499999998, 44.291375 1062.993, 44.291375 1062.993, 88.58275 1045.2764499999998, 88.58275 1045.2764499999998, 124.01585 1062.993, 124.01585 1062.993, 168.307225 1045.2764499999998, 168.307225 1045.2764499999998, 212.5986 1018.7016249999999, 212.5986 1018.7016249999999, 194.88205 974.4102499999999, 194.88205 974.4102499999999, 212.5986 938.9771499999999, 212.5986 938.9771499999999, 194.88205 903.54405, 194.88205 903.54405, 212.5986 868.11095, 212.5986 868.11095, 194.88205 832.6778499999999, 194.88205 832.6778499999999, 212.5986 797.24475, 212.5986 797.24475, 194.88205 761.81165, 194.88205 761.81165, 212.5986 726.3785499999999, 212.5986 726.3785499999999, 194.88205 690.9454499999999, 194.88205 690.9454499999999, 212.5986 655.51235, 212.5986 655.51235, 194.88205 620.07925, 194.88205 620.07925, 212.5986 584.6461499999999, 212.5986 584.6461499999999, 194.88205 549.21305, 194.88205 549.21305, 212.5986 513.77995, 212.5986 513.77995, 194.88205 478.34685, 194.88205 478.34685, 212.5986 442.91374999999994, 212.5986 442.91374999999994, 194.88205 407.48064999999997, 194.88205 407.48064999999997, 212.5986 372.04755, 212.5986 372.04755, 194.88205 336.61445, 194.88205 336.61445, 212.5986 301.18134999999995, 212.5986 301.18134999999995, 194.88205 265.74825, 194.88205 265.74825, 212.5986 230.31515, 212.5986 230.31515, 194.88205 194.88205, 194.88205 194.88205, 212.5986 159.44895, 212.5986 159.44895, 194.88205 124.01585, 194.88205 124.01585, 212.5986 88.58275, 212.5986 88.58275, 194.88205 44.291375, 194.88205 44.291375, 212.5986 17.716549999999998, 212.5986 17.716549999999998, 168.307225 0, 168.307225 0, 124.01585 17.716549999999998, 124.01585 17.716549999999998, 88.58275 0, 88.58275 0, 44.291375 17.716549999999998, 44.291375 "/> 
</g>
<!-- Right--> 
<g transform="translate(731.1620184999999, 235.0986185) " > 
 <rect x="761.81165" y="141.73239999999998" width="17.716549999999998" height="70.86619999999999" rx="0" ry="0" style="stroke:#000000;stroke-width:0.90000074;fill:none" /> 
<polygon style="stroke:#000000; fill:none; stroke-width:0.90000074" points="17.716549999999998, 0 44.291375, 0 44.291375, 17.716549999999998 88.58275, 17.716549999999998 88.58275, 0 124.01585, 0 124.01585, 17.716549999999998 159.44895, 17.716549999999998 159.44895, 0 194.88205, 0 194.88205, 17.716549999999998 230.31515, 17.716549999999998 230.31515, 0 265.74825, 0 265.74825, 17.716549999999998 301.18134999999995, 17.716549999999998 301.18134999999995, 0 336.61445, 0 336.61445, 17.716549999999998 372.04755, 17.716549999999998 372.04755, 0 407.48064999999997, 0 407.48064999999997, 17.716549999999998 442.91374999999994, 17.716549999999998 442.91374999999994, 0 478.34685, 0 478.34685, 17.716549999999998 513.77995, 17.716549999999998 513.77995, 0 549.21305, 0 549.21305, 17.716549999999998 584.6461499999999, 17.716549999999998 584.6461499999999, 0 620.07925, 0 620.07925, 17.716549999999998 655.51235, 17.716549999999998 655.51235, 0 690.9454499999999, 0 690.9454499999999, 17.716549999999998 726.3785499999999, 17.716549999999998 726.3785499999999, 0 761.81165, 0 761.81165, 17.716549999999998 797.24475, 17.716549999999998 797.24475, 0 832.6778499999999, 0 832.6778499999999, 17.716549999999998 868.11095, 17.716549999999998 868.11095, 0 903.54405, 0 903.54405, 17.716549999999998 938.9771499999999, 17.716549999999998 938.9771499999999, 0 974.4102499999999, 0 974.4102499999999, 17.716549999999998 1018.7016249999999, 17.716549999999998 1018.7016249999999, 0 1045.2764499999998, 0 1045.2764499999998, 44.291375 1062.993, 44.291375 1062.993, 88.58275 1045.2764499999998, 88.58275 1045.2764499999998, 124.01585 1062.993, 124.01585 1062.993, 168.307225 1045.2764499999998, 168.307225 1045.2764499999998, 212.5986 1018.7016249999999, 212.5986 1018.7016249999999, 194.88205 974.4102499999999, 194.88205 974.4102499999999, 212.5986 938.9771499999999, 212.5986 938.9771499999999, 194.88205 903.54405, 194.88205 903.54405, 212.5986 868.11095, 212.5986 868.11095, 194.88205 832.6778499999999, 194.88205 832.6778499999999, 212.5986 797.24475, 212.5986 797.24475, 194.88205 761.81165, 194.88205 761.81165, 212.5986 726.3785499999999, 212.5986 726.3785499999999, 194.88205 690.9454499999999, 194.88205 690.9454499999999, 212.5986 655.51235, 212.5986 655.51235, 194.88205 620.07925, 194.88205 620.07925, 212.5986 584.6461499999999, 212.5986 584.6461499999999, 194.88205 549.21305, 194.88205 549.21305, 212.5986 513.77995, 212.5986 513.77995, 194.88205 478.34685, 194.88205 478.34685, 212.5986 442.91374999999994, 212.5986 442.91374999999994, 194.88205 407.48064999999997, 194.88205 407.48064999999997, 212.5986 372.04755, 212.5986 372.04755, 194.88205 336.61445, 194.88205 336.61445, 212.5986 301.18134999999995, 212.5986 301.18134999999995, 194.88205 265.74825, 194.88205 265.74825, 212.5986 230.31515, 212.5986 230.31515, 194.88205 194.88205, 194.88205 194.88205, 212.5986 159.44895, 212.5986 159.44895, 194.88205 124.01585, 194.88205 124.01585, 212.5986 88.58275, 212.5986 88.58275, 194.88205 44.291375, 194.88205 44.291375, 212.5986 17.716549999999998, 212.5986 17.716549999999998, 168.307225 0, 168.307225 0, 124.01585 17.716549999999998, 124.01585 17.716549999999998, 88.58275 0, 88.58275 0, 44.291375 17.716549999999998, 44.291375 "/> 
</g>
<!-- Top--> 
<g transform="translate(22.5000185, 235.0986185) " > 
 <circle cx="35.433099999999996" cy="318.8979" r="3.54331" style="stroke:#000000;stroke-width:0.90000074;fill:none" /> 
 <circle cx="35.433099999999996" cy="354.331" r="3.54331" style="stroke:#000000;stroke-width:0.90000074;fill:none" /> 
 <circle cx="35.433099999999996" cy="389.7641" r="3.54331" style="stroke:#000000;stroke-width:0.90000074;fill:none" /> 
 <circle cx="35.433099999999996" cy="425.1972" r="3.54331" style="stroke:#000000;stroke-width:0.90000074;fill:none" /> 
 <circle cx="35.433099999999996" cy="460.6303" r="3.54331" style="stroke:#000000;stroke-width:0.90000074;fill:none" /> 
 <circle cx="35.433099999999996" cy="496.0634" r="3.54331" style="stroke:#000000;stroke-width:0.90000074;fill:none" /> 
 <circle cx="35.433099999999996" cy="531.4965" r="3.54331" style="stroke:#000000;stroke-width:0.90000074;fill:none" /> 
 <circle cx="35.433099999999996" cy="566.9295999999999" r="3.54331" style="stroke:#000000;stroke-width:0.90000074;fill:none" /> 
 <circle cx="35.433099999999996" cy="602.3627" r="3.54331" style="stroke:#000000;stroke-width:0.90000074;fill:none" /> 
 <circle cx="35.433099999999996" cy="637.7958" r="3.54331" style="stroke:#000000;stroke-width:0.90000074;fill:none" /> 
 <circle cx="35.433099999999996" cy="673.2289" r="3.54331" style="stroke:#000000;stroke-width:0.90000074;fill:none" /> 
 <circle cx="35.433099999999996" cy="708.662" r="3.54331" style="stroke:#000000;stroke-width:0.90000074;fill:none" /> 
 <circle cx="35.433099999999996" cy="744.0951" r="3.54331" style="stroke:#000000;stroke-width:0.90000074;fill:none" /> 
 <circle cx="35.433099999999996" cy="779.5282" r="3.54331" style="stroke:#000000;stroke-width:0.90000074;fill:none" /> 
 <circle cx="35.433099999999996" cy="814.9612999999999" r="3.54331" style="stroke:#000000;stroke-width:0.90000074;fill:none" /> 
 <circle cx="35.433099999999996" cy="850.3944" r="3.54331" style="stroke:#000000;stroke-width:0.90000074;fill:none" /> 
 <circle cx="35.433099999999996" cy="885.8275" r="3.54331" style="stroke:#000000;stroke-width:0.90000074;fill:none" /> 
 <circle cx="35.433099999999996" cy="921.2606" r="3.54331" style="stroke:#000000;stroke-width:0.90000074;fill:none" /> 
 <circle cx="35.433099999999996" cy="956.6937" r="3.54331" style="stroke:#000000;stroke-width:0.90000074;fill:none" /> 
 <circle cx="35.433099999999996" cy="992.1268" r="3.54331" style="stroke:#000000;stroke-width:0.90000074;fill:none" /> 
 <circle cx="35.433099999999996" cy="1027.5599" r="3.54331" style="stroke:#000000;stroke-width:0.90000074;fill:none" /> 
 <circle cx="70.86619999999999" cy="318.8979" r="3.54331" style="stroke:#000000;stroke-width:0.90000074;fill:none" /> 
 <circle cx="70.86619999999999" cy="354.331" r="3.54331" style="stroke:#000000;stroke-width:0.90000074;fill:none" /> 
 <circle cx="70.86619999999999" cy="389.7641" r="3.54331" style="stroke:#000000;stroke-width:0.90000074;fill:none" /> 
 <circle cx="70.86619999999999" cy="425.1972" r="3.54331" style="stroke:#000000;stroke-width:0.90000074;fill:none" /> 
 <circle cx="70.86619999999999" cy="460.6303" r="3.54331" style="stroke:#000000;stroke-width:0.90000074;fill:none" /> 
 <circle cx="70.86619999999999" cy="496.0634" r="3.54331" style="stroke:#000000;stroke-width:0.90000074;fill:none" /> 
 <circle cx="70.86619999999999" cy="531.4965" r="3.54331" style="stroke:#000000;stroke-width:0.90000074;fill:none" /> 
 <circle cx="70.86619999999999" cy="566.9295999999999" r="3.54331" style="stroke:#000000;stroke-width:0.90000074;fill:none" /> 
 <circle cx="70.86619999999999" cy="602.3627" r="3.54331" style="stroke:#000000;stroke-width:0.90000074;fill:none" /> 
 <circle cx="70.86619999999999" cy="637.7958" r="3.54331" style="stroke:#000000;stroke-width:0.90000074;fill:none" /> 
 <circle cx="70.86619999999999" cy="673.2289" r="3.54331" style="stroke:#000000;stroke-width:0.90000074;fill:none" /> 
 <circle cx="70.86619999999999" cy="708.662" r="3.54331" style="stroke:#000000;stroke-width:0.90000074;fill:none" /> 
 <circle cx="70.86619999999999" cy="744.0951" r="3.54331" style="stroke:#000000;stroke-width:0.90000074;fill:none" /> 
 <circle cx="70.86619999999999" cy="779.5282" r="3.54331" style="stroke:#000000;stroke-width:0.90000074;fill:none" /> 
 <circle cx="70.86619999999999" cy="814.9612999999999" r="3.54331" style="stroke:#000000;stroke-width:0.90000074;fill:none" /> 
 <circle cx="70.86619999999999" cy="850.3944" r="3.54331" style="stroke:#000000;stroke-width:0.90000074;fill:none" /> 
 <circle cx="70.86619999999999" cy="885.8275" r="3.54331" style="stroke:#000000;stroke-width:0.90000074;fill:none" /> 
 <circle cx="70.86619999999999" cy="921.2606" r="3.54331" style="stroke:#000000;stroke-width:0.90000074;fill:none" /> 
 <circle cx="70.86619999999999" cy="956.6937" r="3.54331" style="stroke:#000000;stroke-width:0.90000074;fill:none" /> 
 <circle cx="70.86619999999999" cy="992.1268" r="3.54331" style="stroke:#000000;stroke-width:0.90000074;fill:none" /> 
 <circle cx="70.86619999999999" cy="1027.5599" r="3.54331" style="stroke:#000000;stroke-width:0.90000074;fill:none" /> 
 <circle cx="106.2993" cy="318.8979" r="3.54331" style="stroke:#000000;stroke-width:0.90000074;fill:none" /> 
 <circle cx="106.2993" cy="354.331" r="3.54331" style="stroke:#000000;stroke-width:0.90000074;fill:none" /> 
 <circle cx="106.2993" cy="389.7641" r="3.54331" style="stroke:#000000;stroke-width:0.90000074;fill:none" /> 
 <circle cx="106.2993" cy="425.1972" r="3.54331" style="stroke:#000000;stroke-width:0.90000074;fill:none" /> 
 <circle cx="106.2993" cy="460.6303" r="3.54331" style="stroke:#000000;stroke-width:0.90000074;fill:none" /> 
 <circle cx="106.2993" cy="496.0634" r="3.54331" style="stroke:#000000;stroke-width:0.90000074;fill:none" /> 
 <circle cx="106.2993" cy="531.4965" r="3.54331" style="stroke:#000000;stroke-width:0.90000074;fill:none" /> 
 <circle cx="106.2993" cy="566.9295999999999" r="3.54331" style="stroke:#000000;stroke-width:0.90000074;fill:none" /> 
 <circle cx="106.2993" cy="602.3627" r="3.54331" style="stroke:#000000;stroke-width:0.90000074;fill:none" /> 
 <circle cx="106.2993" cy="637.7958" r="3.54331" style="stroke:#000000;stroke-width:0.90000074;fill:none" /> 
 <circle cx="106.2993" cy="673.2289" r="3.54331" style="stroke:#000000;stroke-width:0.90000074;fill:none" /> 
 <circle cx="106.2993" cy="708.662" r="3.54331" style="stroke:#000000;stroke-width:0.90000074;fill:none" /> 
 <circle cx="106.2993" cy="744.0951" r="3.54331" style="stroke:#000000;stroke-width:0.90000074;fill:none" /> 
 <circle cx="106.2993" cy="779.5282" r="3.54331" style="stroke:#000000;stroke-width:0.90000074;fill:none" /> 
 <circle cx="106.2993" cy="814.9612999999999" r="3.54331" style="stroke:#000000;stroke-width:0.90000074;fill:none" /> 
 <circle cx="106.2993" cy="850.3944" r="3.54331" style="stroke:#000000;stroke-width:0.90000074;fill:none" /> 
 <circle cx="106.2993" cy="885.8275" r="3.54331" style="stroke:#000000;stroke-width:0.90000074;fill:none" /> 
 <circle cx="106.2993" cy="921.2606" r="3.54331" style="stroke:#000000;stroke-width:0.90000074;fill:none" /> 
 <circle cx="106.2993" cy="956.6937" r="3.54331" style="stroke:#000000;stroke-width:0.90000074;fill:none" /> 
 <circle cx="106.2993" cy="992.1268" r="3.54331" style="stroke:#000000;stroke-width:0.90000074;fill:none" /> 
 <circle cx="106.2993" cy="1027.5599" r="3.54331" style="stroke:#000000;stroke-width:0.90000074;fill:none" /> 
 <circle cx="141.73239999999998" cy="318.8979" r="3.54331" style="stroke:#000000;stroke-width:0.90000074;fill:none" /> 
 <circle cx="141.73239999999998" cy="354.331" r="3.54331" style="stroke:#000000;stroke-width:0.90000074;fill:none" /> 
 <circle cx="141.73239999999998" cy="389.7641" r="3.54331" style="stroke:#000000;stroke-width:0.90000074;fill:none" /> 
 <circle cx="141.73239999999998" cy="425.1972" r="3.54331" style="stroke:#000000;stroke-width:0.90000074;fill:none" /> 
 <circle cx="141.73239999999998" cy="460.6303" r="3.54331" style="stroke:#000000;stroke-width:0.90000074;fill:none" /> 
 <circle cx="141.73239999999998" cy="496.0634" r="3.54331" style="stroke:#000000;stroke-width:0.90000074;fill:none" /> 
 <circle cx="141.73239999999998" cy="531.4965" r="3.54331" style="stroke:#000000;stroke-width:0.90000074;fill:none" /> 
 <circle cx="141.73239999999998" cy="566.9295999999999" r="3.54331" style="stroke:#000000;stroke-width:0.90000074;fill:none" /> 
 <circle cx="141.73239999999998" cy="602.3627" r="3.54331" style="stroke:#000000;stroke-width:0.90000074;fill:none" /> 
 <circle cx="141.73239999999998" cy="637.7958" r="3.54331" style="stroke:#000000;stroke-width:0.90000074;fill:none" /> 
 <circle cx="141.73239999999998" cy="673.2289" r="3.54331" style="stroke:#000000;stroke-width:0.90000074;fill:none" /> 
 <circle cx="141.73239999999998" cy="708.662" r="3.54331" style="stroke:#000000;stroke-width:0.90000074;fill:none" /> 
 <circle cx="141.73239999999998" cy="744.0951" r="3.54331" style="stroke:#000000;stroke-width:0.90000074;fill:none" /> 
 <circle cx="141.73239999999998" cy="779.5282" r="3.54331" style="stroke:#000000;stroke-width:0.90000074;fill:none" /> 
 <circle cx="141.73239999999998" cy="814.9612999999999" r="3.54331" style="stroke:#000000;stroke-width:0.90000074;fill:none" /> 
 <circle cx="141.73239999999998" cy="850.3944" r="3.54331" style="stroke:#000000;stroke-width:0.90000074;fill:none" /> 
 <circle cx="141.73239999999998" cy="885.8275" r="3.54331" style="stroke:#000000;stroke-width:0.90000074;fill:none" /> 
 <circle cx="141.73239999999998" cy="921.2606" r="3.54331" style="stroke:#000000;stroke-width:0.90000074;fill:none" /> 
 <circle cx="141.73239999999998" cy="956.6937" r="3.54331" style="stroke:#000000;stroke-width:0.90000074;fill:none" /> 
 <circle cx="141.73239999999998" cy="992.1268" r="3.54331" style="stroke:#000000;stroke-width:0.90000074;fill:none" /> 
 <circle cx="141.73239999999998" cy="1027.5599" r="3.54331" style="stroke:#000000;stroke-width:0.90000074;fill:none" /> 
 <circle cx="177.1655" cy="318.8979" r="3.54331" style="stroke:#000000;stroke-width:0.90000074;fill:none" /> 
 <circle cx="177.1655" cy="354.331" r="3.54331" style="stroke:#000000;stroke-width:0.90000074;fill:none" /> 
 <circle cx="177.1655" cy="389.7641" r="3.54331" style="stroke:#000000;stroke-width:0.90000074;fill:none" /> 
 <circle cx="177.1655" cy="425.1972" r="3.54331" style="stroke:#000000;stroke-width:0.90000074;fill:none" /> 
 <circle cx="177.1655" cy="460.6303" r="3.54331" style="stroke:#000000;stroke-width:0.90000074;fill:none" /> 
 <circle cx="177.1655" cy="496.0634" r="3.54331" style="stroke:#000000;stroke-width:0.90000074;fill:none" /> 
 <circle cx="177.1655" cy="531.4965" r="3.54331" style="stroke:#000000;stroke-width:0.90000074;fill:none" /> 
 <circle cx="177.1655" cy="566.9295999999999" r="3.54331" style="stroke:#000000;stroke-width:0.90000074;fill:none" /> 
 <circle cx="177.1655" cy="602.3627" r="3.54331" style="stroke:#000000;stroke-width:0.90000074;fill:none" /> 
 <circle cx="177.1655" cy="637.7958" r="3.54331" style="stroke:#000000;stroke-width:0.90000074;fill:none" /> 
 <circle cx="177.1655" cy="673.2289" r="3.54331" style="stroke:#000000;stroke-width:0.90000074;fill:none" /> 
 <circle cx="177.1655" cy="708.662" r="3.54331" style="stroke:#000000;stroke-width:0.90000074;fill:none" /> 
 <circle cx="177.1655" cy="744.0951" r="3.54331" style="stroke:#000000;stroke-width:0.90000074;fill:none" /> 
 <circle cx="177.1655" cy="779.5282" r="3.54331" style="stroke:#000000;stroke-width:0.90000074;fill:none" /> 
 <circle cx="177.1655" cy="814.9612999999999" r="3.54331" style="stroke:#000000;stroke-width:0.90000074;fill:none" /> 
 <circle cx="177.1655" cy="850.3944" r="3.54331" style="stroke:#000000;stroke-width:0.90000074;fill:none" /> 
 <circle cx="177.1655" cy="885.8275" r="3.54331" style="stroke:#000000;stroke-width:0.90000074;fill:none" /> 
 <circle cx="177.1655" cy="921.2606" r="3.54331" style="stroke:#000000;stroke-width:0.90000074;fill:none" /> 
 <circle cx="177.1655" cy="956.6937" r="3.54331" style="stroke:#000000;stroke-width:0.90000074;fill:none" /> 
 <circle cx="177.1655" cy="992.1268" r="3.54331" style="stroke:#000000;stroke-width:0.90000074;fill:none" /> 
 <circle cx="177.1655" cy="1027.5599" r="3.54331" style="stroke:#000000;stroke-width:0.90000074;fill:none" /> 
 <circle cx="212.5986" cy="318.8979" r="3.54331" style="stroke:#000000;stroke-width:0.90000074;fill:none" /> 
 <circle cx="212.5986" cy="354.331" r="3.54331" style="stroke:#000000;stroke-width:0.90000074;fill:none" /> 
 <circle cx="212.5986" cy="389.7641" r="3.54331" style="stroke:#000000;stroke-width:0.90000074;fill:none" /> 
 <circle cx="212.5986" cy="425.1972" r="3.54331" style="stroke:#000000;stroke-width:0.90000074;fill:none" /> 
 <circle cx="212.5986" cy="460.6303" r="3.54331" style="stroke:#000000;stroke-width:0.90000074;fill:none" /> 
 <circle cx="212.5986" cy="496.0634" r="3.54331" style="stroke:#000000;stroke-width:0.90000074;fill:none" /> 
 <circle cx="212.5986" cy="531.4965" r="3.54331" style="stroke:#000000;stroke-width:0.90000074;fill:none" /> 
 <circle cx="212.5986" cy="566.9295999999999" r="3.54331" style="stroke:#000000;stroke-width:0.90000074;fill:none" /> 
 <circle cx="212.5986" cy="602.3627" r="3.54331" style="stroke:#000000;stroke-width:0.90000074;fill:none" /> 
 <circle cx="212.5986" cy="637.7958" r="3.54331" style="stroke:#000000;stroke-width:0.90000074;fill:none" /> 
 <circle cx="212.5986" cy="673.2289" r="3.54331" style="stroke:#000000;stroke-width:0.90000074;fill:none" /> 
 <circle cx="212.5986" cy="708.662" r="3.54331" style="stroke:#000000;stroke-width:0.90000074;fill:none" /> 
 <circle cx="212.5986" cy="744.0951" r="3.54331" style="stroke:#000000;stroke-width:0.90000074;fill:none" /> 
 <circle cx="212.5986" cy="779.5282" r="3.54331" style="stroke:#000000;stroke-width:0.90000074;fill:none" /> 
 <circle cx="212.5986" cy="814.9612999999999" r="3.54331" style="stroke:#000000;stroke-width:0.90000074;fill:none" /> 
 <circle cx="212.5986" cy="850.3944" r="3.54331" style="stroke:#000000;stroke-width:0.90000074;fill:none" /> 
 <circle cx="212.5986" cy="885.8275" r="3.54331" style="stroke:#000000;stroke-width:0.90000074;fill:none" /> 
 <circle cx="212.5986" cy="921.2606" r="3.54331" style="stroke:#000000;stroke-width:0.90000074;fill:none" /> 
 <circle cx="212.5986" cy="956.6937" r="3.54331" style="stroke:#000000;stroke-width:0.90000074;fill:none" /> 
 <circle cx="212.5986" cy="992.1268" r="3.54331" style="stroke:#000000;stroke-width:0.90000074;fill:none" /> 
 <circle cx="212.5986" cy="1027.5599" r="3.54331" style="stroke:#000000;stroke-width:0.90000074;fill:none" /> 
 <circle cx="248.0317" cy="318.8979" r="3.54331" style="stroke:#000000;stroke-width:0.90000074;fill:none" /> 
 <circle cx="248.0317" cy="354.331" r="3.54331" style="stroke:#000000;stroke-width:0.90000074;fill:none" /> 
 <circle cx="248.0317" cy="389.7641" r="3.54331" style="stroke:#000000;stroke-width:0.90000074;fill:none" /> 
 <circle cx="248.0317" cy="425.1972" r="3.54331" style="stroke:#000000;stroke-width:0.90000074;fill:none" /> 
 <circle cx="248.0317" cy="460.6303" r="3.54331" style="stroke:#000000;stroke-width:0.90000074;fill:none" /> 
 <circle cx="248.0317" cy="496.0634" r="3.54331" style="stroke:#000000;stroke-width:0.90000074;fill:none" /> 
 <circle cx="248.0317" cy="531.4965" r="3.54331" style="stroke:#000000;stroke-width:0.90000074;fill:none" /> 
 <circle cx="248.0317" cy="566.9295999999999" r="3.54331" style="stroke:#000000;stroke-width:0.90000074;fill:none" /> 
 <circle cx="248.0317" cy="602.3627" r="3.54331" style="stroke:#000000;stroke-width:0.90000074;fill:none" /> 
 <circle cx="248.0317" cy="637.7958" r="3.54331" style="stroke:#000000;stroke-width:0.90000074;fill:none" /> 
 <circle cx="248.0317" cy="673.2289" r="3.54331" style="stroke:#000000;stroke-width:0.90000074;fill:none" /> 
 <circle cx="248.0317" cy="708.662" r="3.54331" style="stroke:#000000;stroke-width:0.90000074;fill:none" /> 
 <circle cx="248.0317" cy="744.0951" r="3.54331" style="stroke:#000000;stroke-width:0.90000074;fill:none" /> 
 <circle cx="248.0317" cy="779.5282" r="3.54331" style="stroke:#000000;stroke-width:0.90000074;fill:none" /> 
 <circle cx="248.0317" cy="814.9612999999999" r="3.54331" style="stroke:#000000;stroke-width:0.90000074;fill:none" /> 
 <circle cx="248.0317" cy="850.3944" r="3.54331" style="stroke:#000000;stroke-width:0.90000074;fill:none" /> 
 <circle cx="248.0317" cy="885.8275" r="3.54331" style="stroke:#000000;stroke-width:0.90000074;fill:none" /> 
 <circle cx="248.0317" cy="921.2606" r="3.54331" style="stroke:#000000;stroke-width:0.90000074;fill:none" /> 
 <circle cx="248.0317" cy="956.6937" r="3.54331" style="stroke:#000000;stroke-width:0.90000074;fill:none" /> 
 <circle cx="248.0317" cy="992.1268" r="3.54331" style="stroke:#000000;stroke-width:0.90000074;fill:none" /> 
 <circle cx="248.0317" cy="1027.5599" r="3.54331" style="stroke:#000000;stroke-width:0.90000074;fill:none" /> 
 <circle cx="283.46479999999997" cy="318.8979" r="3.54331" style="stroke:#000000;stroke-width:0.90000074;fill:none" /> 
 <circle cx="283.46479999999997" cy="354.331" r="3.54331" style="stroke:#000000;stroke-width:0.90000074;fill:none" /> 
 <circle cx="283.46479999999997" cy="389.7641" r="3.54331" style="stroke:#000000;stroke-width:0.90000074;fill:none" /> 
 <circle cx="283.46479999999997" cy="425.1972" r="3.54331" style="stroke:#000000;stroke-width:0.90000074;fill:none" /> 
 <circle cx="283.46479999999997" cy="460.6303" r="3.54331" style="stroke:#000000;stroke-width:0.90000074;fill:none" /> 
 <circle cx="283.46479999999997" cy="496.0634" r="3.54331" style="stroke:#000000;stroke-width:0.90000074;fill:none" /> 
 <circle cx="283.46479999999997" cy="531.4965" r="3.54331" style="stroke:#000000;stroke-width:0.90000074;fill:none" /> 
 <circle cx="283.46479999999997" cy="566.9295999999999" r="3.54331" style="stroke:#000000;stroke-width:0.90000074;fill:none" /> 
 <circle cx="283.46479999999997" cy="602.3627" r="3.54331" style="stroke:#000000;stroke-width:0.90000074;fill:none" /> 
 <circle cx="283.46479999999997" cy="637.7958" r="3.54331" style="stroke:#000000;stroke-width:0.90000074;fill:none" /> 
 <circle cx="283.46479999999997" cy="673.2289" r="3.54331" style="stroke:#000000;stroke-width:0.90000074;fill:none" /> 
 <circle cx="283.46479999999997" cy="708.662" r="3.54331" style="stroke:#000000;stroke-width:0.90000074;fill:none" /> 
 <circle cx="283.46479999999997" cy="744.0951" r="3.54331" style="stroke:#000000;stroke-width:0.90000074;fill:none" /> 
 <circle cx="283.46479999999997" cy="779.5282" r="3.54331" style="stroke:#000000;stroke-width:0.90000074;fill:none" /> 
 <circle cx="283.46479999999997" cy="814.9612999999999" r="3.54331" style="stroke:#000000;stroke-width:0.90000074;fill:none" /> 
 <circle cx="283.46479999999997" cy="850.3944" r="3.54331" style="stroke:#000000;stroke-width:0.90000074;fill:none" /> 
 <circle cx="283.46479999999997" cy="885.8275" r="3.54331" style="stroke:#000000;stroke-width:0.90000074;fill:none" /> 
 <circle cx="283.46479999999997" cy="921.2606" r="3.54331" style="stroke:#000000;stroke-width:0.90000074;fill:none" /> 
 <circle cx="283.46479999999997" cy="956.6937" r="3.54331" style="stroke:#000000;stroke-width:0.90000074;fill:none" /> 
 <circle cx="283.46479999999997" cy="992.1268" r="3.54331" style="stroke:#000000;stroke-width:0.90000074;fill:none" /> 
 <circle cx="283.46479999999997" cy="1027.5599" r="3.54331" style="stroke:#000000;stroke-width:0.90000074;fill:none" /> 
 <circle cx="318.8979" cy="318.8979" r="3.54331" style="stroke:#000000;stroke-width:0.90000074;fill:none" /> 
 <circle cx="318.8979" cy="354.331" r="3.54331" style="stroke:#000000;stroke-width:0.90000074;fill:none" /> 
 <circle cx="318.8979" cy="389.7641" r="3.54331" style="stroke:#000000;stroke-width:0.90000074;fill:none" /> 
 <circle cx="318.8979" cy="425.1972" r="3.54331" style="stroke:#000000;stroke-width:0.90000074;fill:none" /> 
 <circle cx="318.8979" cy="460.6303" r="3.54331" style="stroke:#000000;stroke-width:0.90000074;fill:none" /> 
 <circle cx="318.8979" cy="496.0634" r="3.54331" style="stroke:#000000;stroke-width:0.90000074;fill:none" /> 
 <circle cx="318.8979" cy="531.4965" r="3.54331" style="stroke:#000000;stroke-width:0.90000074;fill:none" /> 
 <circle cx="318.8979" cy="566.9295999999999" r="3.54331" style="stroke:#000000;stroke-width:0.90000074;fill:none" /> 
 <circle cx="318.8979" cy="602.3627" r="3.54331" style="stroke:#000000;stroke-width:0.90000074;fill:none" /> 
 <circle cx="318.8979" cy="637.7958" r="3.54331" style="stroke:#000000;stroke-width:0.90000074;fill:none" /> 
 <circle cx="318.8979" cy="673.2289" r="3.54331" style="stroke:#000000;stroke-width:0.90000074;fill:none" /> 
 <circle cx="318.8979" cy="708.662" r="3.54331" style="stroke:#000000;stroke-width:0.90000074;fill:none" /> 
 <circle cx="318.8979" cy="744.0951" r="3.54331" style="stroke:#000000;stroke-width:0.90000074;fill:none" /> 
 <circle cx="318.8979" cy="779.5282" r="3.54331" style="stroke:#000000;stroke-width:0.90000074;fill:none" /> 
 <circle cx="318.8979" cy="814.9612999999999" r="3.54331" style="stroke:#000000;stroke-width:0.90000074;fill:none" /> 
 <circle cx="318.8979" cy="850.3944" r="3.54331" style="stroke:#000000;stroke-width:0.90000074;fill:none" /> 
 <circle cx="318.8979" cy="885.8275" r="3.54331" style="stroke:#000000;stroke-width:0.90000074;fill:none" /> 
 <circle cx="318.8979" cy="921.2606" r="3.54331" style="stroke:#000000;stroke-width:0.90000074;fill:none" /> 
 <circle cx="318.8979" cy="956.6937" r="3.54331" style="stroke:#000000;stroke-width:0.90000074;fill:none" /> 
 <circle cx="318.8979" cy="992.1268" r="3.54331" style="stroke:#000000;stroke-width:0.90000074;fill:none" /> 
 <circle cx="318.8979" cy="1027.5599" r="3.54331" style="stroke:#000000;stroke-width:0.90000074;fill:none" /> 
 <rect x="53.14965" y="56.69296" width="248.0317" height="194.88205" rx="7.9724474999999995" ry="7.9724474999999995" style="stroke:#000000;stroke-width:0.90000074;fill:none" /> 
 <circle cx="35.433099999999996" cy="35.433099999999996" r="7.08662" style="stroke:#000000;stroke-width:0.90000074;fill:none" /> 
 <circle cx="318.8979" cy="35.433099999999996" r="7.08662" style="stroke:#000000;stroke-width:0.90000074;fill:none" /> 
 <circle cx="318.8979" cy="850.3944" r="7.08662" style="stroke:#000000;stroke-width:0.90000074;fill:none" /> 
 <circle cx="35.433099999999996" cy="850.3944" r="7.08662" style="stroke:#000000;stroke-width:0.90000074;fill:none" /> 
 <circle cx="35.433099999999996" cy="1027.5599" r="7.08662" style="stroke:#000000;stroke-width:0.90000074;fill:none" /> 
 <circle cx="318.8979" cy="1027.5599" r="7.08662" style="stroke:#000000;stroke-width:0.90000074;fill:none" /> 
 <rect x="106.2993" y="283.46479999999997" width="141.73239999999998" height="17.716549999999998" rx="0" ry="0" style="stroke:#000000;stroke-width:0.90000074;fill:none" /> 
<polygon style="stroke:#000000; fill:none; stroke-width:0.90000074" points="17.716549999999998, 17.716549999999998 44.291375, 17.716549999999998 44.291375, 0 88.58275, 0 88.58275, 17.716549999999998 124.01585, 17.716549999999998 124.01585, 0 159.44895, 0 159.44895, 17.716549999999998 194.88205, 17.716549999999998 194.88205, 0 230.31515, 0 230.31515, 17.716549999999998 265.74825, 17.716549999999998 265.74825, 0 310.039625, 0 310.039625, 17.716549999999998 336.61445000000003, 17.716549999999998 336.61445000000003, 44.291375 354.331, 44.291375 354.331, 88.58275 336.61445000000003, 88.58275 336.61445000000003, 124.01585 354.331, 124.01585 354.331, 159.44895 336.61445000000003, 159.44895 336.61445000000003, 194.88205 354.331, 194.88205 354.331, 230.31515 336.61445000000003, 230.31515 336.61445000000003, 265.74825 354.331, 265.74825 354.331, 301.18134999999995 336.61445000000003, 301.18134999999995 336.61445000000003, 336.61445 354.331, 336.61445 354.331, 372.04755 336.61445000000003, 372.04755 336.61445000000003, 407.48064999999997 354.331, 407.48064999999997 354.331, 442.91374999999994 336.61445000000003, 442.91374999999994 336.61445000000003, 478.34685 354.331, 478.34685 354.331, 513.77995 336.61445000000003, 513.77995 336.61445000000003, 549.21305 354.331, 549.21305 354.331, 584.6461499999999 336.61445000000003, 584.6461499999999 336.61445000000003, 620.07925 354.331, 620.07925 354.331, 655.51235 336.61445000000003, 655.51235 336.61445000000003, 690.9454499999999 354.331, 690.9454499999999 354.331, 726.3785499999999 336.61445000000003, 726.3785499999999 336.61445000000003, 761.81165 354.331, 761.81165 354.331, 797.24475 336.61445000000003, 797.24475 336.61445000000003, 832.6778499999999 354.331, 832.6778499999999 354.331, 868.11095 336.61445000000003, 868.11095 336.61445000000003, 903.54405 354.331, 903.54405 354.331, 938.9771499999999 336.61445000000003, 938.9771499999999 336.61445000000003, 974.4102499999999 354.331, 974.4102499999999 354.331, 1018.7016249999999 336.61445000000003, 1018.7016249999999 336.61445000000003, 1045.2764499999998 310.039625, 1045.2764499999998 310.039625, 1062.993 265.74825, 1062.993 265.74825, 1045.2764499999998 230.31515, 1045.2764499999998 230.31515, 1062.993 194.88205, 1062.993 194.88205, 1045.2764499999998 159.44895, 1045.2764499999998 159.44895, 1062.993 124.01585, 1062.993 124.01585, 1045.2764499999998 88.58275, 1045.2764499999998 88.58275, 1062.993 44.291375, 1062.993 44.291375, 1045.2764499999998 17.716549999999998, 1045.2764499999998 17.716549999999998, 1018.7016249999999 0, 1018.7016249999999 0, 974.4102499999999 17.716549999999998, 974.4102499999999 17.716549999999998, 938.9771499999999 0, 938.9771499999999 0, 903.54405 17.716549999999998, 903.54405 17.716549999999998, 868.11095 0, 868.11095 0, 832.6778499999999 17.716549999999998, 832.6778499999999 17.716549999999998, 797.24475 0, 797.24475 0, 761.81165 17.716549999999998, 761.81165 17.716549999999998, 726.3785499999999 0, 726.3785499999999 0, 690.9454499999999 17.716549999999998, 690.9454499999999 17.716549999999998, 655.51235 0, 655.51235 0, 620.07925 17.716549999999998, 620.07925 17.716549999999998, 584.6461499999999 0, 584.6461499999999 0, 549.21305 17.716549999999998, 549.21305 17.716549999999998, 513.77995 0, 513.77995 0, 478.34685 17.716549999999998, 478.34685 17.716549999999998, 442.91374999999994 0, 442.91374999999994 0, 407.48064999999997 17.716549999999998, 407.48064999999997 17.716549999999998, 372.04755 0, 372.04755 0, 336.61445 17.716549999999998, 336.61445 17.716549999999998, 301.18134999999995 0, 301.18134999999995 0, 265.74825 17.716549999999998, 265.74825 17.716549999999998, 230.31515 0, 230.31515 0, 194.88205 17.716549999999998, 194.88205 17.716549999999998, 159.44895 0, 159.44895 0, 124.01585 17.716549999999998, 124.01585 17.716549999999998, 88.58275 0, 88.58275 0, 44.291375 17.716549999999998, 44.291375 "/> 
</g>
<!-- Bottom--> 
<g transform="translate(376.83101849999997, 235.0986185) " > 
 <circle cx="35.433099999999996" cy="35.433099999999996" r="7.08662" style="stroke:#000000;stroke-width:0.90000074;fill:none" /> 
 <circle cx="318.8979" cy="35.433099999999996" r="7.08662" style="stroke:#000000;stroke-width:0.90000074;fill:none" /> 
 <circle cx="318.8979" cy="212.5986" r="7.08662" style="stroke:#000000;stroke-width:0.90000074;fill:none" /> 
 <circle cx="35.433099999999996" cy="212.5986" r="7.08662" style="stroke:#000000;stroke-width:0.90000074;fill:none" /> 
 <circle cx="35.433099999999996" cy="1027.5599" r="7.08662" style="stroke:#000000;stroke-width:0.90000074;fill:none" /> 
 <circle cx="318.8979" cy="1027.5599" r="7.08662" style="stroke:#000000;stroke-width:0.90000074;fill:none" /> 
 <circle cx="283.46479999999997" cy="914.17398" r="21.25986" style="stroke:#000000;stroke-width:0.90000074;fill:none" /> 
 <rect x="0" y="177.1655" width="354.331" height="0.354331" rx="0" ry="0" style="stroke:#000000;stroke-width:0.90000074;fill:none" /> 
<polygon style="stroke:#000000; fill:none; stroke-width:0.90000074" points="17.716549999999998, 17.716549999999998 44.291375, 17.716549999999998 44.291375, 0 88.58275, 0 88.58275, 17.716549999999998 124.01585, 17.716549999999998 124.01585, 0 159.44895, 0 159.44895, 17.716549999999998 194.88205, 17.716549999999998 194.88205, 0 230.31515, 0 230.31515, 17.716549999999998 265.74825, 17.716549999999998 265.74825, 0 310.039625, 0 310.039625, 17.716549999999998 336.61445000000003, 17.716549999999998 336.61445000000003, 44.291375 354.331, 44.291375 354.331, 88.58275 336.61445000000003, 88.58275 336.61445000000003, 124.01585 354.331, 124.01585 354.331, 159.44895 336.61445000000003, 159.44895 336.61445000000003, 194.88205 354.331, 194.88205 354.331, 230.31515 336.61445000000003, 230.31515 336.61445000000003, 265.74825 354.331, 265.74825 354.331, 301.18134999999995 336.61445000000003, 301.18134999999995 336.61445000000003, 336.61445 354.331, 336.61445 354.331, 372.04755 336.61445000000003, 372.04755 336.61445000000003, 407.48064999999997 354.331, 407.48064999999997 354.331, 442.91374999999994 336.61445000000003, 442.91374999999994 336.61445000000003, 478.34685 354.331, 478.34685 354.331, 513.77995 336.61445000000003, 513.77995 336.61445000000003, 549.21305 354.331, 549.21305 354.331, 584.6461499999999 336.61445000000003, 584.6461499999999 336.61445000000003, 620.07925 354.331, 620.07925 354.331, 655.51235 336.61445000000003, 655.51235 336.61445000000003, 690.9454499999999 354.331, 690.9454499999999 354.331, 726.3785499999999 336.61445000000003, 726.3785499999999 336.61445000000003, 761.81165 354.331, 761.81165 354.331, 797.24475 336.61445000000003, 797.24475 336.61445000000003, 832.6778499999999 354.331, 832.6778499999999 354.331, 868.11095 336.61445000000003, 868.11095 336.61445000000003, 903.54405 354.331, 903.54405 354.331, 938.9771499999999 336.61445000000003, 938.9771499999999 336.61445000000003, 974.4102499999999 354.331, 974.4102499999999 354.331, 1018.7016249999999 336.61445000000003, 1018.7016249999999 336.61445000000003, 1045.2764499999998 310.039625, 1045.2764499999998 310.039625, 1062.993 265.74825, 1062.993 265.74825, 1045.2764499999998 230.31515, 1045.2764499999998 230.31515, 1062.993 194.88205, 1062.993 194.88205, 1045.2764499999998 159.44895, 1045.2764499999998 159.44895, 1062.993 124.01585, 1062.993 124.01585, 1045.2764499999998 88.58275, 1045.2764499999998 88.58275, 1062.993 44.291375, 1062.993 44.291375, 1045.2764499999998 17.716549999999998, 1045.2764499999998 17.716549999999998, 1018.7016249999999 0, 1018.7016249999999 0, 974.4102499999999 17.716549999999998, 974.4102499999999 17.716549999999998, 938.9771499999999 0, 938.9771499999999 0, 903.54405 17.716549999999998, 903.54405 17.716549999999998, 868.11095 0, 868.11095 0, 832.6778499999999 17.716549999999998, 832.6778499999999 17.716549999999998, 797.24475 0, 797.24475 0, 761.81165 17.716549999999998, 761.81165 17.716549999999998, 726.3785499999999 0, 726.3785499999999 0, 690.9454499999999 17.716549999999998, 690.9454499999999 17.716549999999998, 655.51235 0, 655.51235 0, 620.07925 17.716549999999998, 620.07925 17.716549999999998, 584.6461499999999 0, 584.6461499999999 0, 549.21305 17.716549999999998, 549.21305 17.716549999999998, 513.77995 0, 513.77995 0, 478.34685 17.716549999999998, 478.34685 17.716549999999998, 442.91374999999994 0, 442.91374999999994 0, 407.48064999999997 17.716549999999998, 407.48064999999997 17.716549999999998, 372.04755 0, 372.04755 0, 336.61445 17.716549999999998, 336.61445 17.716549999999998, 301.18134999999995 0, 301.18134999999995 0, 265.74825 17.716549999999998, 265.74825 17.716549999999998, 230.31515 0, 230.31515 0, 194.88205 17.716549999999998, 194.88205 17.716549999999998, 159.44895 0, 159.44895 0, 124.01585 17.716549999999998, 124.01585 17.716549999999998, 88.58275 0, 88.58275 0, 44.291375 17.716549999999998, 44.291375 "/> 
</g></svg>