<?xml version="1.0" encoding="UTF-8" standalone="no"?>
<!-- Created with Inkscape (http://www.inkscape.org/) -->

<svg
   xmlns:dc="http://purl.org/dc/elements/1.1/"
   xmlns:cc="http://creativecommons.org/ns#"
   xmlns:rdf="http://www.w3.org/1999/02/22-rdf-syntax-ns#"
   xmlns:svg="http://www.w3.org/2000/svg"
   xmlns="http://www.w3.org/2000/svg"
   xmlns:sodipodi="http://sodipodi.sourceforge.net/DTD/sodipodi-0.dtd"
   xmlns:inkscape="http://www.inkscape.org/namespaces/inkscape"
   width="600mm"
   height="400mm"
   viewBox="0 0 2125.9843 1417.3228"
   id="svg5959"
   version="1.1"
   inkscape:version="0.91 r13725"
   sodipodi:docname="drawing-V2.02.svg">
  <defs
     id="defs5961" />
  <sodipodi:namedview
     id="base"
     pagecolor="#ffffff"
     bordercolor="#666666"
     borderopacity="1.0"
     inkscape:pageopacity="0.0"
     inkscape:pageshadow="2"
     inkscape:zoom="0.7"
     inkscape:cx="763.73396"
     inkscape:cy="596.5791"
     inkscape:document-units="mm"
     inkscape:current-layer="g6963"
     showgrid="false"
     inkscape:window-width="2560"
     inkscape:window-height="1335"
     inkscape:window-x="1912"
     inkscape:window-y="-8"
     inkscape:window-maximized="1">
    <inkscape:grid
       type="xygrid"
       id="grid6507" />
  </sodipodi:namedview>
  <metadata
     id="metadata5964">
    <rdf:RDF>
      <cc:Work
         rdf:about="">
        <dc:format>image/svg+xml</dc:format>
        <dc:type
           rdf:resource="http://purl.org/dc/dcmitype/StillImage" />
        <dc:title></dc:title>
      </cc:Work>
    </rdf:RDF>
  </metadata>
  <g
     inkscape:label="Layer 1"
     inkscape:groupmode="layer"
     id="layer1"
     transform="translate(0,364.96067)">
    <g
       id="g6963"
       transform="translate(94.529743,-336.50516)"
       style="stroke:#000000;stroke-opacity:1;stroke-width:0.35433074;stroke-miterlimit:4;stroke-dasharray:none">
      <g
         id="g6511"
         transform="translate(-91.78571,-26.071413)"
         style="stroke:#000000;stroke-width:0.35433075;stroke-miterlimit:4;stroke-dasharray:none;stroke-opacity:1">
        <path
           style="fill:none;stroke:#000000;stroke-width:0.35433075;stroke-miterlimit:4;stroke-dasharray:none;stroke-opacity:1"
           d="m 88.58275,0 35.4331,0 0,17.71655 35.4331,0 0,-17.71655 35.4331,0 0,17.71655 35.4331,0 0,-17.71655 35.4331,0 0,17.71655 44.29138,0 0,-17.71655 44.29137,0 0,44.291375 -17.71655,0 0,44.291375 17.71655,0 0,35.4331 -17.71655,0 0,44.29137 17.71655,0 0,44.29138 -44.29137,0 0,-17.71655 -44.29138,0 0,17.71655 -35.4331,0 0,-17.71655 -35.4331,0 0,17.71655 -35.4331,0 0,-17.71655 -35.4331,0 0,17.71655 -35.4331,0 0,-17.71655 -44.291375,0 0,17.71655 -44.291375,0 0,-44.29138 17.71655,0 0,-44.29137 -17.71655,0 0,-35.4331 17.71655,0 0,-44.291375 L 0,44.291375 0,0 l 44.291375,0 0,17.71655 44.291375,0 z"
           id="polygon6513" />
      </g>
      <g
         id="g6515"
         transform="translate(262.54529,-26.071413)"
         style="stroke:#000000;stroke-width:0.35433075;stroke-miterlimit:4;stroke-dasharray:none;stroke-opacity:1">
        <path
           style="fill:none;stroke:#000000;stroke-width:0.35433075;stroke-miterlimit:4;stroke-dasharray:none;stroke-opacity:1"
           d="m 92.126056,38.97641 a 7.0866199,7.0866199 0 0 1 -7.08662,7.08662 7.0866199,7.0866199 0 0 1 -7.08662,-7.08662 7.0866199,7.0866199 0 0 1 7.08662,-7.08662 7.0866199,7.0866199 0 0 1 7.08662,7.08662 z"
           id="circle6517" />
        <path
           style="fill:none;stroke:#000000;stroke-width:0.35433075;stroke-miterlimit:4;stroke-dasharray:none;stroke-opacity:1"
           d="m 92.126056,173.62219 a 7.0866199,7.0866199 0 0 1 -7.08662,7.08662 7.0866199,7.0866199 0 0 1 -7.08662,-7.08662 7.0866199,7.0866199 0 0 1 7.08662,-7.08662 7.0866199,7.0866199 0 0 1 7.08662,7.08662 z"
           id="circle6519" />
        <path
           style="fill:none;stroke:#000000;stroke-width:0.35433075;stroke-miterlimit:4;stroke-dasharray:none;stroke-opacity:1"
           d="m 276.37818,173.62219 a 7.0866199,7.0866199 0 0 1 -7.08662,7.08662 7.0866199,7.0866199 0 0 1 -7.08661,-7.08662 7.0866199,7.0866199 0 0 1 7.08661,-7.08662 7.0866199,7.0866199 0 0 1 7.08662,7.08662 z"
           id="circle6521" />
        <path
           style="fill:none;stroke:#000000;stroke-width:0.35433075;stroke-miterlimit:4;stroke-dasharray:none;stroke-opacity:1"
           d="m 276.37818,38.97641 a 7.0866199,7.0866199 0 0 1 -7.08662,7.08662 7.0866199,7.0866199 0 0 1 -7.08661,-7.08662 7.0866199,7.0866199 0 0 1 7.08661,-7.08662 7.0866199,7.0866199 0 0 1 7.08662,7.08662 z"
           id="circle6523" />
        <path
           style="fill:none;stroke:#000000;stroke-width:0.35433075;stroke-miterlimit:4;stroke-dasharray:none;stroke-opacity:1"
           d="m 88.58275,0 35.4331,0 0,17.71655 35.4331,0 0,-17.71655 35.4331,0 0,17.71655 35.4331,0 0,-17.71655 35.4331,0 0,17.71655 44.29138,0 0,-17.71655 44.29137,0 0,44.291375 -17.71655,0 0,44.291375 17.71655,0 0,35.4331 -17.71655,0 0,44.29137 17.71655,0 0,44.29138 -44.29137,0 0,-17.71655 -44.29138,0 0,17.71655 -35.4331,0 0,-17.71655 -35.4331,0 0,17.71655 -35.4331,0 0,-17.71655 -35.4331,0 0,17.71655 -35.4331,0 0,-17.71655 -44.291375,0 0,17.71655 -44.291375,0 0,-44.29138 17.71655,0 0,-44.29137 -17.71655,0 0,-35.4331 17.71655,0 0,-44.291375 L 0,44.291375 0,0 l 44.291375,0 0,17.71655 44.291375,0 z"
           id="polygon6525" />
      </g>
      <g
         id="g6527"
         transform="matrix(0,0.99999994,-1.0000001,0,1050.3864,-22.697124)"
         style="stroke:#000000;stroke-width:0.35433075;stroke-miterlimit:4;stroke-dasharray:none;stroke-opacity:1">
        <path
           style="fill:none;stroke:#000000;stroke-width:0.35433075;stroke-miterlimit:4;stroke-dasharray:none;stroke-opacity:1"
           d="m 283.46481,141.73241 17.71655,0 0,70.8662 -17.71655,0 z"
           id="rect6529" />
        <path
           style="fill:none;stroke:#000000;stroke-width:0.35433075;stroke-miterlimit:4;stroke-dasharray:none;stroke-opacity:1"
           d="m 159.44895,17.71655 0,-17.71655 35.4331,0 0,17.71655 35.4331,0 0,-17.71655 35.4331,0 0,17.71655 35.4331,0 0,-17.71655 35.4331,0 0,17.71655 35.4331,0 0,-17.71655 35.4331,0 0,17.71655 35.4331,0 0,-17.71655 35.4331,0 0,17.71655 35.4331,0 0,-17.71655 35.4331,0 0,17.71655 35.4331,0 0,-17.71655 35.4331,0 0,17.71655 35.4331,0 0,-17.71655 35.4331,0 0,17.71655 35.4331,0 0,-17.71655 35.4331,0 0,17.71655 35.4331,0 0,-17.71655 35.4331,0 0,17.71655 35.4331,0 0,-17.71655 35.4331,0 0,17.71655 35.4331,0 0,-17.71655 35.4331,0 0,17.71655 44.29135,0 0,-17.71655 26.5748,0 0,44.291375 17.7166,0 0,44.291375 -17.7166,0 0,35.4331 17.7166,0 0,44.29137 -17.7166,0 0,44.29138 -26.5748,0 0,-17.71655 -44.29135,0 0,17.71655 -35.4331,0 0,-17.71655 -35.4331,0 0,17.71655 -35.4331,0 0,-17.71655 -35.4331,0 0,17.71655 -35.4331,0 0,-17.71655 -35.4331,0 0,17.71655 -35.4331,0 0,-17.71655 -35.4331,0 0,17.71655 -35.4331,0 0,-17.71655 -35.4331,0 0,17.71655 -35.4331,0 0,-17.71655 -35.4331,0 0,17.71655 -35.4331,0 0,-17.71655 -35.4331,0 0,17.71655 -35.4331,0 0,-17.71655 -35.4331,0 0,17.71655 -35.4331,0 0,-17.71655 -35.4331,0 0,17.71655 -35.4331,0 0,-17.71655 -35.4331,0 0,17.71655 -35.4331,0 0,-17.71655 -35.4331,0 0,17.71655 -35.4331,0 0,-17.71655 -35.4331,0 0,17.71655 -35.4331,0 0,-17.71655 -44.291375,0 0,17.71655 -26.574825,0 0,-44.29138 -17.71655,0 0,-44.29137 17.71655,0 0,-35.4331 -17.71655,0 0,-44.291375 17.71655,0 0,-44.291375 26.574825,0 0,17.71655 44.291375,0 0,-17.71655 35.4331,0 0,17.71655 z"
           id="polygon6531" />
      </g>
      <g
         id="g6533"
         transform="matrix(0,0.99999994,-1.0000001,0,833.24353,-24.384252)"
         style="stroke:#000000;stroke-width:0.35433075;stroke-miterlimit:4;stroke-dasharray:none;stroke-opacity:1">
        <path
           style="fill:none;stroke:#000000;stroke-width:0.35433075;stroke-miterlimit:4;stroke-dasharray:none;stroke-opacity:1"
           d="m 761.81165,141.73241 17.71655,0 0,70.8662 -17.71655,0 z"
           id="rect6535" />
        <path
           style="fill:none;stroke:#000000;stroke-width:0.35433075;stroke-miterlimit:4;stroke-dasharray:none;stroke-opacity:1"
           d="m 159.44895,17.71655 0,-17.71655 35.4331,0 0,17.71655 35.4331,0 0,-17.71655 35.4331,0 0,17.71655 35.4331,0 0,-17.71655 35.4331,0 0,17.71655 35.4331,0 0,-17.71655 35.4331,0 0,17.71655 35.4331,0 0,-17.71655 35.4331,0 0,17.71655 35.4331,0 0,-17.71655 35.4331,0 0,17.71655 35.4331,0 0,-17.71655 35.4331,0 0,17.71655 35.4331,0 0,-17.71655 35.4331,0 0,17.71655 35.4331,0 0,-17.71655 35.4331,0 0,17.71655 35.4331,0 0,-17.71655 35.4331,0 0,17.71655 35.4331,0 0,-17.71655 35.4331,0 0,17.71655 35.4331,0 0,-17.71655 35.4331,0 0,17.71655 44.29135,0 0,-17.71655 26.5748,0 0,44.291375 17.7166,0 0,44.291375 -17.7166,0 0,35.4331 17.7166,0 0,44.29137 -17.7166,0 0,44.29138 -26.5748,0 0,-17.71655 -44.29135,0 0,17.71655 -35.4331,0 0,-17.71655 -35.4331,0 0,17.71655 -35.4331,0 0,-17.71655 -35.4331,0 0,17.71655 -35.4331,0 0,-17.71655 -35.4331,0 0,17.71655 -35.4331,0 0,-17.71655 -35.4331,0 0,17.71655 -35.4331,0 0,-17.71655 -35.4331,0 0,17.71655 -35.4331,0 0,-17.71655 -35.4331,0 0,17.71655 -35.4331,0 0,-17.71655 -35.4331,0 0,17.71655 -35.4331,0 0,-17.71655 -35.4331,0 0,17.71655 -35.4331,0 0,-17.71655 -35.4331,0 0,17.71655 -35.4331,0 0,-17.71655 -35.4331,0 0,17.71655 -35.4331,0 0,-17.71655 -35.4331,0 0,17.71655 -35.4331,0 0,-17.71655 -35.4331,0 0,17.71655 -35.4331,0 0,-17.71655 -44.291375,0 0,17.71655 -26.574825,0 0,-44.29138 -17.71655,0 0,-44.29137 17.71655,0 0,-35.4331 -17.71655,0 0,-44.291375 17.71655,0 0,-44.291375 26.574825,0 0,17.71655 44.291375,0 0,-17.71655 35.4331,0 0,17.71655 z"
           id="polygon6537" />
      </g>
      <g
         id="g6539"
         transform="translate(-91.78571,186.52719)"
         style="stroke:#000000;stroke-width:0.35433075;stroke-miterlimit:4;stroke-dasharray:none;stroke-opacity:1">
        <path
           style="fill:none;stroke:#000000;stroke-width:0.35433075;stroke-miterlimit:4;stroke-dasharray:none;stroke-opacity:1"
           d="m 38.976412,318.89789 a 3.5433099,3.5433099 0 0 1 -3.54331,3.54331 3.5433099,3.5433099 0 0 1 -3.54331,-3.54331 3.5433099,3.5433099 0 0 1 3.54331,-3.54331 3.5433099,3.5433099 0 0 1 3.54331,3.54331 z"
           id="circle6541" />
        <path
           style="fill:none;stroke:#000000;stroke-width:0.35433075;stroke-miterlimit:4;stroke-dasharray:none;stroke-opacity:1"
           d="m 38.976412,354.33099 a 3.5433099,3.5433099 0 0 1 -3.54331,3.54331 3.5433099,3.5433099 0 0 1 -3.54331,-3.54331 3.5433099,3.5433099 0 0 1 3.54331,-3.54331 3.5433099,3.5433099 0 0 1 3.54331,3.54331 z"
           id="circle6543" />
        <path
           style="fill:none;stroke:#000000;stroke-width:0.35433075;stroke-miterlimit:4;stroke-dasharray:none;stroke-opacity:1"
           d="m 38.976412,389.7641 a 3.5433099,3.5433099 0 0 1 -3.54331,3.54331 3.5433099,3.5433099 0 0 1 -3.54331,-3.54331 3.5433099,3.5433099 0 0 1 3.54331,-3.54331 3.5433099,3.5433099 0 0 1 3.54331,3.54331 z"
           id="circle6545" />
        <path
           style="fill:none;stroke:#000000;stroke-width:0.35433075;stroke-miterlimit:4;stroke-dasharray:none;stroke-opacity:1"
           d="m 38.976412,425.1972 a 3.5433099,3.5433099 0 0 1 -3.54331,3.54331 3.5433099,3.5433099 0 0 1 -3.54331,-3.54331 3.5433099,3.5433099 0 0 1 3.54331,-3.54331 3.5433099,3.5433099 0 0 1 3.54331,3.54331 z"
           id="circle6547" />
        <path
           style="fill:none;stroke:#000000;stroke-width:0.35433075;stroke-miterlimit:4;stroke-dasharray:none;stroke-opacity:1"
           d="m 38.976412,460.63031 a 3.5433099,3.5433099 0 0 1 -3.54331,3.54331 3.5433099,3.5433099 0 0 1 -3.54331,-3.54331 3.5433099,3.5433099 0 0 1 3.54331,-3.54331 3.5433099,3.5433099 0 0 1 3.54331,3.54331 z"
           id="circle6549" />
        <path
           style="fill:none;stroke:#000000;stroke-width:0.35433075;stroke-miterlimit:4;stroke-dasharray:none;stroke-opacity:1"
           d="m 38.976412,496.06339 a 3.5433099,3.5433099 0 0 1 -3.54331,3.5433 3.5433099,3.5433099 0 0 1 -3.54331,-3.5433 3.5433099,3.5433099 0 0 1 3.54331,-3.54331 3.5433099,3.5433099 0 0 1 3.54331,3.54331 z"
           id="circle6551" />
        <path
           style="fill:none;stroke:#000000;stroke-width:0.35433075;stroke-miterlimit:4;stroke-dasharray:none;stroke-opacity:1"
           d="m 38.976412,531.49652 a 3.5433099,3.5433099 0 0 1 -3.54331,3.54331 3.5433099,3.5433099 0 0 1 -3.54331,-3.54331 3.5433099,3.5433099 0 0 1 3.54331,-3.54331 3.5433099,3.5433099 0 0 1 3.54331,3.54331 z"
           id="circle6553" />
        <path
           style="fill:none;stroke:#000000;stroke-width:0.35433075;stroke-miterlimit:4;stroke-dasharray:none;stroke-opacity:1"
           d="m 38.976412,566.92963 a 3.5433099,3.5433099 0 0 1 -3.54331,3.54331 3.5433099,3.5433099 0 0 1 -3.54331,-3.54331 3.5433099,3.5433099 0 0 1 3.54331,-3.54331 3.5433099,3.5433099 0 0 1 3.54331,3.54331 z"
           id="circle6555" />
        <path
           style="fill:none;stroke:#000000;stroke-width:0.35433075;stroke-miterlimit:4;stroke-dasharray:none;stroke-opacity:1"
           d="m 38.976412,602.36267 a 3.5433099,3.5433099 0 0 1 -3.54331,3.54331 3.5433099,3.5433099 0 0 1 -3.54331,-3.54331 3.5433099,3.5433099 0 0 1 3.54331,-3.54331 3.5433099,3.5433099 0 0 1 3.54331,3.54331 z"
           id="circle6557" />
        <path
           style="fill:none;stroke:#000000;stroke-width:0.35433075;stroke-miterlimit:4;stroke-dasharray:none;stroke-opacity:1"
           d="m 38.976412,637.79578 a 3.5433099,3.5433099 0 0 1 -3.54331,3.54331 3.5433099,3.5433099 0 0 1 -3.54331,-3.54331 3.5433099,3.5433099 0 0 1 3.54331,-3.54331 3.5433099,3.5433099 0 0 1 3.54331,3.54331 z"
           id="circle6559" />
        <path
           style="fill:none;stroke:#000000;stroke-width:0.35433075;stroke-miterlimit:4;stroke-dasharray:none;stroke-opacity:1"
           d="m 38.976412,673.22888 a 3.5433099,3.5433099 0 0 1 -3.54331,3.54331 3.5433099,3.5433099 0 0 1 -3.54331,-3.54331 3.5433099,3.5433099 0 0 1 3.54331,-3.54331 3.5433099,3.5433099 0 0 1 3.54331,3.54331 z"
           id="circle6561" />
        <path
           style="fill:none;stroke:#000000;stroke-width:0.35433075;stroke-miterlimit:4;stroke-dasharray:none;stroke-opacity:1"
           d="m 38.976412,708.66199 a 3.5433099,3.5433099 0 0 1 -3.54331,3.54331 3.5433099,3.5433099 0 0 1 -3.54331,-3.54331 3.5433099,3.5433099 0 0 1 3.54331,-3.54331 3.5433099,3.5433099 0 0 1 3.54331,3.54331 z"
           id="circle6563" />
        <path
           style="fill:none;stroke:#000000;stroke-width:0.35433075;stroke-miterlimit:4;stroke-dasharray:none;stroke-opacity:1"
           d="m 38.976412,744.09509 a 3.5433099,3.5433099 0 0 1 -3.54331,3.54331 3.5433099,3.5433099 0 0 1 -3.54331,-3.54331 3.5433099,3.5433099 0 0 1 3.54331,-3.54331 3.5433099,3.5433099 0 0 1 3.54331,3.54331 z"
           id="circle6565" />
        <path
           style="fill:none;stroke:#000000;stroke-width:0.35433075;stroke-miterlimit:4;stroke-dasharray:none;stroke-opacity:1"
           d="m 38.976412,779.5282 a 3.5433099,3.5433099 0 0 1 -3.54331,3.54331 3.5433099,3.5433099 0 0 1 -3.54331,-3.54331 3.5433099,3.5433099 0 0 1 3.54331,-3.54331 3.5433099,3.5433099 0 0 1 3.54331,3.54331 z"
           id="circle6567" />
        <path
           style="fill:none;stroke:#000000;stroke-width:0.35433075;stroke-miterlimit:4;stroke-dasharray:none;stroke-opacity:1"
           d="m 38.976412,814.9613 a 3.5433099,3.5433099 0 0 1 -3.54331,3.54331 3.5433099,3.5433099 0 0 1 -3.54331,-3.54331 3.5433099,3.5433099 0 0 1 3.54331,-3.54331 3.5433099,3.5433099 0 0 1 3.54331,3.54331 z"
           id="circle6569" />
        <path
           style="fill:none;stroke:#000000;stroke-width:0.35433075;stroke-miterlimit:4;stroke-dasharray:none;stroke-opacity:1"
           d="m 38.976412,850.39441 a 3.5433099,3.5433099 0 0 1 -3.54331,3.54331 3.5433099,3.5433099 0 0 1 -3.54331,-3.54331 3.5433099,3.5433099 0 0 1 3.54331,-3.54331 3.5433099,3.5433099 0 0 1 3.54331,3.54331 z"
           id="circle6571" />
        <path
           style="fill:none;stroke:#000000;stroke-width:0.35433075;stroke-miterlimit:4;stroke-dasharray:none;stroke-opacity:1"
           d="m 38.976412,885.82751 a 3.5433099,3.5433099 0 0 1 -3.54331,3.54331 3.5433099,3.5433099 0 0 1 -3.54331,-3.54331 3.5433099,3.5433099 0 0 1 3.54331,-3.54331 3.5433099,3.5433099 0 0 1 3.54331,3.54331 z"
           id="circle6573" />
        <path
           style="fill:none;stroke:#000000;stroke-width:0.35433075;stroke-miterlimit:4;stroke-dasharray:none;stroke-opacity:1"
           d="m 38.976412,921.26062 a 3.5433099,3.5433099 0 0 1 -3.54331,3.54331 3.5433099,3.5433099 0 0 1 -3.54331,-3.54331 3.5433099,3.5433099 0 0 1 3.54331,-3.54331 3.5433099,3.5433099 0 0 1 3.54331,3.54331 z"
           id="circle6575" />
        <path
           style="fill:none;stroke:#000000;stroke-width:0.35433075;stroke-miterlimit:4;stroke-dasharray:none;stroke-opacity:1"
           d="m 38.976412,956.69373 a 3.5433099,3.5433099 0 0 1 -3.54331,3.54331 3.5433099,3.5433099 0 0 1 -3.54331,-3.54331 3.5433099,3.5433099 0 0 1 3.54331,-3.54331 3.5433099,3.5433099 0 0 1 3.54331,3.54331 z"
           id="circle6577" />
        <path
           style="fill:none;stroke:#000000;stroke-width:0.35433075;stroke-miterlimit:4;stroke-dasharray:none;stroke-opacity:1"
           d="m 38.976412,992.12677 a 3.5433099,3.5433099 0 0 1 -3.54331,3.54331 3.5433099,3.5433099 0 0 1 -3.54331,-3.54331 3.5433099,3.5433099 0 0 1 3.54331,-3.54331 3.5433099,3.5433099 0 0 1 3.54331,3.54331 z"
           id="circle6579" />
        <path
           style="fill:none;stroke:#000000;stroke-width:0.35433075;stroke-miterlimit:4;stroke-dasharray:none;stroke-opacity:1"
           d="m 38.976412,1027.5599 a 3.5433099,3.5433099 0 0 1 -3.54331,3.5433 3.5433099,3.5433099 0 0 1 -3.54331,-3.5433 3.5433099,3.5433099 0 0 1 3.54331,-3.5433 3.5433099,3.5433099 0 0 1 3.54331,3.5433 z"
           id="circle6581" />
        <path
           style="fill:none;stroke:#000000;stroke-width:0.35433075;stroke-miterlimit:4;stroke-dasharray:none;stroke-opacity:1"
           d="m 74.409513,318.89789 a 3.5433099,3.5433099 0 0 1 -3.54331,3.54331 3.5433099,3.5433099 0 0 1 -3.54331,-3.54331 3.5433099,3.5433099 0 0 1 3.54331,-3.54331 3.5433099,3.5433099 0 0 1 3.54331,3.54331 z"
           id="circle6583" />
        <path
           style="fill:none;stroke:#000000;stroke-width:0.35433075;stroke-miterlimit:4;stroke-dasharray:none;stroke-opacity:1"
           d="m 74.409513,354.33099 a 3.5433099,3.5433099 0 0 1 -3.54331,3.54331 3.5433099,3.5433099 0 0 1 -3.54331,-3.54331 3.5433099,3.5433099 0 0 1 3.54331,-3.54331 3.5433099,3.5433099 0 0 1 3.54331,3.54331 z"
           id="circle6585" />
        <path
           style="fill:none;stroke:#000000;stroke-width:0.35433075;stroke-miterlimit:4;stroke-dasharray:none;stroke-opacity:1"
           d="m 74.409513,389.7641 a 3.5433099,3.5433099 0 0 1 -3.54331,3.54331 3.5433099,3.5433099 0 0 1 -3.54331,-3.54331 3.5433099,3.5433099 0 0 1 3.54331,-3.54331 3.5433099,3.5433099 0 0 1 3.54331,3.54331 z"
           id="circle6587" />
        <path
           style="fill:none;stroke:#000000;stroke-width:0.35433075;stroke-miterlimit:4;stroke-dasharray:none;stroke-opacity:1"
           d="m 74.409513,425.1972 a 3.5433099,3.5433099 0 0 1 -3.54331,3.54331 3.5433099,3.5433099 0 0 1 -3.54331,-3.54331 3.5433099,3.5433099 0 0 1 3.54331,-3.54331 3.5433099,3.5433099 0 0 1 3.54331,3.54331 z"
           id="circle6589" />
        <path
           style="fill:none;stroke:#000000;stroke-width:0.35433075;stroke-miterlimit:4;stroke-dasharray:none;stroke-opacity:1"
           d="m 74.409513,460.63031 a 3.5433099,3.5433099 0 0 1 -3.54331,3.54331 3.5433099,3.5433099 0 0 1 -3.54331,-3.54331 3.5433099,3.5433099 0 0 1 3.54331,-3.54331 3.5433099,3.5433099 0 0 1 3.54331,3.54331 z"
           id="circle6591" />
        <path
           style="fill:none;stroke:#000000;stroke-width:0.35433075;stroke-miterlimit:4;stroke-dasharray:none;stroke-opacity:1"
           d="m 74.409513,496.06339 a 3.5433099,3.5433099 0 0 1 -3.54331,3.5433 3.5433099,3.5433099 0 0 1 -3.54331,-3.5433 3.5433099,3.5433099 0 0 1 3.54331,-3.54331 3.5433099,3.5433099 0 0 1 3.54331,3.54331 z"
           id="circle6593" />
        <path
           style="fill:none;stroke:#000000;stroke-width:0.35433075;stroke-miterlimit:4;stroke-dasharray:none;stroke-opacity:1"
           d="m 74.409513,531.49652 a 3.5433099,3.5433099 0 0 1 -3.54331,3.54331 3.5433099,3.5433099 0 0 1 -3.54331,-3.54331 3.5433099,3.5433099 0 0 1 3.54331,-3.54331 3.5433099,3.5433099 0 0 1 3.54331,3.54331 z"
           id="circle6595" />
        <path
           style="fill:none;stroke:#000000;stroke-width:0.35433075;stroke-miterlimit:4;stroke-dasharray:none;stroke-opacity:1"
           d="m 74.409513,566.92963 a 3.5433099,3.5433099 0 0 1 -3.54331,3.54331 3.5433099,3.5433099 0 0 1 -3.54331,-3.54331 3.5433099,3.5433099 0 0 1 3.54331,-3.54331 3.5433099,3.5433099 0 0 1 3.54331,3.54331 z"
           id="circle6597" />
        <path
           style="fill:none;stroke:#000000;stroke-width:0.35433075;stroke-miterlimit:4;stroke-dasharray:none;stroke-opacity:1"
           d="m 74.409513,602.36267 a 3.5433099,3.5433099 0 0 1 -3.54331,3.54331 3.5433099,3.5433099 0 0 1 -3.54331,-3.54331 3.5433099,3.5433099 0 0 1 3.54331,-3.54331 3.5433099,3.5433099 0 0 1 3.54331,3.54331 z"
           id="circle6599" />
        <path
           style="fill:none;stroke:#000000;stroke-width:0.35433075;stroke-miterlimit:4;stroke-dasharray:none;stroke-opacity:1"
           d="m 74.409513,637.79578 a 3.5433099,3.5433099 0 0 1 -3.54331,3.54331 3.5433099,3.5433099 0 0 1 -3.54331,-3.54331 3.5433099,3.5433099 0 0 1 3.54331,-3.54331 3.5433099,3.5433099 0 0 1 3.54331,3.54331 z"
           id="circle6601" />
        <path
           style="fill:none;stroke:#000000;stroke-width:0.35433075;stroke-miterlimit:4;stroke-dasharray:none;stroke-opacity:1"
           d="m 74.409513,673.22888 a 3.5433099,3.5433099 0 0 1 -3.54331,3.54331 3.5433099,3.5433099 0 0 1 -3.54331,-3.54331 3.5433099,3.5433099 0 0 1 3.54331,-3.54331 3.5433099,3.5433099 0 0 1 3.54331,3.54331 z"
           id="circle6603" />
        <path
           style="fill:none;stroke:#000000;stroke-width:0.35433075;stroke-miterlimit:4;stroke-dasharray:none;stroke-opacity:1"
           d="m 74.409513,708.66199 a 3.5433099,3.5433099 0 0 1 -3.54331,3.54331 3.5433099,3.5433099 0 0 1 -3.54331,-3.54331 3.5433099,3.5433099 0 0 1 3.54331,-3.54331 3.5433099,3.5433099 0 0 1 3.54331,3.54331 z"
           id="circle6605" />
        <path
           style="fill:none;stroke:#000000;stroke-width:0.35433075;stroke-miterlimit:4;stroke-dasharray:none;stroke-opacity:1"
           d="m 74.409513,744.09509 a 3.5433099,3.5433099 0 0 1 -3.54331,3.54331 3.5433099,3.5433099 0 0 1 -3.54331,-3.54331 3.5433099,3.5433099 0 0 1 3.54331,-3.54331 3.5433099,3.5433099 0 0 1 3.54331,3.54331 z"
           id="circle6607" />
        <path
           style="fill:none;stroke:#000000;stroke-width:0.35433075;stroke-miterlimit:4;stroke-dasharray:none;stroke-opacity:1"
           d="m 74.409513,779.5282 a 3.5433099,3.5433099 0 0 1 -3.54331,3.54331 3.5433099,3.5433099 0 0 1 -3.54331,-3.54331 3.5433099,3.5433099 0 0 1 3.54331,-3.54331 3.5433099,3.5433099 0 0 1 3.54331,3.54331 z"
           id="circle6609" />
        <path
           style="fill:none;stroke:#000000;stroke-width:0.35433075;stroke-miterlimit:4;stroke-dasharray:none;stroke-opacity:1"
           d="m 74.409513,814.9613 a 3.5433099,3.5433099 0 0 1 -3.54331,3.54331 3.5433099,3.5433099 0 0 1 -3.54331,-3.54331 3.5433099,3.5433099 0 0 1 3.54331,-3.54331 3.5433099,3.5433099 0 0 1 3.54331,3.54331 z"
           id="circle6611" />
        <path
           style="fill:none;stroke:#000000;stroke-width:0.35433075;stroke-miterlimit:4;stroke-dasharray:none;stroke-opacity:1"
           d="m 74.409513,850.39441 a 3.5433099,3.5433099 0 0 1 -3.54331,3.54331 3.5433099,3.5433099 0 0 1 -3.54331,-3.54331 3.5433099,3.5433099 0 0 1 3.54331,-3.54331 3.5433099,3.5433099 0 0 1 3.54331,3.54331 z"
           id="circle6613" />
        <path
           style="fill:none;stroke:#000000;stroke-width:0.35433075;stroke-miterlimit:4;stroke-dasharray:none;stroke-opacity:1"
           d="m 74.409513,885.82751 a 3.5433099,3.5433099 0 0 1 -3.54331,3.54331 3.5433099,3.5433099 0 0 1 -3.54331,-3.54331 3.5433099,3.5433099 0 0 1 3.54331,-3.54331 3.5433099,3.5433099 0 0 1 3.54331,3.54331 z"
           id="circle6615" />
        <path
           style="fill:none;stroke:#000000;stroke-width:0.35433075;stroke-miterlimit:4;stroke-dasharray:none;stroke-opacity:1"
           d="m 74.409513,921.26062 a 3.5433099,3.5433099 0 0 1 -3.54331,3.54331 3.5433099,3.5433099 0 0 1 -3.54331,-3.54331 3.5433099,3.5433099 0 0 1 3.54331,-3.54331 3.5433099,3.5433099 0 0 1 3.54331,3.54331 z"
           id="circle6617" />
        <path
           style="fill:none;stroke:#000000;stroke-width:0.35433075;stroke-miterlimit:4;stroke-dasharray:none;stroke-opacity:1"
           d="m 74.409513,956.69373 a 3.5433099,3.5433099 0 0 1 -3.54331,3.54331 3.5433099,3.5433099 0 0 1 -3.54331,-3.54331 3.5433099,3.5433099 0 0 1 3.54331,-3.54331 3.5433099,3.5433099 0 0 1 3.54331,3.54331 z"
           id="circle6619" />
        <path
           style="fill:none;stroke:#000000;stroke-width:0.35433075;stroke-miterlimit:4;stroke-dasharray:none;stroke-opacity:1"
           d="m 74.409513,992.12677 a 3.5433099,3.5433099 0 0 1 -3.54331,3.54331 3.5433099,3.5433099 0 0 1 -3.54331,-3.54331 3.5433099,3.5433099 0 0 1 3.54331,-3.54331 3.5433099,3.5433099 0 0 1 3.54331,3.54331 z"
           id="circle6621" />
        <path
           style="fill:none;stroke:#000000;stroke-width:0.35433075;stroke-miterlimit:4;stroke-dasharray:none;stroke-opacity:1"
           d="m 74.409513,1027.5599 a 3.5433099,3.5433099 0 0 1 -3.54331,3.5433 3.5433099,3.5433099 0 0 1 -3.54331,-3.5433 3.5433099,3.5433099 0 0 1 3.54331,-3.5433 3.5433099,3.5433099 0 0 1 3.54331,3.5433 z"
           id="circle6623" />
        <path
           style="fill:none;stroke:#000000;stroke-width:0.35433075;stroke-miterlimit:4;stroke-dasharray:none;stroke-opacity:1"
           d="m 109.84261,318.89789 a 3.5433099,3.5433099 0 0 1 -3.54331,3.54331 3.5433099,3.5433099 0 0 1 -3.54331,-3.54331 3.5433099,3.5433099 0 0 1 3.54331,-3.54331 3.5433099,3.5433099 0 0 1 3.54331,3.54331 z"
           id="circle6625" />
        <path
           style="fill:none;stroke:#000000;stroke-width:0.35433075;stroke-miterlimit:4;stroke-dasharray:none;stroke-opacity:1"
           d="m 109.84261,354.33099 a 3.5433099,3.5433099 0 0 1 -3.54331,3.54331 3.5433099,3.5433099 0 0 1 -3.54331,-3.54331 3.5433099,3.5433099 0 0 1 3.54331,-3.54331 3.5433099,3.5433099 0 0 1 3.54331,3.54331 z"
           id="circle6627" />
        <path
           style="fill:none;stroke:#000000;stroke-width:0.35433075;stroke-miterlimit:4;stroke-dasharray:none;stroke-opacity:1"
           d="m 109.84261,389.7641 a 3.5433099,3.5433099 0 0 1 -3.54331,3.54331 3.5433099,3.5433099 0 0 1 -3.54331,-3.54331 3.5433099,3.5433099 0 0 1 3.54331,-3.54331 3.5433099,3.5433099 0 0 1 3.54331,3.54331 z"
           id="circle6629" />
        <path
           style="fill:none;stroke:#000000;stroke-width:0.35433075;stroke-miterlimit:4;stroke-dasharray:none;stroke-opacity:1"
           d="m 109.84261,425.1972 a 3.5433099,3.5433099 0 0 1 -3.54331,3.54331 3.5433099,3.5433099 0 0 1 -3.54331,-3.54331 3.5433099,3.5433099 0 0 1 3.54331,-3.54331 3.5433099,3.5433099 0 0 1 3.54331,3.54331 z"
           id="circle6631" />
        <path
           style="fill:none;stroke:#000000;stroke-width:0.35433075;stroke-miterlimit:4;stroke-dasharray:none;stroke-opacity:1"
           d="m 109.84261,460.63031 a 3.5433099,3.5433099 0 0 1 -3.54331,3.54331 3.5433099,3.5433099 0 0 1 -3.54331,-3.54331 3.5433099,3.5433099 0 0 1 3.54331,-3.54331 3.5433099,3.5433099 0 0 1 3.54331,3.54331 z"
           id="circle6633" />
        <path
           style="fill:none;stroke:#000000;stroke-width:0.35433075;stroke-miterlimit:4;stroke-dasharray:none;stroke-opacity:1"
           d="m 109.84261,496.06339 a 3.5433099,3.5433099 0 0 1 -3.54331,3.5433 3.5433099,3.5433099 0 0 1 -3.54331,-3.5433 3.5433099,3.5433099 0 0 1 3.54331,-3.54331 3.5433099,3.5433099 0 0 1 3.54331,3.54331 z"
           id="circle6635" />
        <path
           style="fill:none;stroke:#000000;stroke-width:0.35433075;stroke-miterlimit:4;stroke-dasharray:none;stroke-opacity:1"
           d="m 109.84261,531.49652 a 3.5433099,3.5433099 0 0 1 -3.54331,3.54331 3.5433099,3.5433099 0 0 1 -3.54331,-3.54331 3.5433099,3.5433099 0 0 1 3.54331,-3.54331 3.5433099,3.5433099 0 0 1 3.54331,3.54331 z"
           id="circle6637" />
        <path
           style="fill:none;stroke:#000000;stroke-width:0.35433075;stroke-miterlimit:4;stroke-dasharray:none;stroke-opacity:1"
           d="m 109.84261,566.92963 a 3.5433099,3.5433099 0 0 1 -3.54331,3.54331 3.5433099,3.5433099 0 0 1 -3.54331,-3.54331 3.5433099,3.5433099 0 0 1 3.54331,-3.54331 3.5433099,3.5433099 0 0 1 3.54331,3.54331 z"
           id="circle6639" />
        <path
           style="fill:none;stroke:#000000;stroke-width:0.35433075;stroke-miterlimit:4;stroke-dasharray:none;stroke-opacity:1"
           d="m 109.84261,602.36267 a 3.5433099,3.5433099 0 0 1 -3.54331,3.54331 3.5433099,3.5433099 0 0 1 -3.54331,-3.54331 3.5433099,3.5433099 0 0 1 3.54331,-3.54331 3.5433099,3.5433099 0 0 1 3.54331,3.54331 z"
           id="circle6641" />
        <path
           style="fill:none;stroke:#000000;stroke-width:0.35433075;stroke-miterlimit:4;stroke-dasharray:none;stroke-opacity:1"
           d="m 109.84261,637.79578 a 3.5433099,3.5433099 0 0 1 -3.54331,3.54331 3.5433099,3.5433099 0 0 1 -3.54331,-3.54331 3.5433099,3.5433099 0 0 1 3.54331,-3.54331 3.5433099,3.5433099 0 0 1 3.54331,3.54331 z"
           id="circle6643" />
        <path
           style="fill:none;stroke:#000000;stroke-width:0.35433075;stroke-miterlimit:4;stroke-dasharray:none;stroke-opacity:1"
           d="m 109.84261,673.22888 a 3.5433099,3.5433099 0 0 1 -3.54331,3.54331 3.5433099,3.5433099 0 0 1 -3.54331,-3.54331 3.5433099,3.5433099 0 0 1 3.54331,-3.54331 3.5433099,3.5433099 0 0 1 3.54331,3.54331 z"
           id="circle6645" />
        <path
           style="fill:none;stroke:#000000;stroke-width:0.35433075;stroke-miterlimit:4;stroke-dasharray:none;stroke-opacity:1"
           d="m 109.84261,708.66199 a 3.5433099,3.5433099 0 0 1 -3.54331,3.54331 3.5433099,3.5433099 0 0 1 -3.54331,-3.54331 3.5433099,3.5433099 0 0 1 3.54331,-3.54331 3.5433099,3.5433099 0 0 1 3.54331,3.54331 z"
           id="circle6647" />
        <path
           style="fill:none;stroke:#000000;stroke-width:0.35433075;stroke-miterlimit:4;stroke-dasharray:none;stroke-opacity:1"
           d="m 109.84261,744.09509 a 3.5433099,3.5433099 0 0 1 -3.54331,3.54331 3.5433099,3.5433099 0 0 1 -3.54331,-3.54331 3.5433099,3.5433099 0 0 1 3.54331,-3.54331 3.5433099,3.5433099 0 0 1 3.54331,3.54331 z"
           id="circle6649" />
        <path
           style="fill:none;stroke:#000000;stroke-width:0.35433075;stroke-miterlimit:4;stroke-dasharray:none;stroke-opacity:1"
           d="m 109.84261,779.5282 a 3.5433099,3.5433099 0 0 1 -3.54331,3.54331 3.5433099,3.5433099 0 0 1 -3.54331,-3.54331 3.5433099,3.5433099 0 0 1 3.54331,-3.54331 3.5433099,3.5433099 0 0 1 3.54331,3.54331 z"
           id="circle6651" />
        <path
           style="fill:none;stroke:#000000;stroke-width:0.35433075;stroke-miterlimit:4;stroke-dasharray:none;stroke-opacity:1"
           d="m 109.84261,814.9613 a 3.5433099,3.5433099 0 0 1 -3.54331,3.54331 3.5433099,3.5433099 0 0 1 -3.54331,-3.54331 3.5433099,3.5433099 0 0 1 3.54331,-3.54331 3.5433099,3.5433099 0 0 1 3.54331,3.54331 z"
           id="circle6653" />
        <path
           style="fill:none;stroke:#000000;stroke-width:0.35433075;stroke-miterlimit:4;stroke-dasharray:none;stroke-opacity:1"
           d="m 109.84261,850.39441 a 3.5433099,3.5433099 0 0 1 -3.54331,3.54331 3.5433099,3.5433099 0 0 1 -3.54331,-3.54331 3.5433099,3.5433099 0 0 1 3.54331,-3.54331 3.5433099,3.5433099 0 0 1 3.54331,3.54331 z"
           id="circle6655" />
        <path
           style="fill:none;stroke:#000000;stroke-width:0.35433075;stroke-miterlimit:4;stroke-dasharray:none;stroke-opacity:1"
           d="m 109.84261,885.82751 a 3.5433099,3.5433099 0 0 1 -3.54331,3.54331 3.5433099,3.5433099 0 0 1 -3.54331,-3.54331 3.5433099,3.5433099 0 0 1 3.54331,-3.54331 3.5433099,3.5433099 0 0 1 3.54331,3.54331 z"
           id="circle6657" />
        <path
           style="fill:none;stroke:#000000;stroke-width:0.35433075;stroke-miterlimit:4;stroke-dasharray:none;stroke-opacity:1"
           d="m 109.84261,921.26062 a 3.5433099,3.5433099 0 0 1 -3.54331,3.54331 3.5433099,3.5433099 0 0 1 -3.54331,-3.54331 3.5433099,3.5433099 0 0 1 3.54331,-3.54331 3.5433099,3.5433099 0 0 1 3.54331,3.54331 z"
           id="circle6659" />
        <path
           style="fill:none;stroke:#000000;stroke-width:0.35433075;stroke-miterlimit:4;stroke-dasharray:none;stroke-opacity:1"
           d="m 109.84261,956.69373 a 3.5433099,3.5433099 0 0 1 -3.54331,3.54331 3.5433099,3.5433099 0 0 1 -3.54331,-3.54331 3.5433099,3.5433099 0 0 1 3.54331,-3.54331 3.5433099,3.5433099 0 0 1 3.54331,3.54331 z"
           id="circle6661" />
        <path
           style="fill:none;stroke:#000000;stroke-width:0.35433075;stroke-miterlimit:4;stroke-dasharray:none;stroke-opacity:1"
           d="m 109.84261,992.12677 a 3.5433099,3.5433099 0 0 1 -3.54331,3.54331 3.5433099,3.5433099 0 0 1 -3.54331,-3.54331 3.5433099,3.5433099 0 0 1 3.54331,-3.54331 3.5433099,3.5433099 0 0 1 3.54331,3.54331 z"
           id="circle6663" />
        <path
           style="fill:none;stroke:#000000;stroke-width:0.35433075;stroke-miterlimit:4;stroke-dasharray:none;stroke-opacity:1"
           d="m 109.84261,1027.5599 a 3.5433099,3.5433099 0 0 1 -3.54331,3.5433 3.5433099,3.5433099 0 0 1 -3.54331,-3.5433 3.5433099,3.5433099 0 0 1 3.54331,-3.5433 3.5433099,3.5433099 0 0 1 3.54331,3.5433 z"
           id="circle6665" />
        <path
           style="fill:none;stroke:#000000;stroke-width:0.35433075;stroke-miterlimit:4;stroke-dasharray:none;stroke-opacity:1"
           d="m 145.27572,318.89789 a 3.5433099,3.5433099 0 0 1 -3.54331,3.54331 3.5433099,3.5433099 0 0 1 -3.54331,-3.54331 3.5433099,3.5433099 0 0 1 3.54331,-3.54331 3.5433099,3.5433099 0 0 1 3.54331,3.54331 z"
           id="circle6667" />
        <path
           style="fill:none;stroke:#000000;stroke-width:0.35433075;stroke-miterlimit:4;stroke-dasharray:none;stroke-opacity:1"
           d="m 145.27572,354.33099 a 3.5433099,3.5433099 0 0 1 -3.54331,3.54331 3.5433099,3.5433099 0 0 1 -3.54331,-3.54331 3.5433099,3.5433099 0 0 1 3.54331,-3.54331 3.5433099,3.5433099 0 0 1 3.54331,3.54331 z"
           id="circle6669" />
        <path
           style="fill:none;stroke:#000000;stroke-width:0.35433075;stroke-miterlimit:4;stroke-dasharray:none;stroke-opacity:1"
           d="m 145.27572,389.7641 a 3.5433099,3.5433099 0 0 1 -3.54331,3.54331 3.5433099,3.5433099 0 0 1 -3.54331,-3.54331 3.5433099,3.5433099 0 0 1 3.54331,-3.54331 3.5433099,3.5433099 0 0 1 3.54331,3.54331 z"
           id="circle6671" />
        <path
           style="fill:none;stroke:#000000;stroke-width:0.35433075;stroke-miterlimit:4;stroke-dasharray:none;stroke-opacity:1"
           d="m 145.27572,425.1972 a 3.5433099,3.5433099 0 0 1 -3.54331,3.54331 3.5433099,3.5433099 0 0 1 -3.54331,-3.54331 3.5433099,3.5433099 0 0 1 3.54331,-3.54331 3.5433099,3.5433099 0 0 1 3.54331,3.54331 z"
           id="circle6673" />
        <path
           style="fill:none;stroke:#000000;stroke-width:0.35433075;stroke-miterlimit:4;stroke-dasharray:none;stroke-opacity:1"
           d="m 145.27572,460.63031 a 3.5433099,3.5433099 0 0 1 -3.54331,3.54331 3.5433099,3.5433099 0 0 1 -3.54331,-3.54331 3.5433099,3.5433099 0 0 1 3.54331,-3.54331 3.5433099,3.5433099 0 0 1 3.54331,3.54331 z"
           id="circle6675" />
        <path
           style="fill:none;stroke:#000000;stroke-width:0.35433075;stroke-miterlimit:4;stroke-dasharray:none;stroke-opacity:1"
           d="m 145.27572,496.06339 a 3.5433099,3.5433099 0 0 1 -3.54331,3.5433 3.5433099,3.5433099 0 0 1 -3.54331,-3.5433 3.5433099,3.5433099 0 0 1 3.54331,-3.54331 3.5433099,3.5433099 0 0 1 3.54331,3.54331 z"
           id="circle6677" />
        <path
           style="fill:none;stroke:#000000;stroke-width:0.35433075;stroke-miterlimit:4;stroke-dasharray:none;stroke-opacity:1"
           d="m 145.27572,531.49652 a 3.5433099,3.5433099 0 0 1 -3.54331,3.54331 3.5433099,3.5433099 0 0 1 -3.54331,-3.54331 3.5433099,3.5433099 0 0 1 3.54331,-3.54331 3.5433099,3.5433099 0 0 1 3.54331,3.54331 z"
           id="circle6679" />
        <path
           style="fill:none;stroke:#000000;stroke-width:0.35433075;stroke-miterlimit:4;stroke-dasharray:none;stroke-opacity:1"
           d="m 145.27572,566.92963 a 3.5433099,3.5433099 0 0 1 -3.54331,3.54331 3.5433099,3.5433099 0 0 1 -3.54331,-3.54331 3.5433099,3.5433099 0 0 1 3.54331,-3.54331 3.5433099,3.5433099 0 0 1 3.54331,3.54331 z"
           id="circle6681" />
        <path
           style="fill:none;stroke:#000000;stroke-width:0.35433075;stroke-miterlimit:4;stroke-dasharray:none;stroke-opacity:1"
           d="m 145.27572,602.36267 a 3.5433099,3.5433099 0 0 1 -3.54331,3.54331 3.5433099,3.5433099 0 0 1 -3.54331,-3.54331 3.5433099,3.5433099 0 0 1 3.54331,-3.54331 3.5433099,3.5433099 0 0 1 3.54331,3.54331 z"
           id="circle6683" />
        <path
           style="fill:none;stroke:#000000;stroke-width:0.35433075;stroke-miterlimit:4;stroke-dasharray:none;stroke-opacity:1"
           d="m 145.27572,637.79578 a 3.5433099,3.5433099 0 0 1 -3.54331,3.54331 3.5433099,3.5433099 0 0 1 -3.54331,-3.54331 3.5433099,3.5433099 0 0 1 3.54331,-3.54331 3.5433099,3.5433099 0 0 1 3.54331,3.54331 z"
           id="circle6685" />
        <path
           style="fill:none;stroke:#000000;stroke-width:0.35433075;stroke-miterlimit:4;stroke-dasharray:none;stroke-opacity:1"
           d="m 145.27572,673.22888 a 3.5433099,3.5433099 0 0 1 -3.54331,3.54331 3.5433099,3.5433099 0 0 1 -3.54331,-3.54331 3.5433099,3.5433099 0 0 1 3.54331,-3.54331 3.5433099,3.5433099 0 0 1 3.54331,3.54331 z"
           id="circle6687" />
        <path
           style="fill:none;stroke:#000000;stroke-width:0.35433075;stroke-miterlimit:4;stroke-dasharray:none;stroke-opacity:1"
           d="m 145.27572,708.66199 a 3.5433099,3.5433099 0 0 1 -3.54331,3.54331 3.5433099,3.5433099 0 0 1 -3.54331,-3.54331 3.5433099,3.5433099 0 0 1 3.54331,-3.54331 3.5433099,3.5433099 0 0 1 3.54331,3.54331 z"
           id="circle6689" />
        <path
           style="fill:none;stroke:#000000;stroke-width:0.35433075;stroke-miterlimit:4;stroke-dasharray:none;stroke-opacity:1"
           d="m 145.27572,744.09509 a 3.5433099,3.5433099 0 0 1 -3.54331,3.54331 3.5433099,3.5433099 0 0 1 -3.54331,-3.54331 3.5433099,3.5433099 0 0 1 3.54331,-3.54331 3.5433099,3.5433099 0 0 1 3.54331,3.54331 z"
           id="circle6691" />
        <path
           style="fill:none;stroke:#000000;stroke-width:0.35433075;stroke-miterlimit:4;stroke-dasharray:none;stroke-opacity:1"
           d="m 145.27572,779.5282 a 3.5433099,3.5433099 0 0 1 -3.54331,3.54331 3.5433099,3.5433099 0 0 1 -3.54331,-3.54331 3.5433099,3.5433099 0 0 1 3.54331,-3.54331 3.5433099,3.5433099 0 0 1 3.54331,3.54331 z"
           id="circle6693" />
        <path
           style="fill:none;stroke:#000000;stroke-width:0.35433075;stroke-miterlimit:4;stroke-dasharray:none;stroke-opacity:1"
           d="m 145.27572,814.9613 a 3.5433099,3.5433099 0 0 1 -3.54331,3.54331 3.5433099,3.5433099 0 0 1 -3.54331,-3.54331 3.5433099,3.5433099 0 0 1 3.54331,-3.54331 3.5433099,3.5433099 0 0 1 3.54331,3.54331 z"
           id="circle6695" />
        <path
           style="fill:none;stroke:#000000;stroke-width:0.35433075;stroke-miterlimit:4;stroke-dasharray:none;stroke-opacity:1"
           d="m 145.27572,850.39441 a 3.5433099,3.5433099 0 0 1 -3.54331,3.54331 3.5433099,3.5433099 0 0 1 -3.54331,-3.54331 3.5433099,3.5433099 0 0 1 3.54331,-3.54331 3.5433099,3.5433099 0 0 1 3.54331,3.54331 z"
           id="circle6697" />
        <path
           style="fill:none;stroke:#000000;stroke-width:0.35433075;stroke-miterlimit:4;stroke-dasharray:none;stroke-opacity:1"
           d="m 145.27572,885.82751 a 3.5433099,3.5433099 0 0 1 -3.54331,3.54331 3.5433099,3.5433099 0 0 1 -3.54331,-3.54331 3.5433099,3.5433099 0 0 1 3.54331,-3.54331 3.5433099,3.5433099 0 0 1 3.54331,3.54331 z"
           id="circle6699" />
        <path
           style="fill:none;stroke:#000000;stroke-width:0.35433075;stroke-miterlimit:4;stroke-dasharray:none;stroke-opacity:1"
           d="m 145.27572,921.26062 a 3.5433099,3.5433099 0 0 1 -3.54331,3.54331 3.5433099,3.5433099 0 0 1 -3.54331,-3.54331 3.5433099,3.5433099 0 0 1 3.54331,-3.54331 3.5433099,3.5433099 0 0 1 3.54331,3.54331 z"
           id="circle6701" />
        <path
           style="fill:none;stroke:#000000;stroke-width:0.35433075;stroke-miterlimit:4;stroke-dasharray:none;stroke-opacity:1"
           d="m 145.27572,956.69373 a 3.5433099,3.5433099 0 0 1 -3.54331,3.54331 3.5433099,3.5433099 0 0 1 -3.54331,-3.54331 3.5433099,3.5433099 0 0 1 3.54331,-3.54331 3.5433099,3.5433099 0 0 1 3.54331,3.54331 z"
           id="circle6703" />
        <path
           style="fill:none;stroke:#000000;stroke-width:0.35433075;stroke-miterlimit:4;stroke-dasharray:none;stroke-opacity:1"
           d="m 145.27572,992.12677 a 3.5433099,3.5433099 0 0 1 -3.54331,3.54331 3.5433099,3.5433099 0 0 1 -3.54331,-3.54331 3.5433099,3.5433099 0 0 1 3.54331,-3.54331 3.5433099,3.5433099 0 0 1 3.54331,3.54331 z"
           id="circle6705" />
        <path
           style="fill:none;stroke:#000000;stroke-width:0.35433075;stroke-miterlimit:4;stroke-dasharray:none;stroke-opacity:1"
           d="m 145.27572,1027.5599 a 3.5433099,3.5433099 0 0 1 -3.54331,3.5433 3.5433099,3.5433099 0 0 1 -3.54331,-3.5433 3.5433099,3.5433099 0 0 1 3.54331,-3.5433 3.5433099,3.5433099 0 0 1 3.54331,3.5433 z"
           id="circle6707" />
        <path
           style="fill:none;stroke:#000000;stroke-width:0.35433075;stroke-miterlimit:4;stroke-dasharray:none;stroke-opacity:1"
           d="m 180.70881,318.89789 a 3.5433099,3.5433099 0 0 1 -3.54331,3.54331 3.5433099,3.5433099 0 0 1 -3.54331,-3.54331 3.5433099,3.5433099 0 0 1 3.54331,-3.54331 3.5433099,3.5433099 0 0 1 3.54331,3.54331 z"
           id="circle6709" />
        <path
           style="fill:none;stroke:#000000;stroke-width:0.35433075;stroke-miterlimit:4;stroke-dasharray:none;stroke-opacity:1"
           d="m 180.70881,354.33099 a 3.5433099,3.5433099 0 0 1 -3.54331,3.54331 3.5433099,3.5433099 0 0 1 -3.54331,-3.54331 3.5433099,3.5433099 0 0 1 3.54331,-3.54331 3.5433099,3.5433099 0 0 1 3.54331,3.54331 z"
           id="circle6711" />
        <path
           style="fill:none;stroke:#000000;stroke-width:0.35433075;stroke-miterlimit:4;stroke-dasharray:none;stroke-opacity:1"
           d="m 180.70881,389.7641 a 3.5433099,3.5433099 0 0 1 -3.54331,3.54331 3.5433099,3.5433099 0 0 1 -3.54331,-3.54331 3.5433099,3.5433099 0 0 1 3.54331,-3.54331 3.5433099,3.5433099 0 0 1 3.54331,3.54331 z"
           id="circle6713" />
        <path
           style="fill:none;stroke:#000000;stroke-width:0.35433075;stroke-miterlimit:4;stroke-dasharray:none;stroke-opacity:1"
           d="m 180.70881,425.1972 a 3.5433099,3.5433099 0 0 1 -3.54331,3.54331 3.5433099,3.5433099 0 0 1 -3.54331,-3.54331 3.5433099,3.5433099 0 0 1 3.54331,-3.54331 3.5433099,3.5433099 0 0 1 3.54331,3.54331 z"
           id="circle6715" />
        <path
           style="fill:none;stroke:#000000;stroke-width:0.35433075;stroke-miterlimit:4;stroke-dasharray:none;stroke-opacity:1"
           d="m 180.70881,460.63031 a 3.5433099,3.5433099 0 0 1 -3.54331,3.54331 3.5433099,3.5433099 0 0 1 -3.54331,-3.54331 3.5433099,3.5433099 0 0 1 3.54331,-3.54331 3.5433099,3.5433099 0 0 1 3.54331,3.54331 z"
           id="circle6717" />
        <path
           style="fill:none;stroke:#000000;stroke-width:0.35433075;stroke-miterlimit:4;stroke-dasharray:none;stroke-opacity:1"
           d="m 180.70881,496.06339 a 3.5433099,3.5433099 0 0 1 -3.54331,3.5433 3.5433099,3.5433099 0 0 1 -3.54331,-3.5433 3.5433099,3.5433099 0 0 1 3.54331,-3.54331 3.5433099,3.5433099 0 0 1 3.54331,3.54331 z"
           id="circle6719" />
        <path
           style="fill:none;stroke:#000000;stroke-width:0.35433075;stroke-miterlimit:4;stroke-dasharray:none;stroke-opacity:1"
           d="m 180.70881,531.49652 a 3.5433099,3.5433099 0 0 1 -3.54331,3.54331 3.5433099,3.5433099 0 0 1 -3.54331,-3.54331 3.5433099,3.5433099 0 0 1 3.54331,-3.54331 3.5433099,3.5433099 0 0 1 3.54331,3.54331 z"
           id="circle6721" />
        <path
           style="fill:none;stroke:#000000;stroke-width:0.35433075;stroke-miterlimit:4;stroke-dasharray:none;stroke-opacity:1"
           d="m 180.70881,566.92963 a 3.5433099,3.5433099 0 0 1 -3.54331,3.54331 3.5433099,3.5433099 0 0 1 -3.54331,-3.54331 3.5433099,3.5433099 0 0 1 3.54331,-3.54331 3.5433099,3.5433099 0 0 1 3.54331,3.54331 z"
           id="circle6723" />
        <path
           style="fill:none;stroke:#000000;stroke-width:0.35433075;stroke-miterlimit:4;stroke-dasharray:none;stroke-opacity:1"
           d="m 180.70881,602.36267 a 3.5433099,3.5433099 0 0 1 -3.54331,3.54331 3.5433099,3.5433099 0 0 1 -3.54331,-3.54331 3.5433099,3.5433099 0 0 1 3.54331,-3.54331 3.5433099,3.5433099 0 0 1 3.54331,3.54331 z"
           id="circle6725" />
        <path
           style="fill:none;stroke:#000000;stroke-width:0.35433075;stroke-miterlimit:4;stroke-dasharray:none;stroke-opacity:1"
           d="m 180.70881,637.79578 a 3.5433099,3.5433099 0 0 1 -3.54331,3.54331 3.5433099,3.5433099 0 0 1 -3.54331,-3.54331 3.5433099,3.5433099 0 0 1 3.54331,-3.54331 3.5433099,3.5433099 0 0 1 3.54331,3.54331 z"
           id="circle6727" />
        <path
           style="fill:none;stroke:#000000;stroke-width:0.35433075;stroke-miterlimit:4;stroke-dasharray:none;stroke-opacity:1"
           d="m 180.70881,673.22888 a 3.5433099,3.5433099 0 0 1 -3.54331,3.54331 3.5433099,3.5433099 0 0 1 -3.54331,-3.54331 3.5433099,3.5433099 0 0 1 3.54331,-3.54331 3.5433099,3.5433099 0 0 1 3.54331,3.54331 z"
           id="circle6729" />
        <path
           style="fill:none;stroke:#000000;stroke-width:0.35433075;stroke-miterlimit:4;stroke-dasharray:none;stroke-opacity:1"
           d="m 180.70881,708.66199 a 3.5433099,3.5433099 0 0 1 -3.54331,3.54331 3.5433099,3.5433099 0 0 1 -3.54331,-3.54331 3.5433099,3.5433099 0 0 1 3.54331,-3.54331 3.5433099,3.5433099 0 0 1 3.54331,3.54331 z"
           id="circle6731" />
        <path
           style="fill:none;stroke:#000000;stroke-width:0.35433075;stroke-miterlimit:4;stroke-dasharray:none;stroke-opacity:1"
           d="m 180.70881,744.09509 a 3.5433099,3.5433099 0 0 1 -3.54331,3.54331 3.5433099,3.5433099 0 0 1 -3.54331,-3.54331 3.5433099,3.5433099 0 0 1 3.54331,-3.54331 3.5433099,3.5433099 0 0 1 3.54331,3.54331 z"
           id="circle6733" />
        <path
           style="fill:none;stroke:#000000;stroke-width:0.35433075;stroke-miterlimit:4;stroke-dasharray:none;stroke-opacity:1"
           d="m 180.70881,779.5282 a 3.5433099,3.5433099 0 0 1 -3.54331,3.54331 3.5433099,3.5433099 0 0 1 -3.54331,-3.54331 3.5433099,3.5433099 0 0 1 3.54331,-3.54331 3.5433099,3.5433099 0 0 1 3.54331,3.54331 z"
           id="circle6735" />
        <path
           style="fill:none;stroke:#000000;stroke-width:0.35433075;stroke-miterlimit:4;stroke-dasharray:none;stroke-opacity:1"
           d="m 180.70881,814.9613 a 3.5433099,3.5433099 0 0 1 -3.54331,3.54331 3.5433099,3.5433099 0 0 1 -3.54331,-3.54331 3.5433099,3.5433099 0 0 1 3.54331,-3.54331 3.5433099,3.5433099 0 0 1 3.54331,3.54331 z"
           id="circle6737" />
        <path
           style="fill:none;stroke:#000000;stroke-width:0.35433075;stroke-miterlimit:4;stroke-dasharray:none;stroke-opacity:1"
           d="m 180.70881,850.39441 a 3.5433099,3.5433099 0 0 1 -3.54331,3.54331 3.5433099,3.5433099 0 0 1 -3.54331,-3.54331 3.5433099,3.5433099 0 0 1 3.54331,-3.54331 3.5433099,3.5433099 0 0 1 3.54331,3.54331 z"
           id="circle6739" />
        <path
           style="fill:none;stroke:#000000;stroke-width:0.35433075;stroke-miterlimit:4;stroke-dasharray:none;stroke-opacity:1"
           d="m 180.70881,885.82751 a 3.5433099,3.5433099 0 0 1 -3.54331,3.54331 3.5433099,3.5433099 0 0 1 -3.54331,-3.54331 3.5433099,3.5433099 0 0 1 3.54331,-3.54331 3.5433099,3.5433099 0 0 1 3.54331,3.54331 z"
           id="circle6741" />
        <path
           style="fill:none;stroke:#000000;stroke-width:0.35433075;stroke-miterlimit:4;stroke-dasharray:none;stroke-opacity:1"
           d="m 180.70881,921.26062 a 3.5433099,3.5433099 0 0 1 -3.54331,3.54331 3.5433099,3.5433099 0 0 1 -3.54331,-3.54331 3.5433099,3.5433099 0 0 1 3.54331,-3.54331 3.5433099,3.5433099 0 0 1 3.54331,3.54331 z"
           id="circle6743" />
        <path
           style="fill:none;stroke:#000000;stroke-width:0.35433075;stroke-miterlimit:4;stroke-dasharray:none;stroke-opacity:1"
           d="m 180.70881,956.69373 a 3.5433099,3.5433099 0 0 1 -3.54331,3.54331 3.5433099,3.5433099 0 0 1 -3.54331,-3.54331 3.5433099,3.5433099 0 0 1 3.54331,-3.54331 3.5433099,3.5433099 0 0 1 3.54331,3.54331 z"
           id="circle6745" />
        <path
           style="fill:none;stroke:#000000;stroke-width:0.35433075;stroke-miterlimit:4;stroke-dasharray:none;stroke-opacity:1"
           d="m 180.70881,992.12677 a 3.5433099,3.5433099 0 0 1 -3.54331,3.54331 3.5433099,3.5433099 0 0 1 -3.54331,-3.54331 3.5433099,3.5433099 0 0 1 3.54331,-3.54331 3.5433099,3.5433099 0 0 1 3.54331,3.54331 z"
           id="circle6747" />
        <path
           style="fill:none;stroke:#000000;stroke-width:0.35433075;stroke-miterlimit:4;stroke-dasharray:none;stroke-opacity:1"
           d="m 180.70881,1027.5599 a 3.5433099,3.5433099 0 0 1 -3.54331,3.5433 3.5433099,3.5433099 0 0 1 -3.54331,-3.5433 3.5433099,3.5433099 0 0 1 3.54331,-3.5433 3.5433099,3.5433099 0 0 1 3.54331,3.5433 z"
           id="circle6749" />
        <path
           style="fill:none;stroke:#000000;stroke-width:0.35433075;stroke-miterlimit:4;stroke-dasharray:none;stroke-opacity:1"
           d="m 216.14191,318.89789 a 3.5433099,3.5433099 0 0 1 -3.54331,3.54331 3.5433099,3.5433099 0 0 1 -3.54331,-3.54331 3.5433099,3.5433099 0 0 1 3.54331,-3.54331 3.5433099,3.5433099 0 0 1 3.54331,3.54331 z"
           id="circle6751" />
        <path
           style="fill:none;stroke:#000000;stroke-width:0.35433075;stroke-miterlimit:4;stroke-dasharray:none;stroke-opacity:1"
           d="m 216.14191,354.33099 a 3.5433099,3.5433099 0 0 1 -3.54331,3.54331 3.5433099,3.5433099 0 0 1 -3.54331,-3.54331 3.5433099,3.5433099 0 0 1 3.54331,-3.54331 3.5433099,3.5433099 0 0 1 3.54331,3.54331 z"
           id="circle6753" />
        <path
           style="fill:none;stroke:#000000;stroke-width:0.35433075;stroke-miterlimit:4;stroke-dasharray:none;stroke-opacity:1"
           d="m 216.14191,389.7641 a 3.5433099,3.5433099 0 0 1 -3.54331,3.54331 3.5433099,3.5433099 0 0 1 -3.54331,-3.54331 3.5433099,3.5433099 0 0 1 3.54331,-3.54331 3.5433099,3.5433099 0 0 1 3.54331,3.54331 z"
           id="circle6755" />
        <path
           style="fill:none;stroke:#000000;stroke-width:0.35433075;stroke-miterlimit:4;stroke-dasharray:none;stroke-opacity:1"
           d="m 216.14191,425.1972 a 3.5433099,3.5433099 0 0 1 -3.54331,3.54331 3.5433099,3.5433099 0 0 1 -3.54331,-3.54331 3.5433099,3.5433099 0 0 1 3.54331,-3.54331 3.5433099,3.5433099 0 0 1 3.54331,3.54331 z"
           id="circle6757" />
        <path
           style="fill:none;stroke:#000000;stroke-width:0.35433075;stroke-miterlimit:4;stroke-dasharray:none;stroke-opacity:1"
           d="m 216.14191,460.63031 a 3.5433099,3.5433099 0 0 1 -3.54331,3.54331 3.5433099,3.5433099 0 0 1 -3.54331,-3.54331 3.5433099,3.5433099 0 0 1 3.54331,-3.54331 3.5433099,3.5433099 0 0 1 3.54331,3.54331 z"
           id="circle6759" />
        <path
           style="fill:none;stroke:#000000;stroke-width:0.35433075;stroke-miterlimit:4;stroke-dasharray:none;stroke-opacity:1"
           d="m 216.14191,496.06339 a 3.5433099,3.5433099 0 0 1 -3.54331,3.5433 3.5433099,3.5433099 0 0 1 -3.54331,-3.5433 3.5433099,3.5433099 0 0 1 3.54331,-3.54331 3.5433099,3.5433099 0 0 1 3.54331,3.54331 z"
           id="circle6761" />
        <path
           style="fill:none;stroke:#000000;stroke-width:0.35433075;stroke-miterlimit:4;stroke-dasharray:none;stroke-opacity:1"
           d="m 216.14191,531.49652 a 3.5433099,3.5433099 0 0 1 -3.54331,3.54331 3.5433099,3.5433099 0 0 1 -3.54331,-3.54331 3.5433099,3.5433099 0 0 1 3.54331,-3.54331 3.5433099,3.5433099 0 0 1 3.54331,3.54331 z"
           id="circle6763" />
        <path
           style="fill:none;stroke:#000000;stroke-width:0.35433075;stroke-miterlimit:4;stroke-dasharray:none;stroke-opacity:1"
           d="m 216.14191,566.92963 a 3.5433099,3.5433099 0 0 1 -3.54331,3.54331 3.5433099,3.5433099 0 0 1 -3.54331,-3.54331 3.5433099,3.5433099 0 0 1 3.54331,-3.54331 3.5433099,3.5433099 0 0 1 3.54331,3.54331 z"
           id="circle6765" />
        <path
           style="fill:none;stroke:#000000;stroke-width:0.35433075;stroke-miterlimit:4;stroke-dasharray:none;stroke-opacity:1"
           d="m 216.14191,602.36267 a 3.5433099,3.5433099 0 0 1 -3.54331,3.54331 3.5433099,3.5433099 0 0 1 -3.54331,-3.54331 3.5433099,3.5433099 0 0 1 3.54331,-3.54331 3.5433099,3.5433099 0 0 1 3.54331,3.54331 z"
           id="circle6767" />
        <path
           style="fill:none;stroke:#000000;stroke-width:0.35433075;stroke-miterlimit:4;stroke-dasharray:none;stroke-opacity:1"
           d="m 216.14191,637.79578 a 3.5433099,3.5433099 0 0 1 -3.54331,3.54331 3.5433099,3.5433099 0 0 1 -3.54331,-3.54331 3.5433099,3.5433099 0 0 1 3.54331,-3.54331 3.5433099,3.5433099 0 0 1 3.54331,3.54331 z"
           id="circle6769" />
        <path
           style="fill:none;stroke:#000000;stroke-width:0.35433075;stroke-miterlimit:4;stroke-dasharray:none;stroke-opacity:1"
           d="m 216.14191,673.22888 a 3.5433099,3.5433099 0 0 1 -3.54331,3.54331 3.5433099,3.5433099 0 0 1 -3.54331,-3.54331 3.5433099,3.5433099 0 0 1 3.54331,-3.54331 3.5433099,3.5433099 0 0 1 3.54331,3.54331 z"
           id="circle6771" />
        <path
           style="fill:none;stroke:#000000;stroke-width:0.35433075;stroke-miterlimit:4;stroke-dasharray:none;stroke-opacity:1"
           d="m 216.14191,708.66199 a 3.5433099,3.5433099 0 0 1 -3.54331,3.54331 3.5433099,3.5433099 0 0 1 -3.54331,-3.54331 3.5433099,3.5433099 0 0 1 3.54331,-3.54331 3.5433099,3.5433099 0 0 1 3.54331,3.54331 z"
           id="circle6773" />
        <path
           style="fill:none;stroke:#000000;stroke-width:0.35433075;stroke-miterlimit:4;stroke-dasharray:none;stroke-opacity:1"
           d="m 216.14191,744.09509 a 3.5433099,3.5433099 0 0 1 -3.54331,3.54331 3.5433099,3.5433099 0 0 1 -3.54331,-3.54331 3.5433099,3.5433099 0 0 1 3.54331,-3.54331 3.5433099,3.5433099 0 0 1 3.54331,3.54331 z"
           id="circle6775" />
        <path
           style="fill:none;stroke:#000000;stroke-width:0.35433075;stroke-miterlimit:4;stroke-dasharray:none;stroke-opacity:1"
           d="m 216.14191,779.5282 a 3.5433099,3.5433099 0 0 1 -3.54331,3.54331 3.5433099,3.5433099 0 0 1 -3.54331,-3.54331 3.5433099,3.5433099 0 0 1 3.54331,-3.54331 3.5433099,3.5433099 0 0 1 3.54331,3.54331 z"
           id="circle6777" />
        <path
           style="fill:none;stroke:#000000;stroke-width:0.35433075;stroke-miterlimit:4;stroke-dasharray:none;stroke-opacity:1"
           d="m 216.14191,814.9613 a 3.5433099,3.5433099 0 0 1 -3.54331,3.54331 3.5433099,3.5433099 0 0 1 -3.54331,-3.54331 3.5433099,3.5433099 0 0 1 3.54331,-3.54331 3.5433099,3.5433099 0 0 1 3.54331,3.54331 z"
           id="circle6779" />
        <path
           style="fill:none;stroke:#000000;stroke-width:0.35433075;stroke-miterlimit:4;stroke-dasharray:none;stroke-opacity:1"
           d="m 216.14191,850.39441 a 3.5433099,3.5433099 0 0 1 -3.54331,3.54331 3.5433099,3.5433099 0 0 1 -3.54331,-3.54331 3.5433099,3.5433099 0 0 1 3.54331,-3.54331 3.5433099,3.5433099 0 0 1 3.54331,3.54331 z"
           id="circle6781" />
        <path
           style="fill:none;stroke:#000000;stroke-width:0.35433075;stroke-miterlimit:4;stroke-dasharray:none;stroke-opacity:1"
           d="m 216.14191,885.82751 a 3.5433099,3.5433099 0 0 1 -3.54331,3.54331 3.5433099,3.5433099 0 0 1 -3.54331,-3.54331 3.5433099,3.5433099 0 0 1 3.54331,-3.54331 3.5433099,3.5433099 0 0 1 3.54331,3.54331 z"
           id="circle6783" />
        <path
           style="fill:none;stroke:#000000;stroke-width:0.35433075;stroke-miterlimit:4;stroke-dasharray:none;stroke-opacity:1"
           d="m 216.14191,921.26062 a 3.5433099,3.5433099 0 0 1 -3.54331,3.54331 3.5433099,3.5433099 0 0 1 -3.54331,-3.54331 3.5433099,3.5433099 0 0 1 3.54331,-3.54331 3.5433099,3.5433099 0 0 1 3.54331,3.54331 z"
           id="circle6785" />
        <path
           style="fill:none;stroke:#000000;stroke-width:0.35433075;stroke-miterlimit:4;stroke-dasharray:none;stroke-opacity:1"
           d="m 216.14191,956.69373 a 3.5433099,3.5433099 0 0 1 -3.54331,3.54331 3.5433099,3.5433099 0 0 1 -3.54331,-3.54331 3.5433099,3.5433099 0 0 1 3.54331,-3.54331 3.5433099,3.5433099 0 0 1 3.54331,3.54331 z"
           id="circle6787" />
        <path
           style="fill:none;stroke:#000000;stroke-width:0.35433075;stroke-miterlimit:4;stroke-dasharray:none;stroke-opacity:1"
           d="m 216.14191,992.12677 a 3.5433099,3.5433099 0 0 1 -3.54331,3.54331 3.5433099,3.5433099 0 0 1 -3.54331,-3.54331 3.5433099,3.5433099 0 0 1 3.54331,-3.54331 3.5433099,3.5433099 0 0 1 3.54331,3.54331 z"
           id="circle6789" />
        <path
           style="fill:none;stroke:#000000;stroke-width:0.35433075;stroke-miterlimit:4;stroke-dasharray:none;stroke-opacity:1"
           d="m 216.14191,1027.5599 a 3.5433099,3.5433099 0 0 1 -3.54331,3.5433 3.5433099,3.5433099 0 0 1 -3.54331,-3.5433 3.5433099,3.5433099 0 0 1 3.54331,-3.5433 3.5433099,3.5433099 0 0 1 3.54331,3.5433 z"
           id="circle6791" />
        <path
           style="fill:none;stroke:#000000;stroke-width:0.35433075;stroke-miterlimit:4;stroke-dasharray:none;stroke-opacity:1"
           d="m 251.575,318.89789 a 3.5433099,3.5433099 0 0 1 -3.54331,3.54331 3.5433099,3.5433099 0 0 1 -3.54331,-3.54331 3.5433099,3.5433099 0 0 1 3.54331,-3.54331 3.5433099,3.5433099 0 0 1 3.54331,3.54331 z"
           id="circle6793" />
        <path
           style="fill:none;stroke:#000000;stroke-width:0.35433075;stroke-miterlimit:4;stroke-dasharray:none;stroke-opacity:1"
           d="m 251.575,354.33099 a 3.5433099,3.5433099 0 0 1 -3.54331,3.54331 3.5433099,3.5433099 0 0 1 -3.54331,-3.54331 3.5433099,3.5433099 0 0 1 3.54331,-3.54331 3.5433099,3.5433099 0 0 1 3.54331,3.54331 z"
           id="circle6795" />
        <path
           style="fill:none;stroke:#000000;stroke-width:0.35433075;stroke-miterlimit:4;stroke-dasharray:none;stroke-opacity:1"
           d="m 251.575,389.7641 a 3.5433099,3.5433099 0 0 1 -3.54331,3.54331 3.5433099,3.5433099 0 0 1 -3.54331,-3.54331 3.5433099,3.5433099 0 0 1 3.54331,-3.54331 3.5433099,3.5433099 0 0 1 3.54331,3.54331 z"
           id="circle6797" />
        <path
           style="fill:none;stroke:#000000;stroke-width:0.35433075;stroke-miterlimit:4;stroke-dasharray:none;stroke-opacity:1"
           d="m 251.575,425.1972 a 3.5433099,3.5433099 0 0 1 -3.54331,3.54331 3.5433099,3.5433099 0 0 1 -3.54331,-3.54331 3.5433099,3.5433099 0 0 1 3.54331,-3.54331 3.5433099,3.5433099 0 0 1 3.54331,3.54331 z"
           id="circle6799" />
        <path
           style="fill:none;stroke:#000000;stroke-width:0.35433075;stroke-miterlimit:4;stroke-dasharray:none;stroke-opacity:1"
           d="m 251.575,460.63031 a 3.5433099,3.5433099 0 0 1 -3.54331,3.54331 3.5433099,3.5433099 0 0 1 -3.54331,-3.54331 3.5433099,3.5433099 0 0 1 3.54331,-3.54331 3.5433099,3.5433099 0 0 1 3.54331,3.54331 z"
           id="circle6801" />
        <path
           style="fill:none;stroke:#000000;stroke-width:0.35433075;stroke-miterlimit:4;stroke-dasharray:none;stroke-opacity:1"
           d="m 251.575,496.06339 a 3.5433099,3.5433099 0 0 1 -3.54331,3.5433 3.5433099,3.5433099 0 0 1 -3.54331,-3.5433 3.5433099,3.5433099 0 0 1 3.54331,-3.54331 3.5433099,3.5433099 0 0 1 3.54331,3.54331 z"
           id="circle6803" />
        <path
           style="fill:none;stroke:#000000;stroke-width:0.35433075;stroke-miterlimit:4;stroke-dasharray:none;stroke-opacity:1"
           d="m 251.575,531.49652 a 3.5433099,3.5433099 0 0 1 -3.54331,3.54331 3.5433099,3.5433099 0 0 1 -3.54331,-3.54331 3.5433099,3.5433099 0 0 1 3.54331,-3.54331 3.5433099,3.5433099 0 0 1 3.54331,3.54331 z"
           id="circle6805" />
        <path
           style="fill:none;stroke:#000000;stroke-width:0.35433075;stroke-miterlimit:4;stroke-dasharray:none;stroke-opacity:1"
           d="m 251.575,566.92963 a 3.5433099,3.5433099 0 0 1 -3.54331,3.54331 3.5433099,3.5433099 0 0 1 -3.54331,-3.54331 3.5433099,3.5433099 0 0 1 3.54331,-3.54331 3.5433099,3.5433099 0 0 1 3.54331,3.54331 z"
           id="circle6807" />
        <path
           style="fill:none;stroke:#000000;stroke-width:0.35433075;stroke-miterlimit:4;stroke-dasharray:none;stroke-opacity:1"
           d="m 251.575,602.36267 a 3.5433099,3.5433099 0 0 1 -3.54331,3.54331 3.5433099,3.5433099 0 0 1 -3.54331,-3.54331 3.5433099,3.5433099 0 0 1 3.54331,-3.54331 3.5433099,3.5433099 0 0 1 3.54331,3.54331 z"
           id="circle6809" />
        <path
           style="fill:none;stroke:#000000;stroke-width:0.35433075;stroke-miterlimit:4;stroke-dasharray:none;stroke-opacity:1"
           d="m 251.575,637.79578 a 3.5433099,3.5433099 0 0 1 -3.54331,3.54331 3.5433099,3.5433099 0 0 1 -3.54331,-3.54331 3.5433099,3.5433099 0 0 1 3.54331,-3.54331 3.5433099,3.5433099 0 0 1 3.54331,3.54331 z"
           id="circle6811" />
        <path
           style="fill:none;stroke:#000000;stroke-width:0.35433075;stroke-miterlimit:4;stroke-dasharray:none;stroke-opacity:1"
           d="m 251.575,673.22888 a 3.5433099,3.5433099 0 0 1 -3.54331,3.54331 3.5433099,3.5433099 0 0 1 -3.54331,-3.54331 3.5433099,3.5433099 0 0 1 3.54331,-3.54331 3.5433099,3.5433099 0 0 1 3.54331,3.54331 z"
           id="circle6813" />
        <path
           style="fill:none;stroke:#000000;stroke-width:0.35433075;stroke-miterlimit:4;stroke-dasharray:none;stroke-opacity:1"
           d="m 251.575,708.66199 a 3.5433099,3.5433099 0 0 1 -3.54331,3.54331 3.5433099,3.5433099 0 0 1 -3.54331,-3.54331 3.5433099,3.5433099 0 0 1 3.54331,-3.54331 3.5433099,3.5433099 0 0 1 3.54331,3.54331 z"
           id="circle6815" />
        <path
           style="fill:none;stroke:#000000;stroke-width:0.35433075;stroke-miterlimit:4;stroke-dasharray:none;stroke-opacity:1"
           d="m 251.575,744.09509 a 3.5433099,3.5433099 0 0 1 -3.54331,3.54331 3.5433099,3.5433099 0 0 1 -3.54331,-3.54331 3.5433099,3.5433099 0 0 1 3.54331,-3.54331 3.5433099,3.5433099 0 0 1 3.54331,3.54331 z"
           id="circle6817" />
        <path
           style="fill:none;stroke:#000000;stroke-width:0.35433075;stroke-miterlimit:4;stroke-dasharray:none;stroke-opacity:1"
           d="m 251.575,779.5282 a 3.5433099,3.5433099 0 0 1 -3.54331,3.54331 3.5433099,3.5433099 0 0 1 -3.54331,-3.54331 3.5433099,3.5433099 0 0 1 3.54331,-3.54331 3.5433099,3.5433099 0 0 1 3.54331,3.54331 z"
           id="circle6819" />
        <path
           style="fill:none;stroke:#000000;stroke-width:0.35433075;stroke-miterlimit:4;stroke-dasharray:none;stroke-opacity:1"
           d="m 251.575,814.9613 a 3.5433099,3.5433099 0 0 1 -3.54331,3.54331 3.5433099,3.5433099 0 0 1 -3.54331,-3.54331 3.5433099,3.5433099 0 0 1 3.54331,-3.54331 3.5433099,3.5433099 0 0 1 3.54331,3.54331 z"
           id="circle6821" />
        <path
           style="fill:none;stroke:#000000;stroke-width:0.35433075;stroke-miterlimit:4;stroke-dasharray:none;stroke-opacity:1"
           d="m 251.575,850.39441 a 3.5433099,3.5433099 0 0 1 -3.54331,3.54331 3.5433099,3.5433099 0 0 1 -3.54331,-3.54331 3.5433099,3.5433099 0 0 1 3.54331,-3.54331 3.5433099,3.5433099 0 0 1 3.54331,3.54331 z"
           id="circle6823" />
        <path
           style="fill:none;stroke:#000000;stroke-width:0.35433075;stroke-miterlimit:4;stroke-dasharray:none;stroke-opacity:1"
           d="m 251.575,885.82751 a 3.5433099,3.5433099 0 0 1 -3.54331,3.54331 3.5433099,3.5433099 0 0 1 -3.54331,-3.54331 3.5433099,3.5433099 0 0 1 3.54331,-3.54331 3.5433099,3.5433099 0 0 1 3.54331,3.54331 z"
           id="circle6825" />
        <path
           style="fill:none;stroke:#000000;stroke-width:0.35433075;stroke-miterlimit:4;stroke-dasharray:none;stroke-opacity:1"
           d="m 251.575,921.26062 a 3.5433099,3.5433099 0 0 1 -3.54331,3.54331 3.5433099,3.5433099 0 0 1 -3.54331,-3.54331 3.5433099,3.5433099 0 0 1 3.54331,-3.54331 3.5433099,3.5433099 0 0 1 3.54331,3.54331 z"
           id="circle6827" />
        <path
           style="fill:none;stroke:#000000;stroke-width:0.35433075;stroke-miterlimit:4;stroke-dasharray:none;stroke-opacity:1"
           d="m 251.575,956.69373 a 3.5433099,3.5433099 0 0 1 -3.54331,3.54331 3.5433099,3.5433099 0 0 1 -3.54331,-3.54331 3.5433099,3.5433099 0 0 1 3.54331,-3.54331 3.5433099,3.5433099 0 0 1 3.54331,3.54331 z"
           id="circle6829" />
        <path
           style="fill:none;stroke:#000000;stroke-width:0.35433075;stroke-miterlimit:4;stroke-dasharray:none;stroke-opacity:1"
           d="m 251.575,992.12677 a 3.5433099,3.5433099 0 0 1 -3.54331,3.54331 3.5433099,3.5433099 0 0 1 -3.54331,-3.54331 3.5433099,3.5433099 0 0 1 3.54331,-3.54331 3.5433099,3.5433099 0 0 1 3.54331,3.54331 z"
           id="circle6831" />
        <path
           style="fill:none;stroke:#000000;stroke-width:0.35433075;stroke-miterlimit:4;stroke-dasharray:none;stroke-opacity:1"
           d="m 251.575,1027.5599 a 3.5433099,3.5433099 0 0 1 -3.54331,3.5433 3.5433099,3.5433099 0 0 1 -3.54331,-3.5433 3.5433099,3.5433099 0 0 1 3.54331,-3.5433 3.5433099,3.5433099 0 0 1 3.54331,3.5433 z"
           id="circle6833" />
        <path
           style="fill:none;stroke:#000000;stroke-width:0.35433075;stroke-miterlimit:4;stroke-dasharray:none;stroke-opacity:1"
           d="m 287.00812,318.89789 a 3.5433099,3.5433099 0 0 1 -3.54331,3.54331 3.5433099,3.5433099 0 0 1 -3.54331,-3.54331 3.5433099,3.5433099 0 0 1 3.54331,-3.54331 3.5433099,3.5433099 0 0 1 3.54331,3.54331 z"
           id="circle6835" />
        <path
           style="fill:none;stroke:#000000;stroke-width:0.35433075;stroke-miterlimit:4;stroke-dasharray:none;stroke-opacity:1"
           d="m 287.00812,354.33099 a 3.5433099,3.5433099 0 0 1 -3.54331,3.54331 3.5433099,3.5433099 0 0 1 -3.54331,-3.54331 3.5433099,3.5433099 0 0 1 3.54331,-3.54331 3.5433099,3.5433099 0 0 1 3.54331,3.54331 z"
           id="circle6837" />
        <path
           style="fill:none;stroke:#000000;stroke-width:0.35433075;stroke-miterlimit:4;stroke-dasharray:none;stroke-opacity:1"
           d="m 287.00812,389.7641 a 3.5433099,3.5433099 0 0 1 -3.54331,3.54331 3.5433099,3.5433099 0 0 1 -3.54331,-3.54331 3.5433099,3.5433099 0 0 1 3.54331,-3.54331 3.5433099,3.5433099 0 0 1 3.54331,3.54331 z"
           id="circle6839" />
        <path
           style="fill:none;stroke:#000000;stroke-width:0.35433075;stroke-miterlimit:4;stroke-dasharray:none;stroke-opacity:1"
           d="m 287.00812,425.1972 a 3.5433099,3.5433099 0 0 1 -3.54331,3.54331 3.5433099,3.5433099 0 0 1 -3.54331,-3.54331 3.5433099,3.5433099 0 0 1 3.54331,-3.54331 3.5433099,3.5433099 0 0 1 3.54331,3.54331 z"
           id="circle6841" />
        <path
           style="fill:none;stroke:#000000;stroke-width:0.35433075;stroke-miterlimit:4;stroke-dasharray:none;stroke-opacity:1"
           d="m 287.00812,460.63031 a 3.5433099,3.5433099 0 0 1 -3.54331,3.54331 3.5433099,3.5433099 0 0 1 -3.54331,-3.54331 3.5433099,3.5433099 0 0 1 3.54331,-3.54331 3.5433099,3.5433099 0 0 1 3.54331,3.54331 z"
           id="circle6843" />
        <path
           style="fill:none;stroke:#000000;stroke-width:0.35433075;stroke-miterlimit:4;stroke-dasharray:none;stroke-opacity:1"
           d="m 287.00812,496.06339 a 3.5433099,3.5433099 0 0 1 -3.54331,3.5433 3.5433099,3.5433099 0 0 1 -3.54331,-3.5433 3.5433099,3.5433099 0 0 1 3.54331,-3.54331 3.5433099,3.5433099 0 0 1 3.54331,3.54331 z"
           id="circle6845" />
        <path
           style="fill:none;stroke:#000000;stroke-width:0.35433075;stroke-miterlimit:4;stroke-dasharray:none;stroke-opacity:1"
           d="m 287.00812,531.49652 a 3.5433099,3.5433099 0 0 1 -3.54331,3.54331 3.5433099,3.5433099 0 0 1 -3.54331,-3.54331 3.5433099,3.5433099 0 0 1 3.54331,-3.54331 3.5433099,3.5433099 0 0 1 3.54331,3.54331 z"
           id="circle6847" />
        <path
           style="fill:none;stroke:#000000;stroke-width:0.35433075;stroke-miterlimit:4;stroke-dasharray:none;stroke-opacity:1"
           d="m 287.00812,566.92963 a 3.5433099,3.5433099 0 0 1 -3.54331,3.54331 3.5433099,3.5433099 0 0 1 -3.54331,-3.54331 3.5433099,3.5433099 0 0 1 3.54331,-3.54331 3.5433099,3.5433099 0 0 1 3.54331,3.54331 z"
           id="circle6849" />
        <path
           style="fill:none;stroke:#000000;stroke-width:0.35433075;stroke-miterlimit:4;stroke-dasharray:none;stroke-opacity:1"
           d="m 287.00812,602.36267 a 3.5433099,3.5433099 0 0 1 -3.54331,3.54331 3.5433099,3.5433099 0 0 1 -3.54331,-3.54331 3.5433099,3.5433099 0 0 1 3.54331,-3.54331 3.5433099,3.5433099 0 0 1 3.54331,3.54331 z"
           id="circle6851" />
        <path
           style="fill:none;stroke:#000000;stroke-width:0.35433075;stroke-miterlimit:4;stroke-dasharray:none;stroke-opacity:1"
           d="m 287.00812,637.79578 a 3.5433099,3.5433099 0 0 1 -3.54331,3.54331 3.5433099,3.5433099 0 0 1 -3.54331,-3.54331 3.5433099,3.5433099 0 0 1 3.54331,-3.54331 3.5433099,3.5433099 0 0 1 3.54331,3.54331 z"
           id="circle6853" />
        <path
           style="fill:none;stroke:#000000;stroke-width:0.35433075;stroke-miterlimit:4;stroke-dasharray:none;stroke-opacity:1"
           d="m 287.00812,673.22888 a 3.5433099,3.5433099 0 0 1 -3.54331,3.54331 3.5433099,3.5433099 0 0 1 -3.54331,-3.54331 3.5433099,3.5433099 0 0 1 3.54331,-3.54331 3.5433099,3.5433099 0 0 1 3.54331,3.54331 z"
           id="circle6855" />
        <path
           style="fill:none;stroke:#000000;stroke-width:0.35433075;stroke-miterlimit:4;stroke-dasharray:none;stroke-opacity:1"
           d="m 287.00812,708.66199 a 3.5433099,3.5433099 0 0 1 -3.54331,3.54331 3.5433099,3.5433099 0 0 1 -3.54331,-3.54331 3.5433099,3.5433099 0 0 1 3.54331,-3.54331 3.5433099,3.5433099 0 0 1 3.54331,3.54331 z"
           id="circle6857" />
        <path
           style="fill:none;stroke:#000000;stroke-width:0.35433075;stroke-miterlimit:4;stroke-dasharray:none;stroke-opacity:1"
           d="m 287.00812,744.09509 a 3.5433099,3.5433099 0 0 1 -3.54331,3.54331 3.5433099,3.5433099 0 0 1 -3.54331,-3.54331 3.5433099,3.5433099 0 0 1 3.54331,-3.54331 3.5433099,3.5433099 0 0 1 3.54331,3.54331 z"
           id="circle6859" />
        <path
           style="fill:none;stroke:#000000;stroke-width:0.35433075;stroke-miterlimit:4;stroke-dasharray:none;stroke-opacity:1"
           d="m 287.00812,779.5282 a 3.5433099,3.5433099 0 0 1 -3.54331,3.54331 3.5433099,3.5433099 0 0 1 -3.54331,-3.54331 3.5433099,3.5433099 0 0 1 3.54331,-3.54331 3.5433099,3.5433099 0 0 1 3.54331,3.54331 z"
           id="circle6861" />
        <path
           style="fill:none;stroke:#000000;stroke-width:0.35433075;stroke-miterlimit:4;stroke-dasharray:none;stroke-opacity:1"
           d="m 287.00812,814.9613 a 3.5433099,3.5433099 0 0 1 -3.54331,3.54331 3.5433099,3.5433099 0 0 1 -3.54331,-3.54331 3.5433099,3.5433099 0 0 1 3.54331,-3.54331 3.5433099,3.5433099 0 0 1 3.54331,3.54331 z"
           id="circle6863" />
        <path
           style="fill:none;stroke:#000000;stroke-width:0.35433075;stroke-miterlimit:4;stroke-dasharray:none;stroke-opacity:1"
           d="m 287.00812,850.39441 a 3.5433099,3.5433099 0 0 1 -3.54331,3.54331 3.5433099,3.5433099 0 0 1 -3.54331,-3.54331 3.5433099,3.5433099 0 0 1 3.54331,-3.54331 3.5433099,3.5433099 0 0 1 3.54331,3.54331 z"
           id="circle6865" />
        <path
           style="fill:none;stroke:#000000;stroke-width:0.35433075;stroke-miterlimit:4;stroke-dasharray:none;stroke-opacity:1"
           d="m 287.00812,885.82751 a 3.5433099,3.5433099 0 0 1 -3.54331,3.54331 3.5433099,3.5433099 0 0 1 -3.54331,-3.54331 3.5433099,3.5433099 0 0 1 3.54331,-3.54331 3.5433099,3.5433099 0 0 1 3.54331,3.54331 z"
           id="circle6867" />
        <path
           style="fill:none;stroke:#000000;stroke-width:0.35433075;stroke-miterlimit:4;stroke-dasharray:none;stroke-opacity:1"
           d="m 287.00812,921.26062 a 3.5433099,3.5433099 0 0 1 -3.54331,3.54331 3.5433099,3.5433099 0 0 1 -3.54331,-3.54331 3.5433099,3.5433099 0 0 1 3.54331,-3.54331 3.5433099,3.5433099 0 0 1 3.54331,3.54331 z"
           id="circle6869" />
        <path
           style="fill:none;stroke:#000000;stroke-width:0.35433075;stroke-miterlimit:4;stroke-dasharray:none;stroke-opacity:1"
           d="m 287.00812,956.69373 a 3.5433099,3.5433099 0 0 1 -3.54331,3.54331 3.5433099,3.5433099 0 0 1 -3.54331,-3.54331 3.5433099,3.5433099 0 0 1 3.54331,-3.54331 3.5433099,3.5433099 0 0 1 3.54331,3.54331 z"
           id="circle6871" />
        <path
           style="fill:none;stroke:#000000;stroke-width:0.35433075;stroke-miterlimit:4;stroke-dasharray:none;stroke-opacity:1"
           d="m 287.00812,992.12677 a 3.5433099,3.5433099 0 0 1 -3.54331,3.54331 3.5433099,3.5433099 0 0 1 -3.54331,-3.54331 3.5433099,3.5433099 0 0 1 3.54331,-3.54331 3.5433099,3.5433099 0 0 1 3.54331,3.54331 z"
           id="circle6873" />
        <path
           style="fill:none;stroke:#000000;stroke-width:0.35433075;stroke-miterlimit:4;stroke-dasharray:none;stroke-opacity:1"
           d="m 287.00812,1027.5599 a 3.5433099,3.5433099 0 0 1 -3.54331,3.5433 3.5433099,3.5433099 0 0 1 -3.54331,-3.5433 3.5433099,3.5433099 0 0 1 3.54331,-3.5433 3.5433099,3.5433099 0 0 1 3.54331,3.5433 z"
           id="circle6875" />
        <path
           style="fill:none;stroke:#000000;stroke-width:0.35433075;stroke-miterlimit:4;stroke-dasharray:none;stroke-opacity:1"
           d="m 322.4412,318.89789 a 3.5433099,3.5433099 0 0 1 -3.54331,3.54331 3.5433099,3.5433099 0 0 1 -3.54331,-3.54331 3.5433099,3.5433099 0 0 1 3.54331,-3.54331 3.5433099,3.5433099 0 0 1 3.54331,3.54331 z"
           id="circle6877" />
        <path
           style="fill:none;stroke:#000000;stroke-width:0.35433075;stroke-miterlimit:4;stroke-dasharray:none;stroke-opacity:1"
           d="m 322.4412,354.33099 a 3.5433099,3.5433099 0 0 1 -3.54331,3.54331 3.5433099,3.5433099 0 0 1 -3.54331,-3.54331 3.5433099,3.5433099 0 0 1 3.54331,-3.54331 3.5433099,3.5433099 0 0 1 3.54331,3.54331 z"
           id="circle6879" />
        <path
           style="fill:none;stroke:#000000;stroke-width:0.35433075;stroke-miterlimit:4;stroke-dasharray:none;stroke-opacity:1"
           d="m 322.4412,389.7641 a 3.5433099,3.5433099 0 0 1 -3.54331,3.54331 3.5433099,3.5433099 0 0 1 -3.54331,-3.54331 3.5433099,3.5433099 0 0 1 3.54331,-3.54331 3.5433099,3.5433099 0 0 1 3.54331,3.54331 z"
           id="circle6881" />
        <path
           style="fill:none;stroke:#000000;stroke-width:0.35433075;stroke-miterlimit:4;stroke-dasharray:none;stroke-opacity:1"
           d="m 322.4412,425.1972 a 3.5433099,3.5433099 0 0 1 -3.54331,3.54331 3.5433099,3.5433099 0 0 1 -3.54331,-3.54331 3.5433099,3.5433099 0 0 1 3.54331,-3.54331 3.5433099,3.5433099 0 0 1 3.54331,3.54331 z"
           id="circle6883" />
        <path
           style="fill:none;stroke:#000000;stroke-width:0.35433075;stroke-miterlimit:4;stroke-dasharray:none;stroke-opacity:1"
           d="m 322.4412,460.63031 a 3.5433099,3.5433099 0 0 1 -3.54331,3.54331 3.5433099,3.5433099 0 0 1 -3.54331,-3.54331 3.5433099,3.5433099 0 0 1 3.54331,-3.54331 3.5433099,3.5433099 0 0 1 3.54331,3.54331 z"
           id="circle6885" />
        <path
           style="fill:none;stroke:#000000;stroke-width:0.35433075;stroke-miterlimit:4;stroke-dasharray:none;stroke-opacity:1"
           d="m 322.4412,496.06339 a 3.5433099,3.5433099 0 0 1 -3.54331,3.5433 3.5433099,3.5433099 0 0 1 -3.54331,-3.5433 3.5433099,3.5433099 0 0 1 3.54331,-3.54331 3.5433099,3.5433099 0 0 1 3.54331,3.54331 z"
           id="circle6887" />
        <path
           style="fill:none;stroke:#000000;stroke-width:0.35433075;stroke-miterlimit:4;stroke-dasharray:none;stroke-opacity:1"
           d="m 322.4412,531.49652 a 3.5433099,3.5433099 0 0 1 -3.54331,3.54331 3.5433099,3.5433099 0 0 1 -3.54331,-3.54331 3.5433099,3.5433099 0 0 1 3.54331,-3.54331 3.5433099,3.5433099 0 0 1 3.54331,3.54331 z"
           id="circle6889" />
        <path
           style="fill:none;stroke:#000000;stroke-width:0.35433075;stroke-miterlimit:4;stroke-dasharray:none;stroke-opacity:1"
           d="m 322.4412,566.92963 a 3.5433099,3.5433099 0 0 1 -3.54331,3.54331 3.5433099,3.5433099 0 0 1 -3.54331,-3.54331 3.5433099,3.5433099 0 0 1 3.54331,-3.54331 3.5433099,3.5433099 0 0 1 3.54331,3.54331 z"
           id="circle6891" />
        <path
           style="fill:none;stroke:#000000;stroke-width:0.35433075;stroke-miterlimit:4;stroke-dasharray:none;stroke-opacity:1"
           d="m 322.4412,602.36267 a 3.5433099,3.5433099 0 0 1 -3.54331,3.54331 3.5433099,3.5433099 0 0 1 -3.54331,-3.54331 3.5433099,3.5433099 0 0 1 3.54331,-3.54331 3.5433099,3.5433099 0 0 1 3.54331,3.54331 z"
           id="circle6893" />
        <path
           style="fill:none;stroke:#000000;stroke-width:0.35433075;stroke-miterlimit:4;stroke-dasharray:none;stroke-opacity:1"
           d="m 322.4412,637.79578 a 3.5433099,3.5433099 0 0 1 -3.54331,3.54331 3.5433099,3.5433099 0 0 1 -3.54331,-3.54331 3.5433099,3.5433099 0 0 1 3.54331,-3.54331 3.5433099,3.5433099 0 0 1 3.54331,3.54331 z"
           id="circle6895" />
        <path
           style="fill:none;stroke:#000000;stroke-width:0.35433075;stroke-miterlimit:4;stroke-dasharray:none;stroke-opacity:1"
           d="m 322.4412,673.22888 a 3.5433099,3.5433099 0 0 1 -3.54331,3.54331 3.5433099,3.5433099 0 0 1 -3.54331,-3.54331 3.5433099,3.5433099 0 0 1 3.54331,-3.54331 3.5433099,3.5433099 0 0 1 3.54331,3.54331 z"
           id="circle6897" />
        <path
           style="fill:none;stroke:#000000;stroke-width:0.35433075;stroke-miterlimit:4;stroke-dasharray:none;stroke-opacity:1"
           d="m 322.4412,708.66199 a 3.5433099,3.5433099 0 0 1 -3.54331,3.54331 3.5433099,3.5433099 0 0 1 -3.54331,-3.54331 3.5433099,3.5433099 0 0 1 3.54331,-3.54331 3.5433099,3.5433099 0 0 1 3.54331,3.54331 z"
           id="circle6899" />
        <path
           style="fill:none;stroke:#000000;stroke-width:0.35433075;stroke-miterlimit:4;stroke-dasharray:none;stroke-opacity:1"
           d="m 322.4412,744.09509 a 3.5433099,3.5433099 0 0 1 -3.54331,3.54331 3.5433099,3.5433099 0 0 1 -3.54331,-3.54331 3.5433099,3.5433099 0 0 1 3.54331,-3.54331 3.5433099,3.5433099 0 0 1 3.54331,3.54331 z"
           id="circle6901" />
        <path
           style="fill:none;stroke:#000000;stroke-width:0.35433075;stroke-miterlimit:4;stroke-dasharray:none;stroke-opacity:1"
           d="m 322.4412,779.5282 a 3.5433099,3.5433099 0 0 1 -3.54331,3.54331 3.5433099,3.5433099 0 0 1 -3.54331,-3.54331 3.5433099,3.5433099 0 0 1 3.54331,-3.54331 3.5433099,3.5433099 0 0 1 3.54331,3.54331 z"
           id="circle6903" />
        <path
           style="fill:none;stroke:#000000;stroke-width:0.35433075;stroke-miterlimit:4;stroke-dasharray:none;stroke-opacity:1"
           d="m 322.4412,814.9613 a 3.5433099,3.5433099 0 0 1 -3.54331,3.54331 3.5433099,3.5433099 0 0 1 -3.54331,-3.54331 3.5433099,3.5433099 0 0 1 3.54331,-3.54331 3.5433099,3.5433099 0 0 1 3.54331,3.54331 z"
           id="circle6905" />
        <path
           style="fill:none;stroke:#000000;stroke-width:0.35433075;stroke-miterlimit:4;stroke-dasharray:none;stroke-opacity:1"
           d="m 322.4412,850.39441 a 3.5433099,3.5433099 0 0 1 -3.54331,3.54331 3.5433099,3.5433099 0 0 1 -3.54331,-3.54331 3.5433099,3.5433099 0 0 1 3.54331,-3.54331 3.5433099,3.5433099 0 0 1 3.54331,3.54331 z"
           id="circle6907" />
        <path
           style="fill:none;stroke:#000000;stroke-width:0.35433075;stroke-miterlimit:4;stroke-dasharray:none;stroke-opacity:1"
           d="m 322.4412,885.82751 a 3.5433099,3.5433099 0 0 1 -3.54331,3.54331 3.5433099,3.5433099 0 0 1 -3.54331,-3.54331 3.5433099,3.5433099 0 0 1 3.54331,-3.54331 3.5433099,3.5433099 0 0 1 3.54331,3.54331 z"
           id="circle6909" />
        <path
           style="fill:none;stroke:#000000;stroke-width:0.35433075;stroke-miterlimit:4;stroke-dasharray:none;stroke-opacity:1"
           d="m 322.4412,921.26062 a 3.5433099,3.5433099 0 0 1 -3.54331,3.54331 3.5433099,3.5433099 0 0 1 -3.54331,-3.54331 3.5433099,3.5433099 0 0 1 3.54331,-3.54331 3.5433099,3.5433099 0 0 1 3.54331,3.54331 z"
           id="circle6911" />
        <path
           style="fill:none;stroke:#000000;stroke-width:0.35433075;stroke-miterlimit:4;stroke-dasharray:none;stroke-opacity:1"
           d="m 322.4412,956.69373 a 3.5433099,3.5433099 0 0 1 -3.54331,3.54331 3.5433099,3.5433099 0 0 1 -3.54331,-3.54331 3.5433099,3.5433099 0 0 1 3.54331,-3.54331 3.5433099,3.5433099 0 0 1 3.54331,3.54331 z"
           id="circle6913" />
        <path
           style="fill:none;stroke:#000000;stroke-width:0.35433075;stroke-miterlimit:4;stroke-dasharray:none;stroke-opacity:1"
           d="m 322.4412,992.12677 a 3.5433099,3.5433099 0 0 1 -3.54331,3.54331 3.5433099,3.5433099 0 0 1 -3.54331,-3.54331 3.5433099,3.5433099 0 0 1 3.54331,-3.54331 3.5433099,3.5433099 0 0 1 3.54331,3.54331 z"
           id="circle6915" />
        <path
           style="fill:none;stroke:#000000;stroke-width:0.35433075;stroke-miterlimit:4;stroke-dasharray:none;stroke-opacity:1"
           d="m 322.4412,1027.5599 a 3.5433099,3.5433099 0 0 1 -3.54331,3.5433 3.5433099,3.5433099 0 0 1 -3.54331,-3.5433 3.5433099,3.5433099 0 0 1 3.54331,-3.5433 3.5433099,3.5433099 0 0 1 3.54331,3.5433 z"
           id="circle6917" />
        <path
           style="fill:none;stroke:#000000;stroke-width:0.35433075;stroke-miterlimit:4;stroke-dasharray:none;stroke-opacity:1"
           d="m 61.122098,56.692959 232.086802,0 c 4.41673,0 7.97244,3.555711 7.97244,7.972447 l 0,178.937154 c 0,4.41674 -3.55571,7.97245 -7.97244,7.97245 l -232.086802,0 c -4.416736,0 -7.972447,-3.55571 -7.972447,-7.97245 l 0,-178.937154 c 0,-4.416736 3.555711,-7.972447 7.972447,-7.972447 z"
           id="rect6919" />
        <path
           style="fill:none;stroke:#000000;stroke-width:0.35433075;stroke-miterlimit:4;stroke-dasharray:none;stroke-opacity:1"
           d="m 42.519722,35.433102 a 7.0866199,7.0866199 0 0 1 -7.08662,7.08662 7.0866199,7.0866199 0 0 1 -7.08662,-7.08662 7.0866199,7.0866199 0 0 1 7.08662,-7.08662 7.0866199,7.0866199 0 0 1 7.08662,7.08662 z"
           id="circle6921" />
        <path
           style="fill:none;stroke:#000000;stroke-width:0.35433075;stroke-miterlimit:4;stroke-dasharray:none;stroke-opacity:1"
           d="m 325.98451,35.433102 a 7.0866199,7.0866199 0 0 1 -7.08662,7.08662 7.0866199,7.0866199 0 0 1 -7.08662,-7.08662 7.0866199,7.0866199 0 0 1 7.08662,-7.08662 7.0866199,7.0866199 0 0 1 7.08662,7.08662 z"
           id="circle6923" />
        <path
           style="fill:none;stroke:#000000;stroke-width:0.35433075;stroke-miterlimit:4;stroke-dasharray:none;stroke-opacity:1"
           d="m 325.98451,850.39441 a 7.0866199,7.0866199 0 0 1 -7.08662,7.08662 7.0866199,7.0866199 0 0 1 -7.08662,-7.08662 7.0866199,7.0866199 0 0 1 7.08662,-7.08662 7.0866199,7.0866199 0 0 1 7.08662,7.08662 z"
           id="circle6925" />
        <path
           style="fill:none;stroke:#000000;stroke-width:0.35433075;stroke-miterlimit:4;stroke-dasharray:none;stroke-opacity:1"
           d="m 42.519722,850.39441 a 7.0866199,7.0866199 0 0 1 -7.08662,7.08662 7.0866199,7.0866199 0 0 1 -7.08662,-7.08662 7.0866199,7.0866199 0 0 1 7.08662,-7.08662 7.0866199,7.0866199 0 0 1 7.08662,7.08662 z"
           id="circle6927" />
        <path
           style="fill:none;stroke:#000000;stroke-width:0.35433075;stroke-miterlimit:4;stroke-dasharray:none;stroke-opacity:1"
           d="m 42.519722,1027.5599 a 7.0866199,7.0866199 0 0 1 -7.08662,7.0867 7.0866199,7.0866199 0 0 1 -7.08662,-7.0867 7.0866199,7.0866199 0 0 1 7.08662,-7.0866 7.0866199,7.0866199 0 0 1 7.08662,7.0866 z"
           id="circle6929" />
        <path
           style="fill:none;stroke:#000000;stroke-width:0.35433075;stroke-miterlimit:4;stroke-dasharray:none;stroke-opacity:1"
           d="m 325.98451,1027.5599 a 7.0866199,7.0866199 0 0 1 -7.08662,7.0867 7.0866199,7.0866199 0 0 1 -7.08662,-7.0867 7.0866199,7.0866199 0 0 1 7.08662,-7.0866 7.0866199,7.0866199 0 0 1 7.08662,7.0866 z"
           id="circle6931" />
        <path
           style="fill:none;stroke:#000000;stroke-width:0.35433075;stroke-miterlimit:4;stroke-dasharray:none;stroke-opacity:1"
           d="m 106.2993,283.46481 141.73241,0 0,17.71655 -141.73241,0 z"
           id="rect6933" />
        <path
           style="fill:none;stroke:#000000;stroke-width:0.35433075;stroke-miterlimit:4;stroke-dasharray:none;stroke-opacity:1"
           d="m 88.58275,17.71655 35.4331,0 0,-17.71655 35.4331,0 0,17.71655 35.4331,0 0,-17.71655 35.4331,0 0,17.71655 35.4331,0 0,-17.71655 44.29138,0 0,17.71655 26.57482,0 0,26.574825 17.71655,0 0,44.291375 -17.71655,0 0,35.4331 17.71655,0 0,35.4331 -17.71655,0 0,35.4331 17.71655,0 0,35.4331 -17.71655,0 0,35.4331 17.71655,0 0,35.4331 -17.71655,0 0,35.4331 17.71655,0 0,35.4331 -17.71655,0 0,35.4331 17.71655,0 0,35.4331 -17.71655,0 0,35.4331 17.71655,0 0,35.4331 -17.71655,0 0,35.4331 17.71655,0 0,35.4331 -17.71655,0 0,35.4331 17.71655,0 0,35.4331 -17.71655,0 0,35.4331 17.71655,0 0,35.4331 -17.71655,0 0,35.4331 17.71655,0 0,35.4331 -17.71655,0 0,35.4331 17.71655,0 0,35.4331 -17.71655,0 0,35.4331 17.71655,0 0,35.4331 -17.71655,0 0,35.4331 17.71655,0 0,44.29135 -17.71655,0 0,26.5748 -26.57482,0 0,17.7166 -44.29138,0 0,-17.7166 -35.4331,0 0,17.7166 -35.4331,0 0,-17.7166 -35.4331,0 0,17.7166 -35.4331,0 0,-17.7166 -35.4331,0 0,17.7166 -44.291375,0 0,-17.7166 -26.574825,0 0,-26.5748 -17.71655,0 0,-44.29135 17.71655,0 0,-35.4331 -17.71655,0 0,-35.4331 17.71655,0 0,-35.4331 -17.71655,0 0,-35.4331 17.71655,0 0,-35.4331 -17.71655,0 0,-35.4331 17.71655,0 0,-35.4331 -17.71655,0 0,-35.4331 17.71655,0 0,-35.4331 -17.71655,0 0,-35.4331 17.71655,0 0,-35.4331 -17.71655,0 0,-35.4331 17.71655,0 0,-35.4331 -17.71655,0 0,-35.4331 17.71655,0 0,-35.4331 -17.71655,0 0,-35.4331 17.71655,0 0,-35.4331 -17.71655,0 0,-35.4331 17.71655,0 0,-35.4331 -17.71655,0 0,-35.4331 17.71655,0 0,-35.4331 -17.71655,0 0,-35.4331 17.71655,0 0,-35.4331 -17.71655,0 0,-35.4331 17.71655,0 0,-35.4331 -17.71655,0 0,-44.291375 17.71655,0 0,-26.574825 26.574825,0 0,-17.71655 44.291375,0 z"
           id="polygon6935" />
      </g>
      <g
         id="g6937"
         transform="translate(262.54529,186.52719)"
         style="stroke:#000000;stroke-width:0.35433075;stroke-miterlimit:4;stroke-dasharray:none;stroke-opacity:1">
        <path
           style="fill:none;stroke:#000000;stroke-width:0.35433075;stroke-miterlimit:4;stroke-dasharray:none;stroke-opacity:1"
           d="m 42.519722,35.433102 a 7.0866199,7.0866199 0 0 1 -7.08662,7.08662 7.0866199,7.0866199 0 0 1 -7.08662,-7.08662 7.0866199,7.0866199 0 0 1 7.08662,-7.08662 7.0866199,7.0866199 0 0 1 7.08662,7.08662 z"
           id="circle6939" />
        <path
           style="fill:none;stroke:#000000;stroke-width:0.35433075;stroke-miterlimit:4;stroke-dasharray:none;stroke-opacity:1"
           d="m 325.98451,35.433102 a 7.0866199,7.0866199 0 0 1 -7.08662,7.08662 7.0866199,7.0866199 0 0 1 -7.08662,-7.08662 7.0866199,7.0866199 0 0 1 7.08662,-7.08662 7.0866199,7.0866199 0 0 1 7.08662,7.08662 z"
           id="circle6941" />
        <path
           style="fill:none;stroke:#000000;stroke-width:0.35433075;stroke-miterlimit:4;stroke-dasharray:none;stroke-opacity:1"
           d="m 325.98451,212.5986 a 7.0866199,7.0866199 0 0 1 -7.08662,7.08662 7.0866199,7.0866199 0 0 1 -7.08662,-7.08662 7.0866199,7.0866199 0 0 1 7.08662,-7.08662 7.0866199,7.0866199 0 0 1 7.08662,7.08662 z"
           id="circle6943" />
        <path
           style="fill:none;stroke:#000000;stroke-width:0.35433075;stroke-miterlimit:4;stroke-dasharray:none;stroke-opacity:1"
           d="m 42.519722,212.5986 a 7.0866199,7.0866199 0 0 1 -7.08662,7.08662 7.0866199,7.0866199 0 0 1 -7.08662,-7.08662 7.0866199,7.0866199 0 0 1 7.08662,-7.08662 7.0866199,7.0866199 0 0 1 7.08662,7.08662 z"
           id="circle6945" />
        <path
           style="fill:none;stroke:#000000;stroke-width:0.35433075;stroke-miterlimit:4;stroke-dasharray:none;stroke-opacity:1"
           d="m 42.519722,1027.5599 a 7.0866199,7.0866199 0 0 1 -7.08662,7.0867 7.0866199,7.0866199 0 0 1 -7.08662,-7.0867 7.0866199,7.0866199 0 0 1 7.08662,-7.0866 7.0866199,7.0866199 0 0 1 7.08662,7.0866 z"
           id="circle6947" />
        <path
           style="fill:none;stroke:#000000;stroke-width:0.35433075;stroke-miterlimit:4;stroke-dasharray:none;stroke-opacity:1"
           d="m 325.98451,1027.5599 a 7.0866199,7.0866199 0 0 1 -7.08662,7.0867 7.0866199,7.0866199 0 0 1 -7.08662,-7.0867 7.0866199,7.0866199 0 0 1 7.08662,-7.0866 7.0866199,7.0866199 0 0 1 7.08662,7.0866 z"
           id="circle6949" />
        <path
           style="fill:none;stroke:#000000;stroke-width:0.35433075;stroke-miterlimit:4;stroke-dasharray:none;stroke-opacity:1"
           d="m 304.72467,914.17395 a 21.259859,21.259859 0 0 1 -21.25986,21.25986 21.259859,21.259859 0 0 1 -21.25986,-21.25986 21.259859,21.259859 0 0 1 21.25986,-21.25986 21.259859,21.259859 0 0 1 21.25986,21.25986 z"
           id="circle6951" />
        <path
           style="fill:none;stroke:#000000;stroke-width:0.35433075;stroke-miterlimit:4;stroke-dasharray:none;stroke-opacity:1"
           d="m 0,177.1655 354.33099,0 0,0.35433 -354.33099,0 z"
           id="rect6953" />
        <path
           style="fill:none;stroke:#000000;stroke-width:0.35433075;stroke-miterlimit:4;stroke-dasharray:none;stroke-opacity:1"
           d="m 88.58275,17.71655 35.4331,0 0,-17.71655 35.4331,0 0,17.71655 35.4331,0 0,-17.71655 35.4331,0 0,17.71655 35.4331,0 0,-17.71655 44.29138,0 0,17.71655 26.57482,0 0,26.574825 17.71655,0 0,44.291375 -17.71655,0 0,35.4331 17.71655,0 0,35.4331 -17.71655,0 0,35.4331 17.71655,0 0,35.4331 -17.71655,0 0,35.4331 17.71655,0 0,35.4331 -17.71655,0 0,35.4331 17.71655,0 0,35.4331 -17.71655,0 0,35.4331 17.71655,0 0,35.4331 -17.71655,0 0,35.4331 17.71655,0 0,35.4331 -17.71655,0 0,35.4331 17.71655,0 0,35.4331 -17.71655,0 0,35.4331 17.71655,0 0,35.4331 -17.71655,0 0,35.4331 17.71655,0 0,35.4331 -17.71655,0 0,35.4331 17.71655,0 0,35.4331 -17.71655,0 0,35.4331 17.71655,0 0,35.4331 -17.71655,0 0,35.4331 17.71655,0 0,35.4331 -17.71655,0 0,35.4331 17.71655,0 0,44.29135 -17.71655,0 0,26.5748 -26.57482,0 0,17.7166 -44.29138,0 0,-17.7166 -35.4331,0 0,17.7166 -35.4331,0 0,-17.7166 -35.4331,0 0,17.7166 -35.4331,0 0,-17.7166 -35.4331,0 0,17.7166 -44.291375,0 0,-17.7166 -26.574825,0 0,-26.5748 -17.71655,0 0,-44.29135 17.71655,0 0,-35.4331 -17.71655,0 0,-35.4331 17.71655,0 0,-35.4331 -17.71655,0 0,-35.4331 17.71655,0 0,-35.4331 -17.71655,0 0,-35.4331 17.71655,0 0,-35.4331 -17.71655,0 0,-35.4331 17.71655,0 0,-35.4331 -17.71655,0 0,-35.4331 17.71655,0 0,-35.4331 -17.71655,0 0,-35.4331 17.71655,0 0,-35.4331 -17.71655,0 0,-35.4331 17.71655,0 0,-35.4331 -17.71655,0 0,-35.4331 17.71655,0 0,-35.4331 -17.71655,0 0,-35.4331 17.71655,0 0,-35.4331 -17.71655,0 0,-35.4331 17.71655,0 0,-35.4331 -17.71655,0 0,-35.4331 17.71655,0 0,-35.4331 -17.71655,0 0,-35.4331 17.71655,0 0,-35.4331 -17.71655,0 0,-44.291375 17.71655,0 0,-26.574825 26.574825,0 0,-17.71655 44.291375,0 z"
           id="polygon6955" />
      </g>
    </g>
  </g>
</svg>
