  0
SECTION
  2
HEADER
  9
$ACADVER
  1
AC1014
  9
$HANDSEED
  5
FFFF
  9
$MEASUREMENT
 70
     1
  0
ENDSEC
  0
SECTION
  2
TABLES
  0
TABLE
  2
VPORT
  5
8
330
0
100
AcDbSymbolTable
 70
     4
  0
VPORT
  5
2E
330
8
100
AcDbSymbolTableRecord
100
AcDbViewportTableRecord
  2
*ACTIVE
 70
     0
 10
0.0
 20
0.0
 11
1.0
 21
1.0
 12
210.0
 22
148.5
 13
0.0
 23
0.0
 14
10.0
 24
10.0
 15
10.0
 25
10.0
 16
0.0
 26
0.0
 36
1.0
 17
0.0
 27
0.0
 37
0.0
 40
341.0
 41
1.24
 42
50.0
 43
0.0
 44
0.0
 50
0.0
 51
0.0
 71
     0
 72
   100
 73
     1
 74
     3
 75
     0
 76
     0
 77
     0
 78
     0
  0
ENDTAB
  0
TABLE
  2
LTYPE
  5
5
330
0
100
AcDbSymbolTable
 70
     1
  0
LTYPE
  5
14
330
5
100
AcDbSymbolTableRecord
100
AcDbLinetypeTableRecord
  2
BYBLOCK
 70
     0
  3

 72
    65
 73
     0
 40
0.0
  0
LTYPE
  5
15
330
5
100
AcDbSymbolTableRecord
100
AcDbLinetypeTableRecord
  2
BYLAYER
 70
     0
  3

 72
    65
 73
     0
 40
0.0
  0
LTYPE
  5
16
330
5
100
AcDbSymbolTableRecord
100
AcDbLinetypeTableRecord
  2
CONTINUOUS
 70
     0
  3
Solid line
 72
    65
 73
     0
 40
0.0
  0
ENDTAB
  0
TABLE
  2
LAYER
  5
2
100
AcDbSymbolTable
 70
2
  0
LAYER
  5
50
100
AcDbSymbolTableRecord
100
AcDbLayerTableRecord
  2
0
 70
0
  6
CONTINUOUS
  0
LAYER
  5
51
100
AcDbSymbolTableRecord
100
AcDbLayerTableRecord
  2
Layer_1
 70
0
  6
CONTINUOUS
  0
ENDTAB
  0
TABLE
  2
STYLE
  5
3
330
0
100
AcDbSymbolTable
 70
     1
  0
STYLE
  5
11
330
3
100
AcDbSymbolTableRecord
100
AcDbTextStyleTableRecord
  2
STANDARD
 70
     0
 40
0.0
 41
1.0
 50
0.0
 71
     0
 42
2.5
  3
txt
  4

  0
ENDTAB
  0
TABLE
  2
VIEW
  5
6
330
0
100
AcDbSymbolTable
 70
     0
  0
ENDTAB
  0
TABLE
  2
UCS
  5
7
330
0
100
AcDbSymbolTable
 70
     0
  0
ENDTAB
  0
TABLE
  2
APPID
  5
9
330
0
100
AcDbSymbolTable
 70
     2
  0
APPID
  5
12
330
9
100
AcDbSymbolTableRecord
100
AcDbRegAppTableRecord
  2
ACAD
 70
     0
  0
ENDTAB
  0
TABLE
  2
DIMSTYLE
  5
A
330
0
100
AcDbSymbolTable
 70
     1
  0
DIMSTYLE
105
27
330
A
100
AcDbSymbolTableRecord
100
AcDbDimStyleTableRecord
  2
ISO-25
 70
     0
  3

  4

  5

  6

  7

 40
1.0
 41
2.5
 42
0.625
 43
3.75
 44
1.25
 45
0.0
 46
0.0
 47
0.0
 48
0.0
140
2.5
141
2.5
142
0.0
143
0.03937007874016
144
1.0
145
0.0
146
1.0
147
0.625
 71
     0
 72
     0
 73
     0
 74
     0
 75
     0
 76
     0
 77
     1
 78
     8
170
     0
171
     3
172
     1
173
     0
174
     0
175
     0
176
     0
177
     0
178
     0
270
     2
271
     2
272
     2
273
     2
274
     3
340
11
275
     0
280
     0
281
     0
282
     0
283
     0
284
     8
285
     0
286
     0
287
     3
288
     0
  0
ENDTAB
  0
TABLE
  2
BLOCK_RECORD
  5
1
330
0
100
AcDbSymbolTable
 70
     1
  0
BLOCK_RECORD
  5
1F
330
1
100
AcDbSymbolTableRecord
100
AcDbBlockTableRecord
  2
*MODEL_SPACE
  0
BLOCK_RECORD
  5
1B
330
1
100
AcDbSymbolTableRecord
100
AcDbBlockTableRecord
  2
*PAPER_SPACE
  0
ENDTAB
  0
ENDSEC
  0
SECTION
  2
BLOCKS
  0
BLOCK
  5
20
330
1F
100
AcDbEntity
  8
0
100
AcDbBlockBegin
  2
*MODEL_SPACE
 70
     0
 10
0.0
 20
0.0
 30
0.0
  3
*MODEL_SPACE
  1

  0
ENDBLK
  5
21
330
1F
100
AcDbEntity
  8
0
100
AcDbBlockEnd
  0
BLOCK
  5
1C
330
1B
100
AcDbEntity
 67
     1
  8
0
100
AcDbBlockBegin
  2
*PAPER_SPACE
  1

  0
ENDBLK
  5
1D
330
1B
100
AcDbEntity
 67
     1
  8
0
100
AcDbBlockEnd
  0
ENDSEC
  0
SECTION
  2
ENTITIES
  0
LWPOLYLINE
  5
100
100
AcDbEntity
  8
Layer_1
 62
7
100
AcDbPolyline
 90
2
 70
0
 10
0.000000
 20
295.000006
 30
0.0
 10
210.000001
 20
295.000006
 30
0.0
  0
LWPOLYLINE
  5
101
100
AcDbEntity
  8
Layer_1
 62
7
100
AcDbPolyline
 90
12
 70
0
 10
40.000039
 20
295.000191
 30
0.0
 10
40.000039
 20
290.000117
 30
0.0
 10
50.000188
 20
290.000117
 30
0.0
 10
50.000188
 20
245.000005
 30
0.0
 10
160.000157
 20
245.000005
 30
0.0
 10
160.000157
 20
290.000117
 30
0.0
 10
169.999753
 20
290.000117
 30
0.0
 10
169.999753
 20
295.000191
 30
0.0
 10
160.000157
 20
295.000191
 30
0.0
 10
50.000188
 20
295.000191
 30
0.0
 10
40.000039
 20
295.000191
 30
0.0
 10
40.000039
 20
295.000191
 30
0.0
  0
LWPOLYLINE
  5
102
100
AcDbEntity
  8
Layer_1
 62
7
100
AcDbPolyline
 90
2
 70
0
 10
0.000000
 20
0.000001
 30
0.0
 10
210.000001
 20
0.000001
 30
0.0
  0
LWPOLYLINE
  5
103
100
AcDbEntity
  8
Layer_1
 62
7
100
AcDbPolyline
 90
2
 70
0
 10
20.000000
 20
0.000001
 30
0.0
 10
20.000000
 20
5.000020
 30
0.0
  0
LWPOLYLINE
  5
104
100
AcDbEntity
  8
Layer_1
 62
7
100
AcDbPolyline
 90
2
 70
0
 10
39.999999
 20
5.000020
 30
0.0
 10
39.999999
 20
0.000001
 30
0.0
  0
LWPOLYLINE
  5
105
100
AcDbEntity
  8
Layer_1
 62
7
100
AcDbPolyline
 90
2
 70
0
 10
60.000001
 20
0.000001
 30
0.0
 10
60.000001
 20
5.000020
 30
0.0
  0
LWPOLYLINE
  5
106
100
AcDbEntity
  8
Layer_1
 62
7
100
AcDbPolyline
 90
2
 70
0
 10
80.000001
 20
5.000020
 30
0.0
 10
80.000001
 20
0.000001
 30
0.0
  0
LWPOLYLINE
  5
107
100
AcDbEntity
  8
Layer_1
 62
7
100
AcDbPolyline
 90
2
 70
0
 10
169.999999
 20
0.000001
 30
0.0
 10
169.999999
 20
5.000020
 30
0.0
  0
LWPOLYLINE
  5
108
100
AcDbEntity
  8
Layer_1
 62
7
100
AcDbPolyline
 90
2
 70
0
 10
149.999999
 20
0.000001
 30
0.0
 10
149.999999
 20
5.000020
 30
0.0
  0
LWPOLYLINE
  5
109
100
AcDbEntity
  8
Layer_1
 62
7
100
AcDbPolyline
 90
2
 70
0
 10
20.000000
 20
5.000020
 30
0.0
 10
0.000000
 20
5.000020
 30
0.0
  0
LWPOLYLINE
  5
10a
100
AcDbEntity
  8
Layer_1
 62
7
100
AcDbPolyline
 90
2
 70
0
 10
39.999999
 20
5.000020
 30
0.0
 10
60.000001
 20
5.000020
 30
0.0
  0
LWPOLYLINE
  5
10b
100
AcDbEntity
  8
Layer_1
 62
7
100
AcDbPolyline
 90
3
 70
0
 10
190.000001
 20
0.000001
 30
0.0
 10
190.000001
 20
5.000020
 30
0.0
 10
210.000001
 20
5.000020
 30
0.0
  0
LWPOLYLINE
  5
10c
100
AcDbEntity
  8
Layer_1
 62
7
100
AcDbPolyline
 90
2
 70
0
 10
0.000000
 20
5.000020
 30
0.0
 10
0.000000
 20
0.000001
 30
0.0
  0
LWPOLYLINE
  5
10d
100
AcDbEntity
  8
Layer_1
 62
7
100
AcDbPolyline
 90
2
 70
0
 10
169.999999
 20
5.000020
 30
0.0
 10
149.999999
 20
5.000020
 30
0.0
  0
LWPOLYLINE
  5
10e
100
AcDbEntity
  8
Layer_1
 62
7
100
AcDbPolyline
 90
2
 70
0
 10
130.000000
 20
0.000001
 30
0.0
 10
130.000000
 20
5.000020
 30
0.0
  0
LWPOLYLINE
  5
10f
100
AcDbEntity
  8
Layer_1
 62
7
100
AcDbPolyline
 90
2
 70
0
 10
210.000001
 20
5.000020
 30
0.0
 10
210.000001
 20
0.000001
 30
0.0
  0
LWPOLYLINE
  5
110
100
AcDbEntity
  8
Layer_1
 62
7
100
AcDbPolyline
 90
4
 70
0
 10
0.000000
 20
295.000006
 30
0.0
 10
0.000000
 20
290.000006
 30
0.0
 10
20.000000
 20
290.000006
 30
0.0
 10
20.000000
 20
295.000006
 30
0.0
  0
LWPOLYLINE
  5
111
100
AcDbEntity
  8
Layer_1
 62
7
100
AcDbPolyline
 90
4
 70
0
 10
210.000001
 20
295.000006
 30
0.0
 10
210.000001
 20
290.000006
 30
0.0
 10
190.000001
 20
290.000006
 30
0.0
 10
190.000001
 20
295.000006
 30
0.0
  0
LWPOLYLINE
  5
112
100
AcDbEntity
  8
Layer_1
 62
7
100
AcDbPolyline
 90
2
 70
0
 10
0.000000
 20
295.000006
 30
0.0
 10
0.000000
 20
5.000020
 30
0.0
  0
LWPOLYLINE
  5
113
100
AcDbEntity
  8
Layer_1
 62
7
100
AcDbPolyline
 90
2
 70
0
 10
210.000001
 20
5.000020
 30
0.0
 10
210.000001
 20
290.000006
 30
0.0
  0
LWPOLYLINE
  5
114
100
AcDbEntity
  8
Layer_1
 62
7
100
AcDbPolyline
 90
5
 70
1
 10
0.000000
 20
5.000020
 30
0.0
 10
20.000000
 20
5.000020
 30
0.0
 10
20.000000
 20
0.000001
 30
0.0
 10
0.000000
 20
0.000001
 30
0.0
 10
0.000000
 20
5.000020
 30
0.0
  0
LWPOLYLINE
  5
115
100
AcDbEntity
  8
Layer_1
 62
7
100
AcDbPolyline
 90
5
 70
1
 10
39.999999
 20
5.000020
 30
0.0
 10
60.000001
 20
5.000020
 30
0.0
 10
60.000001
 20
0.000001
 30
0.0
 10
39.999999
 20
0.000001
 30
0.0
 10
39.999999
 20
5.000020
 30
0.0
  0
SPLINE
  5
116
100
AcDbEntity
  8
Layer_1
 62
7
100
AcDbSpline
 70
0
 71
3
 72
10
 73
6
 74
4
 40
0.000000
 40
0.000000
 40
0.000000
 40
0.000000
 40
7.815728
 40
15.401010
 40
23.216738
 40
23.216738
 40
23.216738
 40
23.216738
 10
105.162505
 20
159.895674
 30
0.0
 10
102.543474
 20
159.485292
 30
0.0
 10
97.382635
 20
158.676627
 30
0.0
 10
91.424139
 20
152.747481
 30
0.0
 10
90.590002
 20
147.590697
 30
0.0
 10
90.166692
 20
144.973724
 30
0.0
 11
105.162505
 21
159.895674
 31
0.0
 11
97.616576
 21
157.859855
 31
0.0
 11
92.239746
 21
152.509509
 31
0.0
 11
90.166692
 21
144.973724
 31
0.0
  0
SPLINE
  5
117
100
AcDbEntity
  8
Layer_1
 62
7
100
AcDbSpline
 70
0
 71
3
 72
13
 73
9
 74
7
 40
0.000000
 40
0.000000
 40
0.000000
 40
0.000000
 40
36.237812
 40
103.536607
 40
139.774419
 40
139.814892
 40
139.855366
 40
139.895839
 40
139.895839
 40
139.895839
 40
139.895839
 10
120.156661
 20
4.999766
 30
0.0
 10
120.134044
 20
17.079638
 30
0.0
 10
120.069423
 20
51.593559
 30
0.0
 10
120.729941
 20
98.167460
 30
0.0
 10
119.514452
 20
132.725490
 30
0.0
 10
120.158814
 20
144.814601
 30
0.0
 10
120.160836
 20
144.855024
 30
0.0
 10
120.162096
 20
144.881976
 30
0.0
 10
120.162726
 20
144.895453
 30
0.0
 11
120.156661
 21
4.999766
 31
0.0
 11
120.156661
 21
41.237578
 31
0.0
 11
120.156661
 21
108.536372
 31
0.0
 11
120.156661
 21
144.774185
 31
0.0
 11
120.158792
 21
144.814602
 31
0.0
 11
120.160814
 21
144.855025
 31
0.0
 11
120.162726
 21
144.895453
 31
0.0
  0
LWPOLYLINE
  5
118
100
AcDbEntity
  8
Layer_1
 62
7
100
AcDbPolyline
 90
12
 70
0
 10
90.166692
 20
144.973724
 30
0.0
 10
90.037158
 20
144.973724
 30
0.0
 10
90.037158
 20
4.999766
 30
0.0
 10
80.000077
 20
4.999766
 30
0.0
 10
80.000077
 20
0.000255
 30
0.0
 10
90.037158
 20
0.000255
 30
0.0
 10
90.037158
 20
-0.103941
 30
0.0
 10
120.156661
 20
-0.103941
 30
0.0
 10
120.156661
 20
0.000255
 30
0.0
 10
130.000265
 20
0.000255
 30
0.0
 10
130.000265
 20
4.999766
 30
0.0
 10
120.156661
 20
4.999766
 30
0.0
  0
LWPOLYLINE
  5
119
100
AcDbEntity
  8
Layer_1
 62
7
100
AcDbPolyline
 90
2
 70
0
 10
105.162505
 20
159.895674
 30
0.0
 10
105.162505
 20
159.895674
 30
0.0
  0
LWPOLYLINE
  5
11a
100
AcDbEntity
  8
Layer_1
 62
7
100
AcDbPolyline
 90
5
 70
1
 10
149.999991
 20
5.000020
 30
0.0
 10
169.999990
 20
5.000020
 30
0.0
 10
169.999990
 20
0.000001
 30
0.0
 10
149.999991
 20
0.000001
 30
0.0
 10
149.999991
 20
5.000020
 30
0.0
  0
LWPOLYLINE
  5
11b
100
AcDbEntity
  8
Layer_1
 62
7
100
AcDbPolyline
 90
5
 70
1
 10
189.999995
 20
5.000020
 30
0.0
 10
209.999995
 20
5.000020
 30
0.0
 10
209.999995
 20
0.000001
 30
0.0
 10
189.999995
 20
0.000001
 30
0.0
 10
189.999995
 20
5.000020
 30
0.0
  0
LWPOLYLINE
  5
11c
100
AcDbEntity
  8
Layer_1
 62
7
100
AcDbPolyline
 90
5
 70
1
 10
0.000000
 20
280.141368
 30
0.0
 10
5.000000
 20
280.141368
 30
0.0
 10
5.000000
 20
260.141369
 30
0.0
 10
0.000000
 20
260.141369
 30
0.0
 10
0.000000
 20
280.141368
 30
0.0
  0
LWPOLYLINE
  5
11d
100
AcDbEntity
  8
Layer_1
 62
7
100
AcDbPolyline
 90
5
 70
1
 10
0.086142
 20
239.809309
 30
0.0
 10
5.086142
 20
239.809309
 30
0.0
 10
5.086142
 20
219.809310
 30
0.0
 10
0.086142
 20
219.809310
 30
0.0
 10
0.086142
 20
239.809309
 30
0.0
  0
LWPOLYLINE
  5
11e
100
AcDbEntity
  8
Layer_1
 62
7
100
AcDbPolyline
 90
5
 70
1
 10
205.029655
 20
279.923728
 30
0.0
 10
210.029656
 20
279.923728
 30
0.0
 10
210.029656
 20
259.923727
 30
0.0
 10
205.029655
 20
259.923727
 30
0.0
 10
205.029655
 20
279.923728
 30
0.0
  0
SPLINE
  5
11f
100
AcDbEntity
  8
Layer_1
 62
7
100
AcDbSpline
 70
0
 71
3
 72
13
 73
9
 74
7
 40
0.000000
 40
0.000000
 40
0.000000
 40
0.000000
 40
3.926697
 40
7.820898
 40
11.747595
 40
15.674292
 40
19.568493
 40
23.495190
 40
23.495190
 40
23.495190
 40
23.495190
 10
120.162726
 20
144.895453
 30
0.0
 10
120.062748
 20
146.208178
 30
0.0
 10
119.863620
 20
148.822764
 30
0.0
 10
118.289737
 20
152.480463
 30
0.0
 10
115.895200
 20
155.628148
 30
0.0
 10
112.747515
 20
158.022685
 30
0.0
 10
109.089816
 20
159.596567
 30
0.0
 10
106.475230
 20
159.795696
 30
0.0
 10
105.162505
 20
159.895674
 30
0.0
 11
120.162726
 21
144.895453
 31
0.0
 11
119.648857
 21
148.788381
 31
0.0
 11
118.158637
 21
152.386164
 31
0.0
 11
115.769328
 21
155.502276
 31
0.0
 11
112.653217
 21
157.891585
 31
0.0
 11
109.055433
 21
159.381804
 31
0.0
 11
105.162505
 21
159.895674
 31
0.0
  0
LWPOLYLINE
  5
120
100
AcDbEntity
  8
Layer_1
 62
7
100
AcDbPolyline
 90
5
 70
1
 10
205.089687
 20
239.984707
 30
0.0
 10
210.089688
 20
239.984707
 30
0.0
 10
210.089688
 20
219.984708
 30
0.0
 10
205.089687
 20
219.984708
 30
0.0
 10
205.089687
 20
239.984707
 30
0.0
  0
ENDSEC
  0
SECTION
  2
OBJECTS
  0
DICTIONARY
  5
C
330
0
100
AcDbDictionary
  3
ACAD_GROUP
350
D
  3
ACAD_MLINESTYLE
350
17
  0
DICTIONARY
  5
D
330
C
100
AcDbDictionary
  0
DICTIONARY
  5
1A
330
C
100
AcDbDictionary
  0
DICTIONARY
  5
17
330
C
100
AcDbDictionary
  3
STANDARD
350
18
  0
DICTIONARY
  5
19
330
C
100
AcDbDictionary
  0
ENDSEC
  0
EOF
