G75*
%MOIN*%
%OFA0B0*%
%FSLAX25Y25*%
%IPPOS*%
%LPD*%
%AMOC8*
5,1,8,0,0,1.08239X$1,22.5*
%
%ADD10C,0.00000*%
%ADD11C,0.00600*%
%ADD12C,0.00500*%
%ADD13C,0.00400*%
%ADD14C,0.00800*%
%ADD15C,0.02000*%
%ADD16C,0.00591*%
D10*
X0022861Y0024554D02*
X0022861Y0167861D01*
X0131129Y0167861D01*
X0131129Y0024554D01*
X0022861Y0024554D01*
X0044908Y0042664D02*
X0044910Y0042812D01*
X0044916Y0042960D01*
X0044926Y0043108D01*
X0044940Y0043255D01*
X0044958Y0043402D01*
X0044979Y0043548D01*
X0045005Y0043694D01*
X0045035Y0043839D01*
X0045068Y0043983D01*
X0045106Y0044126D01*
X0045147Y0044268D01*
X0045192Y0044409D01*
X0045240Y0044549D01*
X0045293Y0044688D01*
X0045349Y0044825D01*
X0045409Y0044960D01*
X0045472Y0045094D01*
X0045539Y0045226D01*
X0045610Y0045356D01*
X0045684Y0045484D01*
X0045761Y0045610D01*
X0045842Y0045734D01*
X0045926Y0045856D01*
X0046013Y0045975D01*
X0046104Y0046092D01*
X0046198Y0046207D01*
X0046294Y0046319D01*
X0046394Y0046429D01*
X0046496Y0046535D01*
X0046602Y0046639D01*
X0046710Y0046740D01*
X0046821Y0046838D01*
X0046934Y0046934D01*
X0047050Y0047026D01*
X0047168Y0047115D01*
X0047289Y0047200D01*
X0047412Y0047283D01*
X0047537Y0047362D01*
X0047664Y0047438D01*
X0047793Y0047510D01*
X0047924Y0047579D01*
X0048057Y0047644D01*
X0048192Y0047705D01*
X0048328Y0047763D01*
X0048465Y0047818D01*
X0048604Y0047868D01*
X0048745Y0047915D01*
X0048886Y0047958D01*
X0049029Y0047998D01*
X0049173Y0048033D01*
X0049317Y0048065D01*
X0049463Y0048092D01*
X0049609Y0048116D01*
X0049756Y0048136D01*
X0049903Y0048152D01*
X0050050Y0048164D01*
X0050198Y0048172D01*
X0050346Y0048176D01*
X0050494Y0048176D01*
X0050642Y0048172D01*
X0050790Y0048164D01*
X0050937Y0048152D01*
X0051084Y0048136D01*
X0051231Y0048116D01*
X0051377Y0048092D01*
X0051523Y0048065D01*
X0051667Y0048033D01*
X0051811Y0047998D01*
X0051954Y0047958D01*
X0052095Y0047915D01*
X0052236Y0047868D01*
X0052375Y0047818D01*
X0052512Y0047763D01*
X0052648Y0047705D01*
X0052783Y0047644D01*
X0052916Y0047579D01*
X0053047Y0047510D01*
X0053176Y0047438D01*
X0053303Y0047362D01*
X0053428Y0047283D01*
X0053551Y0047200D01*
X0053672Y0047115D01*
X0053790Y0047026D01*
X0053906Y0046934D01*
X0054019Y0046838D01*
X0054130Y0046740D01*
X0054238Y0046639D01*
X0054344Y0046535D01*
X0054446Y0046429D01*
X0054546Y0046319D01*
X0054642Y0046207D01*
X0054736Y0046092D01*
X0054827Y0045975D01*
X0054914Y0045856D01*
X0054998Y0045734D01*
X0055079Y0045610D01*
X0055156Y0045484D01*
X0055230Y0045356D01*
X0055301Y0045226D01*
X0055368Y0045094D01*
X0055431Y0044960D01*
X0055491Y0044825D01*
X0055547Y0044688D01*
X0055600Y0044549D01*
X0055648Y0044409D01*
X0055693Y0044268D01*
X0055734Y0044126D01*
X0055772Y0043983D01*
X0055805Y0043839D01*
X0055835Y0043694D01*
X0055861Y0043548D01*
X0055882Y0043402D01*
X0055900Y0043255D01*
X0055914Y0043108D01*
X0055924Y0042960D01*
X0055930Y0042812D01*
X0055932Y0042664D01*
X0055930Y0042516D01*
X0055924Y0042368D01*
X0055914Y0042220D01*
X0055900Y0042073D01*
X0055882Y0041926D01*
X0055861Y0041780D01*
X0055835Y0041634D01*
X0055805Y0041489D01*
X0055772Y0041345D01*
X0055734Y0041202D01*
X0055693Y0041060D01*
X0055648Y0040919D01*
X0055600Y0040779D01*
X0055547Y0040640D01*
X0055491Y0040503D01*
X0055431Y0040368D01*
X0055368Y0040234D01*
X0055301Y0040102D01*
X0055230Y0039972D01*
X0055156Y0039844D01*
X0055079Y0039718D01*
X0054998Y0039594D01*
X0054914Y0039472D01*
X0054827Y0039353D01*
X0054736Y0039236D01*
X0054642Y0039121D01*
X0054546Y0039009D01*
X0054446Y0038899D01*
X0054344Y0038793D01*
X0054238Y0038689D01*
X0054130Y0038588D01*
X0054019Y0038490D01*
X0053906Y0038394D01*
X0053790Y0038302D01*
X0053672Y0038213D01*
X0053551Y0038128D01*
X0053428Y0038045D01*
X0053303Y0037966D01*
X0053176Y0037890D01*
X0053047Y0037818D01*
X0052916Y0037749D01*
X0052783Y0037684D01*
X0052648Y0037623D01*
X0052512Y0037565D01*
X0052375Y0037510D01*
X0052236Y0037460D01*
X0052095Y0037413D01*
X0051954Y0037370D01*
X0051811Y0037330D01*
X0051667Y0037295D01*
X0051523Y0037263D01*
X0051377Y0037236D01*
X0051231Y0037212D01*
X0051084Y0037192D01*
X0050937Y0037176D01*
X0050790Y0037164D01*
X0050642Y0037156D01*
X0050494Y0037152D01*
X0050346Y0037152D01*
X0050198Y0037156D01*
X0050050Y0037164D01*
X0049903Y0037176D01*
X0049756Y0037192D01*
X0049609Y0037212D01*
X0049463Y0037236D01*
X0049317Y0037263D01*
X0049173Y0037295D01*
X0049029Y0037330D01*
X0048886Y0037370D01*
X0048745Y0037413D01*
X0048604Y0037460D01*
X0048465Y0037510D01*
X0048328Y0037565D01*
X0048192Y0037623D01*
X0048057Y0037684D01*
X0047924Y0037749D01*
X0047793Y0037818D01*
X0047664Y0037890D01*
X0047537Y0037966D01*
X0047412Y0038045D01*
X0047289Y0038128D01*
X0047168Y0038213D01*
X0047050Y0038302D01*
X0046934Y0038394D01*
X0046821Y0038490D01*
X0046710Y0038588D01*
X0046602Y0038689D01*
X0046496Y0038793D01*
X0046394Y0038899D01*
X0046294Y0039009D01*
X0046198Y0039121D01*
X0046104Y0039236D01*
X0046013Y0039353D01*
X0045926Y0039472D01*
X0045842Y0039594D01*
X0045761Y0039718D01*
X0045684Y0039844D01*
X0045610Y0039972D01*
X0045539Y0040102D01*
X0045472Y0040234D01*
X0045409Y0040368D01*
X0045349Y0040503D01*
X0045293Y0040640D01*
X0045240Y0040779D01*
X0045192Y0040919D01*
X0045147Y0041060D01*
X0045106Y0041202D01*
X0045068Y0041345D01*
X0045035Y0041489D01*
X0045005Y0041634D01*
X0044979Y0041780D01*
X0044958Y0041926D01*
X0044940Y0042073D01*
X0044926Y0042220D01*
X0044916Y0042368D01*
X0044910Y0042516D01*
X0044908Y0042664D01*
X0026178Y0067339D02*
X0026180Y0067470D01*
X0026186Y0067602D01*
X0026196Y0067733D01*
X0026210Y0067864D01*
X0026228Y0067994D01*
X0026250Y0068123D01*
X0026275Y0068252D01*
X0026305Y0068380D01*
X0026339Y0068507D01*
X0026376Y0068634D01*
X0026417Y0068758D01*
X0026462Y0068882D01*
X0026511Y0069004D01*
X0026563Y0069125D01*
X0026619Y0069243D01*
X0026679Y0069361D01*
X0026742Y0069476D01*
X0026809Y0069589D01*
X0026879Y0069701D01*
X0026952Y0069810D01*
X0027028Y0069916D01*
X0027108Y0070021D01*
X0027191Y0070123D01*
X0027277Y0070222D01*
X0027366Y0070319D01*
X0027458Y0070413D01*
X0027553Y0070504D01*
X0027650Y0070593D01*
X0027750Y0070678D01*
X0027853Y0070760D01*
X0027958Y0070839D01*
X0028065Y0070915D01*
X0028175Y0070987D01*
X0028287Y0071056D01*
X0028401Y0071122D01*
X0028516Y0071184D01*
X0028634Y0071243D01*
X0028753Y0071298D01*
X0028874Y0071350D01*
X0028997Y0071397D01*
X0029121Y0071441D01*
X0029246Y0071482D01*
X0029372Y0071518D01*
X0029500Y0071551D01*
X0029628Y0071579D01*
X0029757Y0071604D01*
X0029887Y0071625D01*
X0030017Y0071642D01*
X0030148Y0071655D01*
X0030279Y0071664D01*
X0030410Y0071669D01*
X0030542Y0071670D01*
X0030673Y0071667D01*
X0030805Y0071660D01*
X0030936Y0071649D01*
X0031066Y0071634D01*
X0031196Y0071615D01*
X0031326Y0071592D01*
X0031454Y0071566D01*
X0031582Y0071535D01*
X0031709Y0071500D01*
X0031835Y0071462D01*
X0031959Y0071420D01*
X0032083Y0071374D01*
X0032204Y0071324D01*
X0032324Y0071271D01*
X0032443Y0071214D01*
X0032560Y0071154D01*
X0032674Y0071090D01*
X0032787Y0071022D01*
X0032898Y0070951D01*
X0033007Y0070877D01*
X0033113Y0070800D01*
X0033217Y0070719D01*
X0033318Y0070636D01*
X0033417Y0070549D01*
X0033513Y0070459D01*
X0033606Y0070366D01*
X0033697Y0070271D01*
X0033784Y0070173D01*
X0033869Y0070072D01*
X0033950Y0069969D01*
X0034028Y0069863D01*
X0034103Y0069755D01*
X0034175Y0069645D01*
X0034243Y0069533D01*
X0034308Y0069419D01*
X0034369Y0069302D01*
X0034427Y0069184D01*
X0034481Y0069064D01*
X0034532Y0068943D01*
X0034579Y0068820D01*
X0034622Y0068696D01*
X0034661Y0068571D01*
X0034697Y0068444D01*
X0034728Y0068316D01*
X0034756Y0068188D01*
X0034780Y0068059D01*
X0034800Y0067929D01*
X0034816Y0067798D01*
X0034828Y0067667D01*
X0034836Y0067536D01*
X0034840Y0067405D01*
X0034840Y0067273D01*
X0034836Y0067142D01*
X0034828Y0067011D01*
X0034816Y0066880D01*
X0034800Y0066749D01*
X0034780Y0066619D01*
X0034756Y0066490D01*
X0034728Y0066362D01*
X0034697Y0066234D01*
X0034661Y0066107D01*
X0034622Y0065982D01*
X0034579Y0065858D01*
X0034532Y0065735D01*
X0034481Y0065614D01*
X0034427Y0065494D01*
X0034369Y0065376D01*
X0034308Y0065259D01*
X0034243Y0065145D01*
X0034175Y0065033D01*
X0034103Y0064923D01*
X0034028Y0064815D01*
X0033950Y0064709D01*
X0033869Y0064606D01*
X0033784Y0064505D01*
X0033697Y0064407D01*
X0033606Y0064312D01*
X0033513Y0064219D01*
X0033417Y0064129D01*
X0033318Y0064042D01*
X0033217Y0063959D01*
X0033113Y0063878D01*
X0033007Y0063801D01*
X0032898Y0063727D01*
X0032787Y0063656D01*
X0032675Y0063588D01*
X0032560Y0063524D01*
X0032443Y0063464D01*
X0032324Y0063407D01*
X0032204Y0063354D01*
X0032083Y0063304D01*
X0031959Y0063258D01*
X0031835Y0063216D01*
X0031709Y0063178D01*
X0031582Y0063143D01*
X0031454Y0063112D01*
X0031326Y0063086D01*
X0031196Y0063063D01*
X0031066Y0063044D01*
X0030936Y0063029D01*
X0030805Y0063018D01*
X0030673Y0063011D01*
X0030542Y0063008D01*
X0030410Y0063009D01*
X0030279Y0063014D01*
X0030148Y0063023D01*
X0030017Y0063036D01*
X0029887Y0063053D01*
X0029757Y0063074D01*
X0029628Y0063099D01*
X0029500Y0063127D01*
X0029372Y0063160D01*
X0029246Y0063196D01*
X0029121Y0063237D01*
X0028997Y0063281D01*
X0028874Y0063328D01*
X0028753Y0063380D01*
X0028634Y0063435D01*
X0028516Y0063494D01*
X0028401Y0063556D01*
X0028287Y0063622D01*
X0028175Y0063691D01*
X0028065Y0063763D01*
X0027958Y0063839D01*
X0027853Y0063918D01*
X0027750Y0064000D01*
X0027650Y0064085D01*
X0027553Y0064174D01*
X0027458Y0064265D01*
X0027366Y0064359D01*
X0027277Y0064456D01*
X0027191Y0064555D01*
X0027108Y0064657D01*
X0027028Y0064762D01*
X0026952Y0064868D01*
X0026879Y0064977D01*
X0026809Y0065089D01*
X0026742Y0065202D01*
X0026679Y0065317D01*
X0026619Y0065435D01*
X0026563Y0065553D01*
X0026511Y0065674D01*
X0026462Y0065796D01*
X0026417Y0065920D01*
X0026376Y0066044D01*
X0026339Y0066171D01*
X0026305Y0066298D01*
X0026275Y0066426D01*
X0026250Y0066555D01*
X0026228Y0066684D01*
X0026210Y0066814D01*
X0026196Y0066945D01*
X0026186Y0067076D01*
X0026180Y0067208D01*
X0026178Y0067339D01*
X0071483Y0145026D02*
X0071485Y0145174D01*
X0071491Y0145322D01*
X0071501Y0145470D01*
X0071515Y0145617D01*
X0071533Y0145764D01*
X0071554Y0145910D01*
X0071580Y0146056D01*
X0071610Y0146201D01*
X0071643Y0146345D01*
X0071681Y0146488D01*
X0071722Y0146630D01*
X0071767Y0146771D01*
X0071815Y0146911D01*
X0071868Y0147050D01*
X0071924Y0147187D01*
X0071984Y0147322D01*
X0072047Y0147456D01*
X0072114Y0147588D01*
X0072185Y0147718D01*
X0072259Y0147846D01*
X0072336Y0147972D01*
X0072417Y0148096D01*
X0072501Y0148218D01*
X0072588Y0148337D01*
X0072679Y0148454D01*
X0072773Y0148569D01*
X0072869Y0148681D01*
X0072969Y0148791D01*
X0073071Y0148897D01*
X0073177Y0149001D01*
X0073285Y0149102D01*
X0073396Y0149200D01*
X0073509Y0149296D01*
X0073625Y0149388D01*
X0073743Y0149477D01*
X0073864Y0149562D01*
X0073987Y0149645D01*
X0074112Y0149724D01*
X0074239Y0149800D01*
X0074368Y0149872D01*
X0074499Y0149941D01*
X0074632Y0150006D01*
X0074767Y0150067D01*
X0074903Y0150125D01*
X0075040Y0150180D01*
X0075179Y0150230D01*
X0075320Y0150277D01*
X0075461Y0150320D01*
X0075604Y0150360D01*
X0075748Y0150395D01*
X0075892Y0150427D01*
X0076038Y0150454D01*
X0076184Y0150478D01*
X0076331Y0150498D01*
X0076478Y0150514D01*
X0076625Y0150526D01*
X0076773Y0150534D01*
X0076921Y0150538D01*
X0077069Y0150538D01*
X0077217Y0150534D01*
X0077365Y0150526D01*
X0077512Y0150514D01*
X0077659Y0150498D01*
X0077806Y0150478D01*
X0077952Y0150454D01*
X0078098Y0150427D01*
X0078242Y0150395D01*
X0078386Y0150360D01*
X0078529Y0150320D01*
X0078670Y0150277D01*
X0078811Y0150230D01*
X0078950Y0150180D01*
X0079087Y0150125D01*
X0079223Y0150067D01*
X0079358Y0150006D01*
X0079491Y0149941D01*
X0079622Y0149872D01*
X0079751Y0149800D01*
X0079878Y0149724D01*
X0080003Y0149645D01*
X0080126Y0149562D01*
X0080247Y0149477D01*
X0080365Y0149388D01*
X0080481Y0149296D01*
X0080594Y0149200D01*
X0080705Y0149102D01*
X0080813Y0149001D01*
X0080919Y0148897D01*
X0081021Y0148791D01*
X0081121Y0148681D01*
X0081217Y0148569D01*
X0081311Y0148454D01*
X0081402Y0148337D01*
X0081489Y0148218D01*
X0081573Y0148096D01*
X0081654Y0147972D01*
X0081731Y0147846D01*
X0081805Y0147718D01*
X0081876Y0147588D01*
X0081943Y0147456D01*
X0082006Y0147322D01*
X0082066Y0147187D01*
X0082122Y0147050D01*
X0082175Y0146911D01*
X0082223Y0146771D01*
X0082268Y0146630D01*
X0082309Y0146488D01*
X0082347Y0146345D01*
X0082380Y0146201D01*
X0082410Y0146056D01*
X0082436Y0145910D01*
X0082457Y0145764D01*
X0082475Y0145617D01*
X0082489Y0145470D01*
X0082499Y0145322D01*
X0082505Y0145174D01*
X0082507Y0145026D01*
X0082505Y0144878D01*
X0082499Y0144730D01*
X0082489Y0144582D01*
X0082475Y0144435D01*
X0082457Y0144288D01*
X0082436Y0144142D01*
X0082410Y0143996D01*
X0082380Y0143851D01*
X0082347Y0143707D01*
X0082309Y0143564D01*
X0082268Y0143422D01*
X0082223Y0143281D01*
X0082175Y0143141D01*
X0082122Y0143002D01*
X0082066Y0142865D01*
X0082006Y0142730D01*
X0081943Y0142596D01*
X0081876Y0142464D01*
X0081805Y0142334D01*
X0081731Y0142206D01*
X0081654Y0142080D01*
X0081573Y0141956D01*
X0081489Y0141834D01*
X0081402Y0141715D01*
X0081311Y0141598D01*
X0081217Y0141483D01*
X0081121Y0141371D01*
X0081021Y0141261D01*
X0080919Y0141155D01*
X0080813Y0141051D01*
X0080705Y0140950D01*
X0080594Y0140852D01*
X0080481Y0140756D01*
X0080365Y0140664D01*
X0080247Y0140575D01*
X0080126Y0140490D01*
X0080003Y0140407D01*
X0079878Y0140328D01*
X0079751Y0140252D01*
X0079622Y0140180D01*
X0079491Y0140111D01*
X0079358Y0140046D01*
X0079223Y0139985D01*
X0079087Y0139927D01*
X0078950Y0139872D01*
X0078811Y0139822D01*
X0078670Y0139775D01*
X0078529Y0139732D01*
X0078386Y0139692D01*
X0078242Y0139657D01*
X0078098Y0139625D01*
X0077952Y0139598D01*
X0077806Y0139574D01*
X0077659Y0139554D01*
X0077512Y0139538D01*
X0077365Y0139526D01*
X0077217Y0139518D01*
X0077069Y0139514D01*
X0076921Y0139514D01*
X0076773Y0139518D01*
X0076625Y0139526D01*
X0076478Y0139538D01*
X0076331Y0139554D01*
X0076184Y0139574D01*
X0076038Y0139598D01*
X0075892Y0139625D01*
X0075748Y0139657D01*
X0075604Y0139692D01*
X0075461Y0139732D01*
X0075320Y0139775D01*
X0075179Y0139822D01*
X0075040Y0139872D01*
X0074903Y0139927D01*
X0074767Y0139985D01*
X0074632Y0140046D01*
X0074499Y0140111D01*
X0074368Y0140180D01*
X0074239Y0140252D01*
X0074112Y0140328D01*
X0073987Y0140407D01*
X0073864Y0140490D01*
X0073743Y0140575D01*
X0073625Y0140664D01*
X0073509Y0140756D01*
X0073396Y0140852D01*
X0073285Y0140950D01*
X0073177Y0141051D01*
X0073071Y0141155D01*
X0072969Y0141261D01*
X0072869Y0141371D01*
X0072773Y0141483D01*
X0072679Y0141598D01*
X0072588Y0141715D01*
X0072501Y0141834D01*
X0072417Y0141956D01*
X0072336Y0142080D01*
X0072259Y0142206D01*
X0072185Y0142334D01*
X0072114Y0142464D01*
X0072047Y0142596D01*
X0071984Y0142730D01*
X0071924Y0142865D01*
X0071868Y0143002D01*
X0071815Y0143141D01*
X0071767Y0143281D01*
X0071722Y0143422D01*
X0071681Y0143564D01*
X0071643Y0143707D01*
X0071610Y0143851D01*
X0071580Y0143996D01*
X0071554Y0144142D01*
X0071533Y0144288D01*
X0071515Y0144435D01*
X0071501Y0144582D01*
X0071491Y0144730D01*
X0071485Y0144878D01*
X0071483Y0145026D01*
X0026571Y0161040D02*
X0026573Y0161171D01*
X0026579Y0161303D01*
X0026589Y0161434D01*
X0026603Y0161565D01*
X0026621Y0161695D01*
X0026643Y0161824D01*
X0026668Y0161953D01*
X0026698Y0162081D01*
X0026732Y0162208D01*
X0026769Y0162335D01*
X0026810Y0162459D01*
X0026855Y0162583D01*
X0026904Y0162705D01*
X0026956Y0162826D01*
X0027012Y0162944D01*
X0027072Y0163062D01*
X0027135Y0163177D01*
X0027202Y0163290D01*
X0027272Y0163402D01*
X0027345Y0163511D01*
X0027421Y0163617D01*
X0027501Y0163722D01*
X0027584Y0163824D01*
X0027670Y0163923D01*
X0027759Y0164020D01*
X0027851Y0164114D01*
X0027946Y0164205D01*
X0028043Y0164294D01*
X0028143Y0164379D01*
X0028246Y0164461D01*
X0028351Y0164540D01*
X0028458Y0164616D01*
X0028568Y0164688D01*
X0028680Y0164757D01*
X0028794Y0164823D01*
X0028909Y0164885D01*
X0029027Y0164944D01*
X0029146Y0164999D01*
X0029267Y0165051D01*
X0029390Y0165098D01*
X0029514Y0165142D01*
X0029639Y0165183D01*
X0029765Y0165219D01*
X0029893Y0165252D01*
X0030021Y0165280D01*
X0030150Y0165305D01*
X0030280Y0165326D01*
X0030410Y0165343D01*
X0030541Y0165356D01*
X0030672Y0165365D01*
X0030803Y0165370D01*
X0030935Y0165371D01*
X0031066Y0165368D01*
X0031198Y0165361D01*
X0031329Y0165350D01*
X0031459Y0165335D01*
X0031589Y0165316D01*
X0031719Y0165293D01*
X0031847Y0165267D01*
X0031975Y0165236D01*
X0032102Y0165201D01*
X0032228Y0165163D01*
X0032352Y0165121D01*
X0032476Y0165075D01*
X0032597Y0165025D01*
X0032717Y0164972D01*
X0032836Y0164915D01*
X0032953Y0164855D01*
X0033067Y0164791D01*
X0033180Y0164723D01*
X0033291Y0164652D01*
X0033400Y0164578D01*
X0033506Y0164501D01*
X0033610Y0164420D01*
X0033711Y0164337D01*
X0033810Y0164250D01*
X0033906Y0164160D01*
X0033999Y0164067D01*
X0034090Y0163972D01*
X0034177Y0163874D01*
X0034262Y0163773D01*
X0034343Y0163670D01*
X0034421Y0163564D01*
X0034496Y0163456D01*
X0034568Y0163346D01*
X0034636Y0163234D01*
X0034701Y0163120D01*
X0034762Y0163003D01*
X0034820Y0162885D01*
X0034874Y0162765D01*
X0034925Y0162644D01*
X0034972Y0162521D01*
X0035015Y0162397D01*
X0035054Y0162272D01*
X0035090Y0162145D01*
X0035121Y0162017D01*
X0035149Y0161889D01*
X0035173Y0161760D01*
X0035193Y0161630D01*
X0035209Y0161499D01*
X0035221Y0161368D01*
X0035229Y0161237D01*
X0035233Y0161106D01*
X0035233Y0160974D01*
X0035229Y0160843D01*
X0035221Y0160712D01*
X0035209Y0160581D01*
X0035193Y0160450D01*
X0035173Y0160320D01*
X0035149Y0160191D01*
X0035121Y0160063D01*
X0035090Y0159935D01*
X0035054Y0159808D01*
X0035015Y0159683D01*
X0034972Y0159559D01*
X0034925Y0159436D01*
X0034874Y0159315D01*
X0034820Y0159195D01*
X0034762Y0159077D01*
X0034701Y0158960D01*
X0034636Y0158846D01*
X0034568Y0158734D01*
X0034496Y0158624D01*
X0034421Y0158516D01*
X0034343Y0158410D01*
X0034262Y0158307D01*
X0034177Y0158206D01*
X0034090Y0158108D01*
X0033999Y0158013D01*
X0033906Y0157920D01*
X0033810Y0157830D01*
X0033711Y0157743D01*
X0033610Y0157660D01*
X0033506Y0157579D01*
X0033400Y0157502D01*
X0033291Y0157428D01*
X0033180Y0157357D01*
X0033068Y0157289D01*
X0032953Y0157225D01*
X0032836Y0157165D01*
X0032717Y0157108D01*
X0032597Y0157055D01*
X0032476Y0157005D01*
X0032352Y0156959D01*
X0032228Y0156917D01*
X0032102Y0156879D01*
X0031975Y0156844D01*
X0031847Y0156813D01*
X0031719Y0156787D01*
X0031589Y0156764D01*
X0031459Y0156745D01*
X0031329Y0156730D01*
X0031198Y0156719D01*
X0031066Y0156712D01*
X0030935Y0156709D01*
X0030803Y0156710D01*
X0030672Y0156715D01*
X0030541Y0156724D01*
X0030410Y0156737D01*
X0030280Y0156754D01*
X0030150Y0156775D01*
X0030021Y0156800D01*
X0029893Y0156828D01*
X0029765Y0156861D01*
X0029639Y0156897D01*
X0029514Y0156938D01*
X0029390Y0156982D01*
X0029267Y0157029D01*
X0029146Y0157081D01*
X0029027Y0157136D01*
X0028909Y0157195D01*
X0028794Y0157257D01*
X0028680Y0157323D01*
X0028568Y0157392D01*
X0028458Y0157464D01*
X0028351Y0157540D01*
X0028246Y0157619D01*
X0028143Y0157701D01*
X0028043Y0157786D01*
X0027946Y0157875D01*
X0027851Y0157966D01*
X0027759Y0158060D01*
X0027670Y0158157D01*
X0027584Y0158256D01*
X0027501Y0158358D01*
X0027421Y0158463D01*
X0027345Y0158569D01*
X0027272Y0158678D01*
X0027202Y0158790D01*
X0027135Y0158903D01*
X0027072Y0159018D01*
X0027012Y0159136D01*
X0026956Y0159254D01*
X0026904Y0159375D01*
X0026855Y0159497D01*
X0026810Y0159621D01*
X0026769Y0159745D01*
X0026732Y0159872D01*
X0026698Y0159999D01*
X0026668Y0160127D01*
X0026643Y0160256D01*
X0026621Y0160385D01*
X0026603Y0160515D01*
X0026589Y0160646D01*
X0026579Y0160777D01*
X0026573Y0160909D01*
X0026571Y0161040D01*
X0118304Y0161040D02*
X0118306Y0161171D01*
X0118312Y0161303D01*
X0118322Y0161434D01*
X0118336Y0161565D01*
X0118354Y0161695D01*
X0118376Y0161824D01*
X0118401Y0161953D01*
X0118431Y0162081D01*
X0118465Y0162208D01*
X0118502Y0162335D01*
X0118543Y0162459D01*
X0118588Y0162583D01*
X0118637Y0162705D01*
X0118689Y0162826D01*
X0118745Y0162944D01*
X0118805Y0163062D01*
X0118868Y0163177D01*
X0118935Y0163290D01*
X0119005Y0163402D01*
X0119078Y0163511D01*
X0119154Y0163617D01*
X0119234Y0163722D01*
X0119317Y0163824D01*
X0119403Y0163923D01*
X0119492Y0164020D01*
X0119584Y0164114D01*
X0119679Y0164205D01*
X0119776Y0164294D01*
X0119876Y0164379D01*
X0119979Y0164461D01*
X0120084Y0164540D01*
X0120191Y0164616D01*
X0120301Y0164688D01*
X0120413Y0164757D01*
X0120527Y0164823D01*
X0120642Y0164885D01*
X0120760Y0164944D01*
X0120879Y0164999D01*
X0121000Y0165051D01*
X0121123Y0165098D01*
X0121247Y0165142D01*
X0121372Y0165183D01*
X0121498Y0165219D01*
X0121626Y0165252D01*
X0121754Y0165280D01*
X0121883Y0165305D01*
X0122013Y0165326D01*
X0122143Y0165343D01*
X0122274Y0165356D01*
X0122405Y0165365D01*
X0122536Y0165370D01*
X0122668Y0165371D01*
X0122799Y0165368D01*
X0122931Y0165361D01*
X0123062Y0165350D01*
X0123192Y0165335D01*
X0123322Y0165316D01*
X0123452Y0165293D01*
X0123580Y0165267D01*
X0123708Y0165236D01*
X0123835Y0165201D01*
X0123961Y0165163D01*
X0124085Y0165121D01*
X0124209Y0165075D01*
X0124330Y0165025D01*
X0124450Y0164972D01*
X0124569Y0164915D01*
X0124686Y0164855D01*
X0124800Y0164791D01*
X0124913Y0164723D01*
X0125024Y0164652D01*
X0125133Y0164578D01*
X0125239Y0164501D01*
X0125343Y0164420D01*
X0125444Y0164337D01*
X0125543Y0164250D01*
X0125639Y0164160D01*
X0125732Y0164067D01*
X0125823Y0163972D01*
X0125910Y0163874D01*
X0125995Y0163773D01*
X0126076Y0163670D01*
X0126154Y0163564D01*
X0126229Y0163456D01*
X0126301Y0163346D01*
X0126369Y0163234D01*
X0126434Y0163120D01*
X0126495Y0163003D01*
X0126553Y0162885D01*
X0126607Y0162765D01*
X0126658Y0162644D01*
X0126705Y0162521D01*
X0126748Y0162397D01*
X0126787Y0162272D01*
X0126823Y0162145D01*
X0126854Y0162017D01*
X0126882Y0161889D01*
X0126906Y0161760D01*
X0126926Y0161630D01*
X0126942Y0161499D01*
X0126954Y0161368D01*
X0126962Y0161237D01*
X0126966Y0161106D01*
X0126966Y0160974D01*
X0126962Y0160843D01*
X0126954Y0160712D01*
X0126942Y0160581D01*
X0126926Y0160450D01*
X0126906Y0160320D01*
X0126882Y0160191D01*
X0126854Y0160063D01*
X0126823Y0159935D01*
X0126787Y0159808D01*
X0126748Y0159683D01*
X0126705Y0159559D01*
X0126658Y0159436D01*
X0126607Y0159315D01*
X0126553Y0159195D01*
X0126495Y0159077D01*
X0126434Y0158960D01*
X0126369Y0158846D01*
X0126301Y0158734D01*
X0126229Y0158624D01*
X0126154Y0158516D01*
X0126076Y0158410D01*
X0125995Y0158307D01*
X0125910Y0158206D01*
X0125823Y0158108D01*
X0125732Y0158013D01*
X0125639Y0157920D01*
X0125543Y0157830D01*
X0125444Y0157743D01*
X0125343Y0157660D01*
X0125239Y0157579D01*
X0125133Y0157502D01*
X0125024Y0157428D01*
X0124913Y0157357D01*
X0124801Y0157289D01*
X0124686Y0157225D01*
X0124569Y0157165D01*
X0124450Y0157108D01*
X0124330Y0157055D01*
X0124209Y0157005D01*
X0124085Y0156959D01*
X0123961Y0156917D01*
X0123835Y0156879D01*
X0123708Y0156844D01*
X0123580Y0156813D01*
X0123452Y0156787D01*
X0123322Y0156764D01*
X0123192Y0156745D01*
X0123062Y0156730D01*
X0122931Y0156719D01*
X0122799Y0156712D01*
X0122668Y0156709D01*
X0122536Y0156710D01*
X0122405Y0156715D01*
X0122274Y0156724D01*
X0122143Y0156737D01*
X0122013Y0156754D01*
X0121883Y0156775D01*
X0121754Y0156800D01*
X0121626Y0156828D01*
X0121498Y0156861D01*
X0121372Y0156897D01*
X0121247Y0156938D01*
X0121123Y0156982D01*
X0121000Y0157029D01*
X0120879Y0157081D01*
X0120760Y0157136D01*
X0120642Y0157195D01*
X0120527Y0157257D01*
X0120413Y0157323D01*
X0120301Y0157392D01*
X0120191Y0157464D01*
X0120084Y0157540D01*
X0119979Y0157619D01*
X0119876Y0157701D01*
X0119776Y0157786D01*
X0119679Y0157875D01*
X0119584Y0157966D01*
X0119492Y0158060D01*
X0119403Y0158157D01*
X0119317Y0158256D01*
X0119234Y0158358D01*
X0119154Y0158463D01*
X0119078Y0158569D01*
X0119005Y0158678D01*
X0118935Y0158790D01*
X0118868Y0158903D01*
X0118805Y0159018D01*
X0118745Y0159136D01*
X0118689Y0159254D01*
X0118637Y0159375D01*
X0118588Y0159497D01*
X0118543Y0159621D01*
X0118502Y0159745D01*
X0118465Y0159872D01*
X0118431Y0159999D01*
X0118401Y0160127D01*
X0118376Y0160256D01*
X0118354Y0160385D01*
X0118336Y0160515D01*
X0118322Y0160646D01*
X0118312Y0160777D01*
X0118306Y0160909D01*
X0118304Y0161040D01*
X0117910Y0067339D02*
X0117912Y0067470D01*
X0117918Y0067602D01*
X0117928Y0067733D01*
X0117942Y0067864D01*
X0117960Y0067994D01*
X0117982Y0068123D01*
X0118007Y0068252D01*
X0118037Y0068380D01*
X0118071Y0068507D01*
X0118108Y0068634D01*
X0118149Y0068758D01*
X0118194Y0068882D01*
X0118243Y0069004D01*
X0118295Y0069125D01*
X0118351Y0069243D01*
X0118411Y0069361D01*
X0118474Y0069476D01*
X0118541Y0069589D01*
X0118611Y0069701D01*
X0118684Y0069810D01*
X0118760Y0069916D01*
X0118840Y0070021D01*
X0118923Y0070123D01*
X0119009Y0070222D01*
X0119098Y0070319D01*
X0119190Y0070413D01*
X0119285Y0070504D01*
X0119382Y0070593D01*
X0119482Y0070678D01*
X0119585Y0070760D01*
X0119690Y0070839D01*
X0119797Y0070915D01*
X0119907Y0070987D01*
X0120019Y0071056D01*
X0120133Y0071122D01*
X0120248Y0071184D01*
X0120366Y0071243D01*
X0120485Y0071298D01*
X0120606Y0071350D01*
X0120729Y0071397D01*
X0120853Y0071441D01*
X0120978Y0071482D01*
X0121104Y0071518D01*
X0121232Y0071551D01*
X0121360Y0071579D01*
X0121489Y0071604D01*
X0121619Y0071625D01*
X0121749Y0071642D01*
X0121880Y0071655D01*
X0122011Y0071664D01*
X0122142Y0071669D01*
X0122274Y0071670D01*
X0122405Y0071667D01*
X0122537Y0071660D01*
X0122668Y0071649D01*
X0122798Y0071634D01*
X0122928Y0071615D01*
X0123058Y0071592D01*
X0123186Y0071566D01*
X0123314Y0071535D01*
X0123441Y0071500D01*
X0123567Y0071462D01*
X0123691Y0071420D01*
X0123815Y0071374D01*
X0123936Y0071324D01*
X0124056Y0071271D01*
X0124175Y0071214D01*
X0124292Y0071154D01*
X0124406Y0071090D01*
X0124519Y0071022D01*
X0124630Y0070951D01*
X0124739Y0070877D01*
X0124845Y0070800D01*
X0124949Y0070719D01*
X0125050Y0070636D01*
X0125149Y0070549D01*
X0125245Y0070459D01*
X0125338Y0070366D01*
X0125429Y0070271D01*
X0125516Y0070173D01*
X0125601Y0070072D01*
X0125682Y0069969D01*
X0125760Y0069863D01*
X0125835Y0069755D01*
X0125907Y0069645D01*
X0125975Y0069533D01*
X0126040Y0069419D01*
X0126101Y0069302D01*
X0126159Y0069184D01*
X0126213Y0069064D01*
X0126264Y0068943D01*
X0126311Y0068820D01*
X0126354Y0068696D01*
X0126393Y0068571D01*
X0126429Y0068444D01*
X0126460Y0068316D01*
X0126488Y0068188D01*
X0126512Y0068059D01*
X0126532Y0067929D01*
X0126548Y0067798D01*
X0126560Y0067667D01*
X0126568Y0067536D01*
X0126572Y0067405D01*
X0126572Y0067273D01*
X0126568Y0067142D01*
X0126560Y0067011D01*
X0126548Y0066880D01*
X0126532Y0066749D01*
X0126512Y0066619D01*
X0126488Y0066490D01*
X0126460Y0066362D01*
X0126429Y0066234D01*
X0126393Y0066107D01*
X0126354Y0065982D01*
X0126311Y0065858D01*
X0126264Y0065735D01*
X0126213Y0065614D01*
X0126159Y0065494D01*
X0126101Y0065376D01*
X0126040Y0065259D01*
X0125975Y0065145D01*
X0125907Y0065033D01*
X0125835Y0064923D01*
X0125760Y0064815D01*
X0125682Y0064709D01*
X0125601Y0064606D01*
X0125516Y0064505D01*
X0125429Y0064407D01*
X0125338Y0064312D01*
X0125245Y0064219D01*
X0125149Y0064129D01*
X0125050Y0064042D01*
X0124949Y0063959D01*
X0124845Y0063878D01*
X0124739Y0063801D01*
X0124630Y0063727D01*
X0124519Y0063656D01*
X0124407Y0063588D01*
X0124292Y0063524D01*
X0124175Y0063464D01*
X0124056Y0063407D01*
X0123936Y0063354D01*
X0123815Y0063304D01*
X0123691Y0063258D01*
X0123567Y0063216D01*
X0123441Y0063178D01*
X0123314Y0063143D01*
X0123186Y0063112D01*
X0123058Y0063086D01*
X0122928Y0063063D01*
X0122798Y0063044D01*
X0122668Y0063029D01*
X0122537Y0063018D01*
X0122405Y0063011D01*
X0122274Y0063008D01*
X0122142Y0063009D01*
X0122011Y0063014D01*
X0121880Y0063023D01*
X0121749Y0063036D01*
X0121619Y0063053D01*
X0121489Y0063074D01*
X0121360Y0063099D01*
X0121232Y0063127D01*
X0121104Y0063160D01*
X0120978Y0063196D01*
X0120853Y0063237D01*
X0120729Y0063281D01*
X0120606Y0063328D01*
X0120485Y0063380D01*
X0120366Y0063435D01*
X0120248Y0063494D01*
X0120133Y0063556D01*
X0120019Y0063622D01*
X0119907Y0063691D01*
X0119797Y0063763D01*
X0119690Y0063839D01*
X0119585Y0063918D01*
X0119482Y0064000D01*
X0119382Y0064085D01*
X0119285Y0064174D01*
X0119190Y0064265D01*
X0119098Y0064359D01*
X0119009Y0064456D01*
X0118923Y0064555D01*
X0118840Y0064657D01*
X0118760Y0064762D01*
X0118684Y0064868D01*
X0118611Y0064977D01*
X0118541Y0065089D01*
X0118474Y0065202D01*
X0118411Y0065317D01*
X0118351Y0065435D01*
X0118295Y0065553D01*
X0118243Y0065674D01*
X0118194Y0065796D01*
X0118149Y0065920D01*
X0118108Y0066044D01*
X0118071Y0066171D01*
X0118037Y0066298D01*
X0118007Y0066426D01*
X0117982Y0066555D01*
X0117960Y0066684D01*
X0117942Y0066814D01*
X0117928Y0066945D01*
X0117918Y0067076D01*
X0117912Y0067208D01*
X0117910Y0067339D01*
D11*
X0093140Y0058069D02*
X0090872Y0058069D01*
X0089738Y0056935D01*
X0090872Y0055801D01*
X0093140Y0055801D01*
X0092573Y0054386D02*
X0090305Y0054386D01*
X0089738Y0053819D01*
X0089738Y0052117D01*
X0093140Y0052117D01*
X0093140Y0053819D01*
X0092573Y0054386D01*
X0091439Y0055801D02*
X0091439Y0058069D01*
X0092006Y0050703D02*
X0092573Y0050703D01*
X0093140Y0050136D01*
X0093140Y0049001D01*
X0092573Y0048434D01*
X0091439Y0049001D02*
X0091439Y0050136D01*
X0092006Y0050703D01*
X0090305Y0050703D02*
X0089738Y0050136D01*
X0089738Y0049001D01*
X0090305Y0048434D01*
X0090872Y0048434D01*
X0091439Y0049001D01*
X0082840Y0050001D02*
X0082273Y0049434D01*
X0082840Y0050001D02*
X0082840Y0051136D01*
X0082273Y0051703D01*
X0081706Y0051703D01*
X0081139Y0051136D01*
X0081139Y0050001D01*
X0080572Y0049434D01*
X0080005Y0049434D01*
X0079438Y0050001D01*
X0079438Y0051136D01*
X0080005Y0051703D01*
X0080005Y0053117D02*
X0082273Y0053117D01*
X0082840Y0053685D01*
X0082840Y0054819D01*
X0082273Y0055386D01*
X0082840Y0056801D02*
X0082840Y0059069D01*
X0082840Y0056801D02*
X0079438Y0056801D01*
X0080005Y0055386D02*
X0079438Y0054819D01*
X0079438Y0053685D01*
X0080005Y0053117D01*
X0073340Y0052824D02*
X0072773Y0052257D01*
X0073340Y0052824D02*
X0073340Y0053959D01*
X0072773Y0054526D01*
X0072206Y0054526D01*
X0071639Y0053959D01*
X0071639Y0053392D01*
X0071639Y0053959D02*
X0071072Y0054526D01*
X0070505Y0054526D01*
X0069938Y0053959D01*
X0069938Y0052824D01*
X0070505Y0052257D01*
X0071072Y0050843D02*
X0073340Y0049708D01*
X0071072Y0048574D01*
X0071072Y0047160D02*
X0071639Y0046592D01*
X0072206Y0047160D01*
X0072773Y0047160D01*
X0073340Y0046592D01*
X0073340Y0045458D01*
X0072773Y0044891D01*
X0071639Y0046025D02*
X0071639Y0046592D01*
X0071072Y0047160D02*
X0070505Y0047160D01*
X0069938Y0046592D01*
X0069938Y0045458D01*
X0070505Y0044891D01*
X0063740Y0048401D02*
X0063740Y0049536D01*
X0063173Y0050103D01*
X0062039Y0050103D01*
X0062039Y0048969D01*
X0060905Y0050103D02*
X0060338Y0049536D01*
X0060338Y0048401D01*
X0060905Y0047834D01*
X0063173Y0047834D01*
X0063740Y0048401D01*
X0063740Y0051517D02*
X0060338Y0051517D01*
X0063740Y0053786D01*
X0060338Y0053786D01*
X0060338Y0055201D02*
X0060338Y0056902D01*
X0060905Y0057469D01*
X0063173Y0057469D01*
X0063740Y0056902D01*
X0063740Y0055201D01*
X0060338Y0055201D01*
X0037348Y0078003D02*
X0037915Y0078571D01*
X0037915Y0079705D01*
X0037348Y0080272D01*
X0036781Y0080272D01*
X0036214Y0079705D01*
X0036214Y0078571D01*
X0035647Y0078003D01*
X0035079Y0078003D01*
X0034512Y0078571D01*
X0034512Y0079705D01*
X0035079Y0080272D01*
X0036214Y0081687D02*
X0035647Y0082254D01*
X0035647Y0083388D01*
X0036214Y0083955D01*
X0036781Y0083955D01*
X0036781Y0081687D01*
X0037348Y0081687D02*
X0036214Y0081687D01*
X0037348Y0081687D02*
X0037915Y0082254D01*
X0037915Y0083388D01*
X0037915Y0085370D02*
X0035647Y0085370D01*
X0035647Y0087071D01*
X0036214Y0087638D01*
X0037915Y0087638D01*
X0037915Y0089053D02*
X0037915Y0090754D01*
X0037348Y0091321D01*
X0036781Y0090754D01*
X0036781Y0089620D01*
X0036214Y0089053D01*
X0035647Y0089620D01*
X0035647Y0091321D01*
X0036214Y0092736D02*
X0035647Y0093303D01*
X0035647Y0094437D01*
X0036214Y0095005D01*
X0037348Y0095005D01*
X0037915Y0094437D01*
X0037915Y0093303D01*
X0037348Y0092736D01*
X0036214Y0092736D01*
X0036781Y0096419D02*
X0035647Y0097553D01*
X0035647Y0098121D01*
X0035647Y0096419D02*
X0037915Y0096419D01*
X0037915Y0103172D02*
X0034512Y0105440D01*
X0031915Y0108036D02*
X0031348Y0107469D01*
X0031915Y0108036D02*
X0031915Y0109170D01*
X0031348Y0109737D01*
X0030781Y0109737D01*
X0030214Y0109170D01*
X0030214Y0108036D01*
X0029647Y0107469D01*
X0029079Y0107469D01*
X0028512Y0108036D01*
X0028512Y0109170D01*
X0029079Y0109737D01*
X0029647Y0111152D02*
X0029647Y0112286D01*
X0029079Y0111719D02*
X0031348Y0111719D01*
X0031915Y0112286D01*
X0031348Y0113607D02*
X0030214Y0113607D01*
X0029647Y0114174D01*
X0029647Y0115309D01*
X0030214Y0115876D01*
X0031348Y0115876D01*
X0031915Y0115309D01*
X0031915Y0114174D01*
X0031348Y0113607D01*
X0033945Y0114788D02*
X0034512Y0114788D01*
X0035647Y0114788D02*
X0037915Y0114788D01*
X0037915Y0114221D02*
X0037915Y0115355D01*
X0037915Y0116676D02*
X0037915Y0118378D01*
X0037348Y0118945D01*
X0036781Y0118378D01*
X0036781Y0117244D01*
X0036214Y0116676D01*
X0035647Y0117244D01*
X0035647Y0118945D01*
X0035647Y0120360D02*
X0035647Y0122061D01*
X0036214Y0122628D01*
X0037348Y0122628D01*
X0037915Y0122061D01*
X0037915Y0120360D01*
X0039050Y0120360D02*
X0035647Y0120360D01*
X0031915Y0120927D02*
X0031348Y0120360D01*
X0030781Y0120927D01*
X0030781Y0122628D01*
X0030214Y0122628D02*
X0031915Y0122628D01*
X0031915Y0120927D01*
X0029647Y0120927D02*
X0029647Y0122061D01*
X0030214Y0122628D01*
X0030214Y0124043D02*
X0031348Y0124043D01*
X0031915Y0124610D01*
X0031915Y0126311D01*
X0032482Y0126311D02*
X0029647Y0126311D01*
X0029647Y0124610D01*
X0030214Y0124043D01*
X0032482Y0126311D02*
X0033050Y0125744D01*
X0033050Y0125177D01*
X0034512Y0124610D02*
X0037915Y0124610D01*
X0037915Y0124043D02*
X0037915Y0125177D01*
X0037348Y0126498D02*
X0036781Y0127065D01*
X0036781Y0128767D01*
X0036214Y0128767D02*
X0037915Y0128767D01*
X0037915Y0127065D01*
X0037348Y0126498D01*
X0035647Y0127065D02*
X0035647Y0128200D01*
X0036214Y0128767D01*
X0035647Y0130181D02*
X0037348Y0130181D01*
X0037915Y0130748D01*
X0037915Y0132450D01*
X0038482Y0132450D02*
X0039050Y0131883D01*
X0039050Y0131316D01*
X0038482Y0132450D02*
X0035647Y0132450D01*
X0031915Y0135092D02*
X0031915Y0136794D01*
X0031348Y0137361D01*
X0030781Y0137361D01*
X0030214Y0136794D01*
X0030214Y0135092D01*
X0031915Y0135092D02*
X0028512Y0135092D01*
X0028512Y0136794D01*
X0029079Y0137361D01*
X0029647Y0137361D01*
X0030214Y0136794D01*
X0030214Y0138775D02*
X0031348Y0138775D01*
X0031915Y0139342D01*
X0031915Y0140477D01*
X0031348Y0141044D01*
X0030214Y0141044D01*
X0029647Y0140477D01*
X0029647Y0139342D01*
X0030214Y0138775D01*
X0029647Y0142458D02*
X0031915Y0144727D01*
X0029647Y0144727D02*
X0031915Y0142458D01*
X0035647Y0142932D02*
X0035647Y0141798D01*
X0036214Y0141231D01*
X0037348Y0141231D01*
X0037915Y0141798D01*
X0037915Y0142932D01*
X0037348Y0143499D01*
X0036214Y0143499D01*
X0035647Y0142932D01*
X0035647Y0145481D02*
X0035647Y0146615D01*
X0036214Y0147182D01*
X0037915Y0147182D01*
X0037915Y0145481D01*
X0037348Y0144914D01*
X0036781Y0145481D01*
X0036781Y0147182D01*
X0036781Y0148597D02*
X0035647Y0149731D01*
X0035647Y0150298D01*
X0036214Y0151666D02*
X0035647Y0152233D01*
X0035647Y0153935D01*
X0034512Y0153935D02*
X0037915Y0153935D01*
X0037915Y0152233D01*
X0037348Y0151666D01*
X0036214Y0151666D01*
X0035647Y0148597D02*
X0037915Y0148597D01*
X0037348Y0139816D02*
X0037915Y0139249D01*
X0037915Y0137548D01*
X0034512Y0137548D01*
X0034512Y0139249D01*
X0035079Y0139816D01*
X0035647Y0139816D01*
X0036214Y0139249D01*
X0036214Y0137548D01*
X0036214Y0139249D02*
X0036781Y0139816D01*
X0037348Y0139816D01*
X0031915Y0129427D02*
X0031915Y0128293D01*
X0031348Y0127726D01*
X0030214Y0127726D01*
X0029647Y0128293D01*
X0029647Y0129427D01*
X0030214Y0129994D01*
X0030781Y0129994D01*
X0030781Y0127726D01*
X0034512Y0124610D02*
X0034512Y0124043D01*
X0029647Y0118992D02*
X0029647Y0118425D01*
X0030781Y0117290D01*
X0031915Y0117290D02*
X0029647Y0117290D01*
X0035647Y0114788D02*
X0035647Y0114221D01*
X0035079Y0112806D02*
X0034512Y0112239D01*
X0034512Y0110538D01*
X0037915Y0110538D01*
X0037915Y0112239D01*
X0037348Y0112806D01*
X0035079Y0112806D01*
X0045268Y0109805D02*
X0045835Y0109805D01*
X0046969Y0109805D02*
X0049238Y0109805D01*
X0049238Y0109238D02*
X0049238Y0110372D01*
X0049238Y0111693D02*
X0049238Y0113395D01*
X0048671Y0113962D01*
X0048104Y0113395D01*
X0048104Y0112260D01*
X0047537Y0111693D01*
X0046969Y0112260D01*
X0046969Y0113962D01*
X0047537Y0115376D02*
X0048671Y0115376D01*
X0049238Y0115943D01*
X0049238Y0117078D01*
X0048671Y0117645D01*
X0047537Y0117645D01*
X0046969Y0117078D01*
X0046969Y0115943D01*
X0047537Y0115376D01*
X0046969Y0119059D02*
X0046969Y0120761D01*
X0047537Y0121328D01*
X0049238Y0121328D01*
X0049238Y0119059D02*
X0046969Y0119059D01*
X0051835Y0120240D02*
X0052402Y0119673D01*
X0054671Y0119673D01*
X0052402Y0121942D01*
X0054671Y0121942D01*
X0055238Y0121375D01*
X0055238Y0120240D01*
X0054671Y0119673D01*
X0055238Y0118259D02*
X0055238Y0115990D01*
X0052969Y0118259D01*
X0052402Y0118259D01*
X0051835Y0117692D01*
X0051835Y0116557D01*
X0052402Y0115990D01*
X0051835Y0120240D02*
X0051835Y0121375D01*
X0052402Y0121942D01*
X0052969Y0123356D02*
X0051835Y0124491D01*
X0055238Y0124491D01*
X0055238Y0125625D02*
X0055238Y0123356D01*
X0054671Y0127040D02*
X0055238Y0127607D01*
X0055238Y0128741D01*
X0054671Y0129308D01*
X0052402Y0129308D01*
X0051835Y0128741D01*
X0051835Y0127607D01*
X0052402Y0127040D01*
X0052969Y0127040D01*
X0053537Y0127607D01*
X0053537Y0129308D01*
X0053537Y0110892D02*
X0052969Y0110325D01*
X0052969Y0108624D01*
X0051835Y0108624D02*
X0055238Y0108624D01*
X0055238Y0110325D01*
X0054671Y0110892D01*
X0053537Y0110892D01*
X0053537Y0107209D02*
X0052969Y0106642D01*
X0052969Y0105508D01*
X0053537Y0104941D01*
X0054671Y0104941D01*
X0055238Y0105508D01*
X0055238Y0106642D01*
X0054104Y0107209D02*
X0054104Y0104941D01*
X0054104Y0107209D02*
X0053537Y0107209D01*
X0051835Y0103526D02*
X0051835Y0101258D01*
X0055238Y0101258D01*
X0053537Y0101258D02*
X0053537Y0102392D01*
X0049238Y0103099D02*
X0046969Y0103099D01*
X0046969Y0104233D02*
X0046969Y0104801D01*
X0046969Y0104233D02*
X0048104Y0103099D01*
X0048104Y0101685D02*
X0048104Y0099983D01*
X0048671Y0099416D01*
X0049238Y0099983D01*
X0049238Y0101685D01*
X0047537Y0101685D01*
X0046969Y0101117D01*
X0046969Y0099983D01*
X0047537Y0098001D02*
X0047537Y0095733D01*
X0049238Y0095733D02*
X0045835Y0095733D01*
X0045835Y0098001D02*
X0049238Y0098001D01*
X0051835Y0096160D02*
X0052402Y0095026D01*
X0053537Y0093891D01*
X0053537Y0095593D01*
X0054104Y0096160D01*
X0054671Y0096160D01*
X0055238Y0095593D01*
X0055238Y0094458D01*
X0054671Y0093891D01*
X0053537Y0093891D01*
X0055238Y0092477D02*
X0055238Y0090208D01*
X0055238Y0091342D02*
X0051835Y0091342D01*
X0052969Y0090208D01*
X0049238Y0090775D02*
X0048671Y0090208D01*
X0049238Y0090775D02*
X0049238Y0091910D01*
X0048671Y0092477D01*
X0048104Y0092477D01*
X0047537Y0091910D01*
X0047537Y0090775D01*
X0046969Y0090208D01*
X0046402Y0090208D01*
X0045835Y0090775D01*
X0045835Y0091910D01*
X0046402Y0092477D01*
X0048671Y0093891D02*
X0048671Y0094458D01*
X0049238Y0094458D01*
X0049238Y0093891D01*
X0048671Y0093891D01*
X0049238Y0106168D02*
X0046969Y0106168D01*
X0046969Y0107303D02*
X0046969Y0107870D01*
X0046969Y0107303D02*
X0048104Y0106168D01*
X0046969Y0109238D02*
X0046969Y0109805D01*
X0031915Y0102464D02*
X0031348Y0101897D01*
X0029079Y0101897D01*
X0029647Y0101330D02*
X0029647Y0102464D01*
X0030214Y0099915D02*
X0031915Y0099915D01*
X0030214Y0099915D02*
X0029647Y0099348D01*
X0029647Y0097647D01*
X0031915Y0097647D01*
X0030781Y0096232D02*
X0030781Y0093964D01*
X0031348Y0093964D02*
X0030214Y0093964D01*
X0029647Y0094531D01*
X0029647Y0095665D01*
X0030214Y0096232D01*
X0030781Y0096232D01*
X0031915Y0095665D02*
X0031915Y0094531D01*
X0031348Y0093964D01*
X0031915Y0092549D02*
X0030214Y0092549D01*
X0029647Y0091982D01*
X0030214Y0091415D01*
X0031915Y0091415D01*
X0031915Y0090281D02*
X0029647Y0090281D01*
X0029647Y0090848D01*
X0030214Y0091415D01*
X0030214Y0088866D02*
X0031915Y0088866D01*
X0031915Y0087165D01*
X0031348Y0086597D01*
X0030781Y0087165D01*
X0030781Y0088866D01*
X0030214Y0088866D02*
X0029647Y0088299D01*
X0029647Y0087165D01*
X0028512Y0084709D02*
X0031915Y0084709D01*
X0031915Y0084142D02*
X0031915Y0085276D01*
X0031915Y0082821D02*
X0031915Y0081687D01*
X0031915Y0082254D02*
X0029647Y0082254D01*
X0029647Y0081687D01*
X0028512Y0082254D02*
X0027945Y0082254D01*
X0028512Y0084142D02*
X0028512Y0084709D01*
X0028512Y0080272D02*
X0028512Y0078003D01*
X0031915Y0078003D01*
X0030214Y0078003D02*
X0030214Y0079138D01*
D12*
X0052926Y0072374D02*
X0053243Y0072374D01*
X0053877Y0071740D01*
X0054827Y0071740D01*
X0053877Y0071740D02*
X0053243Y0071106D01*
X0052926Y0071106D01*
X0053560Y0070164D02*
X0052926Y0069530D01*
X0053560Y0068896D01*
X0054827Y0068896D01*
X0054827Y0067954D02*
X0054827Y0066686D01*
X0052926Y0066686D01*
X0053243Y0065744D02*
X0052926Y0065427D01*
X0052926Y0064476D01*
X0054827Y0064476D01*
X0054194Y0064476D02*
X0054194Y0065427D01*
X0053877Y0065744D01*
X0053243Y0065744D01*
X0053877Y0068896D02*
X0053877Y0070164D01*
X0053560Y0070164D02*
X0054827Y0070164D01*
X0054510Y0063534D02*
X0054827Y0063217D01*
X0054827Y0062583D01*
X0054510Y0062266D01*
X0053877Y0062583D02*
X0053877Y0063217D01*
X0054194Y0063534D01*
X0054510Y0063534D01*
X0053877Y0062583D02*
X0053560Y0062266D01*
X0053243Y0062266D01*
X0052926Y0062583D01*
X0052926Y0063217D01*
X0053243Y0063534D01*
X0052926Y0061427D02*
X0052926Y0060793D01*
X0052926Y0061110D02*
X0054827Y0061110D01*
X0054827Y0060793D02*
X0054827Y0061427D01*
X0054510Y0059851D02*
X0053243Y0059851D01*
X0052926Y0059534D01*
X0052926Y0058583D01*
X0054827Y0058583D01*
X0054827Y0059534D01*
X0054510Y0059851D01*
X0063034Y0040603D02*
X0064936Y0040603D01*
X0063034Y0039335D01*
X0064936Y0039335D01*
X0064936Y0038496D02*
X0064936Y0037862D01*
X0064936Y0038179D02*
X0063034Y0038179D01*
X0063034Y0037862D02*
X0063034Y0038496D01*
X0063351Y0036920D02*
X0063034Y0036603D01*
X0063034Y0035969D01*
X0063351Y0035652D01*
X0064619Y0035652D01*
X0064936Y0035969D01*
X0064936Y0036603D01*
X0064619Y0036920D01*
X0064936Y0034710D02*
X0064936Y0033442D01*
X0063668Y0034710D01*
X0063351Y0034710D01*
X0063034Y0034393D01*
X0063034Y0033759D01*
X0063351Y0033442D01*
X0063034Y0032603D02*
X0063034Y0031969D01*
X0063034Y0032286D02*
X0064936Y0032286D01*
X0064936Y0031969D02*
X0064936Y0032603D01*
X0077890Y0042434D02*
X0078341Y0041984D01*
X0079242Y0041984D01*
X0079692Y0042434D01*
X0079692Y0043335D01*
X0078791Y0043335D01*
X0077890Y0044236D02*
X0077890Y0042434D01*
X0077890Y0044236D02*
X0078341Y0044686D01*
X0079242Y0044686D01*
X0079692Y0044236D01*
X0080837Y0044686D02*
X0080837Y0041984D01*
X0082638Y0041984D02*
X0080837Y0044686D01*
X0082638Y0044686D02*
X0082638Y0041984D01*
X0083783Y0041984D02*
X0085135Y0041984D01*
X0085585Y0042434D01*
X0085585Y0044236D01*
X0085135Y0044686D01*
X0083783Y0044686D01*
X0083783Y0041984D01*
X0088690Y0042134D02*
X0089141Y0041684D01*
X0090042Y0041684D01*
X0090492Y0042134D01*
X0090492Y0042584D01*
X0090042Y0043035D01*
X0089141Y0043035D01*
X0088690Y0043485D01*
X0088690Y0043936D01*
X0089141Y0044386D01*
X0090042Y0044386D01*
X0090492Y0043936D01*
X0091637Y0043936D02*
X0091637Y0042134D01*
X0092087Y0041684D01*
X0092988Y0041684D01*
X0093438Y0042134D01*
X0094583Y0041684D02*
X0096385Y0041684D01*
X0098090Y0041884D02*
X0098541Y0041434D01*
X0099442Y0041434D01*
X0099892Y0041884D01*
X0099892Y0042334D01*
X0099442Y0042785D01*
X0098541Y0042785D01*
X0098090Y0043235D01*
X0098090Y0043686D01*
X0098541Y0044136D01*
X0099442Y0044136D01*
X0099892Y0043686D01*
X0101037Y0044136D02*
X0102388Y0044136D01*
X0102838Y0043686D01*
X0102838Y0041884D01*
X0102388Y0041434D01*
X0101037Y0041434D01*
X0101037Y0044136D01*
X0103983Y0043235D02*
X0104884Y0044136D01*
X0105785Y0043235D01*
X0105785Y0041434D01*
X0105785Y0042785D02*
X0103983Y0042785D01*
X0103983Y0043235D02*
X0103983Y0041434D01*
X0108890Y0041634D02*
X0109791Y0041634D01*
X0109341Y0041634D02*
X0109341Y0044336D01*
X0109791Y0044336D02*
X0108890Y0044336D01*
X0110855Y0044336D02*
X0112656Y0041634D01*
X0112656Y0044336D01*
X0113801Y0044336D02*
X0115603Y0044336D01*
X0114702Y0044336D02*
X0114702Y0041634D01*
X0116748Y0041634D02*
X0118549Y0041634D01*
X0117649Y0041634D02*
X0117649Y0044336D01*
X0116748Y0043435D01*
X0110855Y0044336D02*
X0110855Y0041634D01*
X0094583Y0041684D02*
X0094583Y0044386D01*
X0093438Y0043936D02*
X0092988Y0044386D01*
X0092087Y0044386D01*
X0091637Y0043936D01*
X0086220Y0073958D02*
X0084952Y0073958D01*
X0086220Y0075226D01*
X0086220Y0075543D01*
X0085903Y0075860D01*
X0085269Y0075860D01*
X0084952Y0075543D01*
X0084010Y0075543D02*
X0084010Y0074909D01*
X0083693Y0074592D01*
X0082742Y0074592D01*
X0083376Y0074592D02*
X0084010Y0073958D01*
X0082742Y0073958D02*
X0082742Y0075860D01*
X0083693Y0075860D01*
X0084010Y0075543D01*
X0087855Y0081208D02*
X0087855Y0083110D01*
X0088805Y0083110D01*
X0089122Y0082793D01*
X0089122Y0082159D01*
X0088805Y0081842D01*
X0087855Y0081842D01*
X0088488Y0081842D02*
X0089122Y0081208D01*
X0090064Y0081208D02*
X0091332Y0081208D01*
X0090698Y0081208D02*
X0090698Y0083110D01*
X0090064Y0082476D01*
X0105965Y0094709D02*
X0105965Y0105659D01*
X0117315Y0105659D01*
X0117315Y0094709D01*
X0105965Y0094709D01*
X0117948Y0089053D02*
X0117948Y0087152D01*
X0117948Y0087786D02*
X0118899Y0087786D01*
X0119216Y0088103D01*
X0119216Y0088737D01*
X0118899Y0089053D01*
X0117948Y0089053D01*
X0118582Y0087786D02*
X0119216Y0087152D01*
X0120158Y0088103D02*
X0121426Y0088103D01*
X0121109Y0089053D02*
X0120158Y0088103D01*
X0121109Y0087152D02*
X0121109Y0089053D01*
X0115225Y0129032D02*
X0113957Y0129032D01*
X0115225Y0130300D01*
X0115225Y0130617D01*
X0114908Y0130934D01*
X0114274Y0130934D01*
X0113957Y0130617D01*
X0113015Y0130617D02*
X0112698Y0130934D01*
X0112064Y0130934D01*
X0111747Y0130617D01*
X0111747Y0129349D01*
X0112064Y0129032D01*
X0112698Y0129032D01*
X0113015Y0129349D01*
X0103414Y0128993D02*
X0102146Y0128993D01*
X0102780Y0128993D02*
X0102780Y0130894D01*
X0102146Y0130261D01*
X0101204Y0130577D02*
X0100887Y0130894D01*
X0100253Y0130894D01*
X0099936Y0130577D01*
X0099936Y0129310D01*
X0100253Y0128993D01*
X0100887Y0128993D01*
X0101204Y0129310D01*
X0080658Y0120518D02*
X0080658Y0120201D01*
X0080341Y0119885D01*
X0080658Y0119568D01*
X0080658Y0119251D01*
X0080341Y0118934D01*
X0079707Y0118934D01*
X0079390Y0119251D01*
X0080024Y0119885D02*
X0080341Y0119885D01*
X0080658Y0120518D02*
X0080341Y0120835D01*
X0079707Y0120835D01*
X0079390Y0120518D01*
X0078448Y0120518D02*
X0078448Y0119885D01*
X0078131Y0119568D01*
X0077181Y0119568D01*
X0077814Y0119568D02*
X0078448Y0118934D01*
X0077181Y0118934D02*
X0077181Y0120835D01*
X0078131Y0120835D01*
X0078448Y0120518D01*
D13*
X0099524Y0159520D02*
X0099857Y0159520D01*
X0100191Y0159853D01*
X0100191Y0161521D01*
X0101066Y0162189D02*
X0101734Y0161521D01*
X0102401Y0162189D01*
X0102401Y0160187D01*
X0103276Y0160520D02*
X0103610Y0160187D01*
X0104277Y0160187D01*
X0104611Y0160520D01*
X0104611Y0161188D01*
X0104277Y0161521D01*
X0103610Y0161521D01*
X0103276Y0161188D01*
X0103276Y0160520D01*
X0101066Y0160187D02*
X0101066Y0162189D01*
X0100191Y0160187D02*
X0099190Y0160187D01*
X0098856Y0160520D01*
X0098856Y0161521D01*
X0098050Y0161521D02*
X0097383Y0161521D01*
X0097717Y0161855D02*
X0097717Y0160520D01*
X0098050Y0160187D01*
X0096577Y0160187D02*
X0095910Y0160187D01*
X0096244Y0160187D02*
X0096244Y0161521D01*
X0095910Y0161521D01*
X0096244Y0162189D02*
X0096244Y0162522D01*
X0095035Y0162189D02*
X0095035Y0160187D01*
X0094034Y0160187D01*
X0093700Y0160520D01*
X0093700Y0161188D01*
X0094034Y0161521D01*
X0095035Y0161521D01*
X0092560Y0161521D02*
X0092560Y0160187D01*
X0092227Y0160187D02*
X0092894Y0160187D01*
X0092560Y0161521D02*
X0092227Y0161521D01*
X0092560Y0162189D02*
X0092560Y0162522D01*
X0091351Y0161188D02*
X0091351Y0160187D01*
X0090684Y0160187D02*
X0090684Y0161188D01*
X0091018Y0161521D01*
X0091351Y0161188D01*
X0090684Y0161188D02*
X0090351Y0161521D01*
X0090017Y0161521D01*
X0090017Y0160187D01*
X0089142Y0160187D02*
X0089142Y0161521D01*
X0089142Y0160187D02*
X0088141Y0160187D01*
X0087807Y0160520D01*
X0087807Y0161521D01*
X0086932Y0161188D02*
X0085597Y0161188D01*
X0085597Y0160187D02*
X0085597Y0162189D01*
X0084722Y0162189D02*
X0083387Y0160187D01*
X0082512Y0160520D02*
X0082178Y0160854D01*
X0081511Y0160854D01*
X0081177Y0161188D01*
X0081511Y0161521D01*
X0082512Y0161521D01*
X0082512Y0160520D02*
X0082178Y0160187D01*
X0081177Y0160187D01*
X0080302Y0160187D02*
X0080302Y0161521D01*
X0080302Y0160187D02*
X0079301Y0160187D01*
X0078968Y0160520D01*
X0078968Y0161521D01*
X0078092Y0161188D02*
X0077759Y0161521D01*
X0077091Y0161521D01*
X0076758Y0161188D01*
X0076758Y0160520D01*
X0077091Y0160187D01*
X0077759Y0160187D01*
X0078092Y0160520D01*
X0078092Y0161188D01*
X0075882Y0161188D02*
X0075882Y0160187D01*
X0075215Y0160187D02*
X0075215Y0161188D01*
X0075549Y0161521D01*
X0075882Y0161188D01*
X0075215Y0161188D02*
X0074881Y0161521D01*
X0074548Y0161521D01*
X0074548Y0160187D01*
X0073672Y0160187D02*
X0072672Y0160187D01*
X0072338Y0160520D01*
X0072672Y0160854D01*
X0073672Y0160854D01*
X0073672Y0161188D02*
X0073672Y0160187D01*
X0073672Y0161188D02*
X0073339Y0161521D01*
X0072672Y0161521D01*
X0071463Y0161188D02*
X0071463Y0160187D01*
X0071463Y0161188D02*
X0071129Y0161521D01*
X0070128Y0161521D01*
X0070128Y0160187D01*
X0069322Y0160187D02*
X0068655Y0160187D01*
X0068988Y0160187D02*
X0068988Y0161521D01*
X0068655Y0161521D01*
X0068988Y0162189D02*
X0068988Y0162522D01*
X0067779Y0162189D02*
X0066445Y0162189D01*
X0067112Y0162189D02*
X0067112Y0160187D01*
X0065570Y0162189D02*
X0064235Y0160187D01*
X0063360Y0160187D02*
X0063360Y0161188D01*
X0063026Y0161521D01*
X0062692Y0161188D01*
X0062692Y0160187D01*
X0062025Y0160187D02*
X0062025Y0161521D01*
X0062359Y0161521D01*
X0062692Y0161188D01*
X0061150Y0161188D02*
X0060816Y0161521D01*
X0060149Y0161521D01*
X0059815Y0161188D01*
X0059815Y0160520D01*
X0060149Y0160187D01*
X0060816Y0160187D01*
X0061150Y0160520D01*
X0061150Y0161188D01*
X0058940Y0161521D02*
X0057939Y0161521D01*
X0057605Y0161188D01*
X0057605Y0160520D01*
X0057939Y0160187D01*
X0058940Y0160187D01*
X0056834Y0160187D02*
X0056500Y0160187D01*
X0056500Y0160520D01*
X0056834Y0160520D01*
X0056834Y0160187D01*
X0055625Y0160520D02*
X0055625Y0161188D01*
X0055291Y0161521D01*
X0054291Y0161521D01*
X0054291Y0162189D02*
X0054291Y0160187D01*
X0055291Y0160187D01*
X0055625Y0160520D01*
X0053415Y0160187D02*
X0053415Y0161521D01*
X0053415Y0160187D02*
X0052414Y0160187D01*
X0052081Y0160520D01*
X0052081Y0161521D01*
X0051205Y0161188D02*
X0051205Y0160187D01*
X0051205Y0161188D02*
X0050872Y0161521D01*
X0050204Y0161521D01*
X0049871Y0161188D01*
X0049065Y0161521D02*
X0048398Y0161521D01*
X0048731Y0161855D02*
X0048731Y0160520D01*
X0049065Y0160187D01*
X0049871Y0160187D02*
X0049871Y0162189D01*
X0047258Y0162189D02*
X0047258Y0162522D01*
X0047258Y0161521D02*
X0047258Y0160187D01*
X0046924Y0160187D02*
X0047592Y0160187D01*
X0047258Y0161521D02*
X0046924Y0161521D01*
X0046049Y0161188D02*
X0045382Y0161188D01*
X0046049Y0161188D02*
X0046049Y0160520D01*
X0045715Y0160187D01*
X0045048Y0160187D01*
X0044714Y0160520D01*
X0044714Y0161855D01*
X0045048Y0162189D01*
X0045715Y0162189D01*
X0046049Y0161855D01*
X0086932Y0162189D02*
X0086932Y0160187D01*
X0105486Y0160187D02*
X0105486Y0161521D01*
X0106487Y0161521D01*
X0106821Y0161188D01*
X0106821Y0160187D01*
X0107696Y0160187D02*
X0108363Y0160187D01*
X0108030Y0160187D02*
X0108030Y0161521D01*
X0107696Y0161521D01*
X0108030Y0162189D02*
X0108030Y0162522D01*
X0109169Y0161521D02*
X0109836Y0161521D01*
X0109503Y0161855D02*
X0109503Y0160520D01*
X0109836Y0160187D01*
X0110642Y0160520D02*
X0110976Y0160187D01*
X0111643Y0160187D01*
X0111977Y0160520D01*
X0111977Y0161188D01*
X0111643Y0161521D01*
X0110976Y0161521D01*
X0110642Y0161188D01*
X0110642Y0160520D01*
X0112852Y0160187D02*
X0112852Y0161521D01*
X0112852Y0160854D02*
X0113520Y0161521D01*
X0113853Y0161521D01*
X0035886Y0038567D02*
X0036219Y0038233D01*
X0034885Y0036898D01*
X0035218Y0036565D01*
X0035886Y0036565D01*
X0036219Y0036898D01*
X0036219Y0038233D01*
X0035886Y0038567D02*
X0035218Y0038567D01*
X0034885Y0038233D01*
X0034885Y0036898D01*
X0034113Y0036898D02*
X0034113Y0036565D01*
X0033780Y0036565D01*
X0033780Y0036898D01*
X0034113Y0036898D01*
X0032904Y0036565D02*
X0031570Y0036565D01*
X0032237Y0036565D02*
X0032237Y0038567D01*
X0031570Y0037899D01*
X0030695Y0037232D02*
X0030695Y0038567D01*
X0029360Y0038567D02*
X0029360Y0037232D01*
X0030027Y0036565D01*
X0030695Y0037232D01*
D14*
X0056640Y0062684D02*
X0059140Y0060184D01*
X0064140Y0060184D01*
X0066640Y0062684D01*
X0069140Y0060184D01*
X0074140Y0060184D01*
X0076640Y0062684D01*
X0079140Y0060184D01*
X0084140Y0060184D01*
X0086640Y0062684D01*
X0089140Y0060184D01*
X0094140Y0060184D01*
X0096640Y0062684D01*
X0096640Y0067684D01*
X0094140Y0070184D01*
X0089140Y0070184D01*
X0086640Y0067684D01*
X0084140Y0070184D01*
X0079140Y0070184D01*
X0076640Y0067684D01*
X0074140Y0070184D01*
X0069140Y0070184D01*
X0066640Y0067684D01*
X0064140Y0070184D01*
X0059140Y0070184D01*
X0056640Y0067684D01*
X0056640Y0062684D01*
X0069140Y0040784D02*
X0066640Y0038284D01*
X0066640Y0033284D01*
X0069140Y0030784D01*
X0074140Y0030784D01*
X0076640Y0033284D01*
X0079140Y0030784D01*
X0084140Y0030784D01*
X0086640Y0033284D01*
X0089140Y0030784D01*
X0094140Y0030784D01*
X0096640Y0033284D01*
X0099140Y0030784D01*
X0104140Y0030784D01*
X0106640Y0033284D01*
X0109140Y0030784D01*
X0114140Y0030784D01*
X0116640Y0033284D01*
X0116640Y0038284D01*
X0114140Y0040784D01*
X0109140Y0040784D01*
X0106640Y0038284D01*
X0104140Y0040784D01*
X0099140Y0040784D01*
X0096640Y0038284D01*
X0094140Y0040784D01*
X0089140Y0040784D01*
X0086640Y0038284D01*
X0084140Y0040784D01*
X0079140Y0040784D01*
X0076640Y0038284D01*
X0074140Y0040784D01*
X0069140Y0040784D01*
X0073749Y0093381D02*
X0072349Y0094781D01*
X0072646Y0104578D02*
X0072646Y0106578D01*
X0073749Y0106578D01*
X0084543Y0106578D02*
X0085646Y0106578D01*
X0085646Y0104578D01*
X0085646Y0095778D02*
X0085646Y0093778D01*
X0084543Y0093778D01*
D15*
X0072140Y0093184D03*
X0105265Y0093809D03*
D16*
X0085675Y0134168D02*
X0088050Y0136543D01*
X0085226Y0140006D01*
X0085731Y0140923D01*
X0086131Y0141890D01*
X0086422Y0142895D01*
X0090868Y0143347D01*
X0090868Y0146705D01*
X0086422Y0147157D01*
X0086131Y0148163D01*
X0085731Y0149129D01*
X0085226Y0150046D01*
X0088050Y0153510D01*
X0085675Y0155885D01*
X0082212Y0153060D01*
X0081295Y0153565D01*
X0080328Y0153966D01*
X0079323Y0154257D01*
X0078871Y0158703D01*
X0075512Y0158703D01*
X0075060Y0154257D01*
X0074055Y0153966D01*
X0073088Y0153565D01*
X0072172Y0153060D01*
X0068708Y0155885D01*
X0066333Y0153510D01*
X0069157Y0150046D01*
X0068653Y0149129D01*
X0068252Y0148163D01*
X0067961Y0147157D01*
X0063515Y0146705D01*
X0063515Y0143347D01*
X0067961Y0142895D01*
X0068252Y0141890D01*
X0068653Y0140923D01*
X0069157Y0140006D01*
X0066333Y0136543D01*
X0068708Y0134168D01*
X0072172Y0136992D01*
X0072854Y0136604D01*
X0073566Y0136274D01*
X0075544Y0141048D01*
X0074900Y0141380D01*
X0074322Y0141815D01*
X0073825Y0142341D01*
X0073423Y0142943D01*
X0073127Y0143604D01*
X0072946Y0144305D01*
X0072885Y0145026D01*
X0072961Y0145830D01*
X0073186Y0146606D01*
X0073551Y0147326D01*
X0074044Y0147965D01*
X0074648Y0148501D01*
X0075342Y0148915D01*
X0076101Y0149192D01*
X0076898Y0149322D01*
X0077705Y0149302D01*
X0078494Y0149131D01*
X0079238Y0148815D01*
X0079909Y0148367D01*
X0080485Y0147801D01*
X0080945Y0147137D01*
X0081273Y0146399D01*
X0081458Y0145613D01*
X0081492Y0144806D01*
X0081375Y0144007D01*
X0081111Y0143244D01*
X0080710Y0142543D01*
X0080184Y0141930D01*
X0079553Y0141426D01*
X0078840Y0141048D01*
X0080817Y0136274D01*
X0081529Y0136604D01*
X0082212Y0136992D01*
X0085675Y0134168D01*
X0085864Y0134357D02*
X0085443Y0134357D01*
X0084721Y0134946D02*
X0086453Y0134946D01*
X0087042Y0135535D02*
X0083998Y0135535D01*
X0083276Y0136124D02*
X0087631Y0136124D01*
X0087911Y0136713D02*
X0082553Y0136713D01*
X0081722Y0136713D02*
X0080635Y0136713D01*
X0080391Y0137302D02*
X0087430Y0137302D01*
X0086950Y0137892D02*
X0080147Y0137892D01*
X0079903Y0138481D02*
X0086470Y0138481D01*
X0085989Y0139070D02*
X0079659Y0139070D01*
X0079415Y0139659D02*
X0085509Y0139659D01*
X0085359Y0140248D02*
X0079171Y0140248D01*
X0078927Y0140837D02*
X0085683Y0140837D01*
X0085939Y0141426D02*
X0079554Y0141426D01*
X0080257Y0142015D02*
X0086167Y0142015D01*
X0086338Y0142604D02*
X0080745Y0142604D01*
X0081082Y0143193D02*
X0089353Y0143193D01*
X0090868Y0143782D02*
X0081298Y0143782D01*
X0081429Y0144371D02*
X0090868Y0144371D01*
X0090868Y0144960D02*
X0081485Y0144960D01*
X0081460Y0145549D02*
X0090868Y0145549D01*
X0090868Y0146138D02*
X0081334Y0146138D01*
X0081127Y0146727D02*
X0090651Y0146727D01*
X0086376Y0147317D02*
X0080820Y0147317D01*
X0080378Y0147906D02*
X0086205Y0147906D01*
X0085993Y0148495D02*
X0079718Y0148495D01*
X0078605Y0149084D02*
X0085749Y0149084D01*
X0085431Y0149673D02*
X0068952Y0149673D01*
X0068982Y0150262D02*
X0085402Y0150262D01*
X0085882Y0150851D02*
X0068501Y0150851D01*
X0068021Y0151440D02*
X0086362Y0151440D01*
X0086843Y0152029D02*
X0067541Y0152029D01*
X0067060Y0152618D02*
X0087323Y0152618D01*
X0087803Y0153207D02*
X0082392Y0153207D01*
X0081945Y0153207D02*
X0072438Y0153207D01*
X0071992Y0153207D02*
X0066580Y0153207D01*
X0066620Y0153796D02*
X0071269Y0153796D01*
X0070547Y0154385D02*
X0067209Y0154385D01*
X0067798Y0154974D02*
X0069824Y0154974D01*
X0069102Y0155563D02*
X0068387Y0155563D01*
X0073646Y0153796D02*
X0080737Y0153796D01*
X0079310Y0154385D02*
X0075074Y0154385D01*
X0075133Y0154974D02*
X0079250Y0154974D01*
X0079190Y0155563D02*
X0075193Y0155563D01*
X0075253Y0156152D02*
X0079130Y0156152D01*
X0079070Y0156742D02*
X0075313Y0156742D01*
X0075373Y0157331D02*
X0079010Y0157331D01*
X0078950Y0157920D02*
X0075433Y0157920D01*
X0075493Y0158509D02*
X0078890Y0158509D01*
X0083114Y0153796D02*
X0087763Y0153796D01*
X0087174Y0154385D02*
X0083836Y0154385D01*
X0084559Y0154974D02*
X0086585Y0154974D01*
X0085996Y0155563D02*
X0085281Y0155563D01*
X0075804Y0149084D02*
X0068634Y0149084D01*
X0068390Y0148495D02*
X0074641Y0148495D01*
X0073998Y0147906D02*
X0068178Y0147906D01*
X0068007Y0147317D02*
X0073546Y0147317D01*
X0073247Y0146727D02*
X0063732Y0146727D01*
X0063515Y0146138D02*
X0073050Y0146138D01*
X0072935Y0145549D02*
X0063515Y0145549D01*
X0063515Y0144960D02*
X0072891Y0144960D01*
X0072941Y0144371D02*
X0063515Y0144371D01*
X0063515Y0143782D02*
X0073081Y0143782D01*
X0073311Y0143193D02*
X0065030Y0143193D01*
X0068045Y0142604D02*
X0073649Y0142604D01*
X0074133Y0142015D02*
X0068216Y0142015D01*
X0068444Y0141426D02*
X0074840Y0141426D01*
X0075456Y0140837D02*
X0068700Y0140837D01*
X0069024Y0140248D02*
X0075212Y0140248D01*
X0074968Y0139659D02*
X0068874Y0139659D01*
X0068394Y0139070D02*
X0074724Y0139070D01*
X0074480Y0138481D02*
X0067913Y0138481D01*
X0067433Y0137892D02*
X0074236Y0137892D01*
X0073992Y0137302D02*
X0066953Y0137302D01*
X0066472Y0136713D02*
X0071830Y0136713D01*
X0072661Y0136713D02*
X0073748Y0136713D01*
X0071107Y0136124D02*
X0066752Y0136124D01*
X0067341Y0135535D02*
X0070385Y0135535D01*
X0069663Y0134946D02*
X0067930Y0134946D01*
X0068519Y0134357D02*
X0068940Y0134357D01*
M02*
