%
M48
M72
T01C0.02362
T02C0.04000
T03C0.08661
T04C0.11024
%
T01
X71138Y110390
X85312Y109997
X99140Y105184
X107359Y108816
X116414Y109603
X103028Y91493
X102241Y78501
X87890Y87684
X81040Y87684
T02
X91640Y65184
X81640Y65184
X71640Y65184
X61640Y65184
X71640Y35784
X81640Y35784
X91640Y35784
X101640Y35784
X111640Y35784
T03
X30509Y67339
X30902Y161040
X122635Y161040
X122241Y67339
T04
X50420Y42664
X76995Y145026
M30
