G75*
%MOIN*%
%OFA0B0*%
%FSLAX25Y25*%
%IPPOS*%
%LPD*%
%AMOC8*
5,1,8,0,0,1.08239X$1,22.5*
%
%ADD10C,0.00000*%
D10*
X0022861Y0024554D02*
X0022861Y0167861D01*
X0131129Y0167861D01*
X0131129Y0024554D01*
X0022861Y0024554D01*
X0044908Y0042664D02*
X0044910Y0042812D01*
X0044916Y0042960D01*
X0044926Y0043108D01*
X0044940Y0043255D01*
X0044958Y0043402D01*
X0044979Y0043548D01*
X0045005Y0043694D01*
X0045035Y0043839D01*
X0045068Y0043983D01*
X0045106Y0044126D01*
X0045147Y0044268D01*
X0045192Y0044409D01*
X0045240Y0044549D01*
X0045293Y0044688D01*
X0045349Y0044825D01*
X0045409Y0044960D01*
X0045472Y0045094D01*
X0045539Y0045226D01*
X0045610Y0045356D01*
X0045684Y0045484D01*
X0045761Y0045610D01*
X0045842Y0045734D01*
X0045926Y0045856D01*
X0046013Y0045975D01*
X0046104Y0046092D01*
X0046198Y0046207D01*
X0046294Y0046319D01*
X0046394Y0046429D01*
X0046496Y0046535D01*
X0046602Y0046639D01*
X0046710Y0046740D01*
X0046821Y0046838D01*
X0046934Y0046934D01*
X0047050Y0047026D01*
X0047168Y0047115D01*
X0047289Y0047200D01*
X0047412Y0047283D01*
X0047537Y0047362D01*
X0047664Y0047438D01*
X0047793Y0047510D01*
X0047924Y0047579D01*
X0048057Y0047644D01*
X0048192Y0047705D01*
X0048328Y0047763D01*
X0048465Y0047818D01*
X0048604Y0047868D01*
X0048745Y0047915D01*
X0048886Y0047958D01*
X0049029Y0047998D01*
X0049173Y0048033D01*
X0049317Y0048065D01*
X0049463Y0048092D01*
X0049609Y0048116D01*
X0049756Y0048136D01*
X0049903Y0048152D01*
X0050050Y0048164D01*
X0050198Y0048172D01*
X0050346Y0048176D01*
X0050494Y0048176D01*
X0050642Y0048172D01*
X0050790Y0048164D01*
X0050937Y0048152D01*
X0051084Y0048136D01*
X0051231Y0048116D01*
X0051377Y0048092D01*
X0051523Y0048065D01*
X0051667Y0048033D01*
X0051811Y0047998D01*
X0051954Y0047958D01*
X0052095Y0047915D01*
X0052236Y0047868D01*
X0052375Y0047818D01*
X0052512Y0047763D01*
X0052648Y0047705D01*
X0052783Y0047644D01*
X0052916Y0047579D01*
X0053047Y0047510D01*
X0053176Y0047438D01*
X0053303Y0047362D01*
X0053428Y0047283D01*
X0053551Y0047200D01*
X0053672Y0047115D01*
X0053790Y0047026D01*
X0053906Y0046934D01*
X0054019Y0046838D01*
X0054130Y0046740D01*
X0054238Y0046639D01*
X0054344Y0046535D01*
X0054446Y0046429D01*
X0054546Y0046319D01*
X0054642Y0046207D01*
X0054736Y0046092D01*
X0054827Y0045975D01*
X0054914Y0045856D01*
X0054998Y0045734D01*
X0055079Y0045610D01*
X0055156Y0045484D01*
X0055230Y0045356D01*
X0055301Y0045226D01*
X0055368Y0045094D01*
X0055431Y0044960D01*
X0055491Y0044825D01*
X0055547Y0044688D01*
X0055600Y0044549D01*
X0055648Y0044409D01*
X0055693Y0044268D01*
X0055734Y0044126D01*
X0055772Y0043983D01*
X0055805Y0043839D01*
X0055835Y0043694D01*
X0055861Y0043548D01*
X0055882Y0043402D01*
X0055900Y0043255D01*
X0055914Y0043108D01*
X0055924Y0042960D01*
X0055930Y0042812D01*
X0055932Y0042664D01*
X0055930Y0042516D01*
X0055924Y0042368D01*
X0055914Y0042220D01*
X0055900Y0042073D01*
X0055882Y0041926D01*
X0055861Y0041780D01*
X0055835Y0041634D01*
X0055805Y0041489D01*
X0055772Y0041345D01*
X0055734Y0041202D01*
X0055693Y0041060D01*
X0055648Y0040919D01*
X0055600Y0040779D01*
X0055547Y0040640D01*
X0055491Y0040503D01*
X0055431Y0040368D01*
X0055368Y0040234D01*
X0055301Y0040102D01*
X0055230Y0039972D01*
X0055156Y0039844D01*
X0055079Y0039718D01*
X0054998Y0039594D01*
X0054914Y0039472D01*
X0054827Y0039353D01*
X0054736Y0039236D01*
X0054642Y0039121D01*
X0054546Y0039009D01*
X0054446Y0038899D01*
X0054344Y0038793D01*
X0054238Y0038689D01*
X0054130Y0038588D01*
X0054019Y0038490D01*
X0053906Y0038394D01*
X0053790Y0038302D01*
X0053672Y0038213D01*
X0053551Y0038128D01*
X0053428Y0038045D01*
X0053303Y0037966D01*
X0053176Y0037890D01*
X0053047Y0037818D01*
X0052916Y0037749D01*
X0052783Y0037684D01*
X0052648Y0037623D01*
X0052512Y0037565D01*
X0052375Y0037510D01*
X0052236Y0037460D01*
X0052095Y0037413D01*
X0051954Y0037370D01*
X0051811Y0037330D01*
X0051667Y0037295D01*
X0051523Y0037263D01*
X0051377Y0037236D01*
X0051231Y0037212D01*
X0051084Y0037192D01*
X0050937Y0037176D01*
X0050790Y0037164D01*
X0050642Y0037156D01*
X0050494Y0037152D01*
X0050346Y0037152D01*
X0050198Y0037156D01*
X0050050Y0037164D01*
X0049903Y0037176D01*
X0049756Y0037192D01*
X0049609Y0037212D01*
X0049463Y0037236D01*
X0049317Y0037263D01*
X0049173Y0037295D01*
X0049029Y0037330D01*
X0048886Y0037370D01*
X0048745Y0037413D01*
X0048604Y0037460D01*
X0048465Y0037510D01*
X0048328Y0037565D01*
X0048192Y0037623D01*
X0048057Y0037684D01*
X0047924Y0037749D01*
X0047793Y0037818D01*
X0047664Y0037890D01*
X0047537Y0037966D01*
X0047412Y0038045D01*
X0047289Y0038128D01*
X0047168Y0038213D01*
X0047050Y0038302D01*
X0046934Y0038394D01*
X0046821Y0038490D01*
X0046710Y0038588D01*
X0046602Y0038689D01*
X0046496Y0038793D01*
X0046394Y0038899D01*
X0046294Y0039009D01*
X0046198Y0039121D01*
X0046104Y0039236D01*
X0046013Y0039353D01*
X0045926Y0039472D01*
X0045842Y0039594D01*
X0045761Y0039718D01*
X0045684Y0039844D01*
X0045610Y0039972D01*
X0045539Y0040102D01*
X0045472Y0040234D01*
X0045409Y0040368D01*
X0045349Y0040503D01*
X0045293Y0040640D01*
X0045240Y0040779D01*
X0045192Y0040919D01*
X0045147Y0041060D01*
X0045106Y0041202D01*
X0045068Y0041345D01*
X0045035Y0041489D01*
X0045005Y0041634D01*
X0044979Y0041780D01*
X0044958Y0041926D01*
X0044940Y0042073D01*
X0044926Y0042220D01*
X0044916Y0042368D01*
X0044910Y0042516D01*
X0044908Y0042664D01*
X0026178Y0067339D02*
X0026180Y0067470D01*
X0026186Y0067602D01*
X0026196Y0067733D01*
X0026210Y0067864D01*
X0026228Y0067994D01*
X0026250Y0068123D01*
X0026275Y0068252D01*
X0026305Y0068380D01*
X0026339Y0068507D01*
X0026376Y0068634D01*
X0026417Y0068758D01*
X0026462Y0068882D01*
X0026511Y0069004D01*
X0026563Y0069125D01*
X0026619Y0069243D01*
X0026679Y0069361D01*
X0026742Y0069476D01*
X0026809Y0069589D01*
X0026879Y0069701D01*
X0026952Y0069810D01*
X0027028Y0069916D01*
X0027108Y0070021D01*
X0027191Y0070123D01*
X0027277Y0070222D01*
X0027366Y0070319D01*
X0027458Y0070413D01*
X0027553Y0070504D01*
X0027650Y0070593D01*
X0027750Y0070678D01*
X0027853Y0070760D01*
X0027958Y0070839D01*
X0028065Y0070915D01*
X0028175Y0070987D01*
X0028287Y0071056D01*
X0028401Y0071122D01*
X0028516Y0071184D01*
X0028634Y0071243D01*
X0028753Y0071298D01*
X0028874Y0071350D01*
X0028997Y0071397D01*
X0029121Y0071441D01*
X0029246Y0071482D01*
X0029372Y0071518D01*
X0029500Y0071551D01*
X0029628Y0071579D01*
X0029757Y0071604D01*
X0029887Y0071625D01*
X0030017Y0071642D01*
X0030148Y0071655D01*
X0030279Y0071664D01*
X0030410Y0071669D01*
X0030542Y0071670D01*
X0030673Y0071667D01*
X0030805Y0071660D01*
X0030936Y0071649D01*
X0031066Y0071634D01*
X0031196Y0071615D01*
X0031326Y0071592D01*
X0031454Y0071566D01*
X0031582Y0071535D01*
X0031709Y0071500D01*
X0031835Y0071462D01*
X0031959Y0071420D01*
X0032083Y0071374D01*
X0032204Y0071324D01*
X0032324Y0071271D01*
X0032443Y0071214D01*
X0032560Y0071154D01*
X0032674Y0071090D01*
X0032787Y0071022D01*
X0032898Y0070951D01*
X0033007Y0070877D01*
X0033113Y0070800D01*
X0033217Y0070719D01*
X0033318Y0070636D01*
X0033417Y0070549D01*
X0033513Y0070459D01*
X0033606Y0070366D01*
X0033697Y0070271D01*
X0033784Y0070173D01*
X0033869Y0070072D01*
X0033950Y0069969D01*
X0034028Y0069863D01*
X0034103Y0069755D01*
X0034175Y0069645D01*
X0034243Y0069533D01*
X0034308Y0069419D01*
X0034369Y0069302D01*
X0034427Y0069184D01*
X0034481Y0069064D01*
X0034532Y0068943D01*
X0034579Y0068820D01*
X0034622Y0068696D01*
X0034661Y0068571D01*
X0034697Y0068444D01*
X0034728Y0068316D01*
X0034756Y0068188D01*
X0034780Y0068059D01*
X0034800Y0067929D01*
X0034816Y0067798D01*
X0034828Y0067667D01*
X0034836Y0067536D01*
X0034840Y0067405D01*
X0034840Y0067273D01*
X0034836Y0067142D01*
X0034828Y0067011D01*
X0034816Y0066880D01*
X0034800Y0066749D01*
X0034780Y0066619D01*
X0034756Y0066490D01*
X0034728Y0066362D01*
X0034697Y0066234D01*
X0034661Y0066107D01*
X0034622Y0065982D01*
X0034579Y0065858D01*
X0034532Y0065735D01*
X0034481Y0065614D01*
X0034427Y0065494D01*
X0034369Y0065376D01*
X0034308Y0065259D01*
X0034243Y0065145D01*
X0034175Y0065033D01*
X0034103Y0064923D01*
X0034028Y0064815D01*
X0033950Y0064709D01*
X0033869Y0064606D01*
X0033784Y0064505D01*
X0033697Y0064407D01*
X0033606Y0064312D01*
X0033513Y0064219D01*
X0033417Y0064129D01*
X0033318Y0064042D01*
X0033217Y0063959D01*
X0033113Y0063878D01*
X0033007Y0063801D01*
X0032898Y0063727D01*
X0032787Y0063656D01*
X0032675Y0063588D01*
X0032560Y0063524D01*
X0032443Y0063464D01*
X0032324Y0063407D01*
X0032204Y0063354D01*
X0032083Y0063304D01*
X0031959Y0063258D01*
X0031835Y0063216D01*
X0031709Y0063178D01*
X0031582Y0063143D01*
X0031454Y0063112D01*
X0031326Y0063086D01*
X0031196Y0063063D01*
X0031066Y0063044D01*
X0030936Y0063029D01*
X0030805Y0063018D01*
X0030673Y0063011D01*
X0030542Y0063008D01*
X0030410Y0063009D01*
X0030279Y0063014D01*
X0030148Y0063023D01*
X0030017Y0063036D01*
X0029887Y0063053D01*
X0029757Y0063074D01*
X0029628Y0063099D01*
X0029500Y0063127D01*
X0029372Y0063160D01*
X0029246Y0063196D01*
X0029121Y0063237D01*
X0028997Y0063281D01*
X0028874Y0063328D01*
X0028753Y0063380D01*
X0028634Y0063435D01*
X0028516Y0063494D01*
X0028401Y0063556D01*
X0028287Y0063622D01*
X0028175Y0063691D01*
X0028065Y0063763D01*
X0027958Y0063839D01*
X0027853Y0063918D01*
X0027750Y0064000D01*
X0027650Y0064085D01*
X0027553Y0064174D01*
X0027458Y0064265D01*
X0027366Y0064359D01*
X0027277Y0064456D01*
X0027191Y0064555D01*
X0027108Y0064657D01*
X0027028Y0064762D01*
X0026952Y0064868D01*
X0026879Y0064977D01*
X0026809Y0065089D01*
X0026742Y0065202D01*
X0026679Y0065317D01*
X0026619Y0065435D01*
X0026563Y0065553D01*
X0026511Y0065674D01*
X0026462Y0065796D01*
X0026417Y0065920D01*
X0026376Y0066044D01*
X0026339Y0066171D01*
X0026305Y0066298D01*
X0026275Y0066426D01*
X0026250Y0066555D01*
X0026228Y0066684D01*
X0026210Y0066814D01*
X0026196Y0066945D01*
X0026186Y0067076D01*
X0026180Y0067208D01*
X0026178Y0067339D01*
X0071483Y0145026D02*
X0071485Y0145174D01*
X0071491Y0145322D01*
X0071501Y0145470D01*
X0071515Y0145617D01*
X0071533Y0145764D01*
X0071554Y0145910D01*
X0071580Y0146056D01*
X0071610Y0146201D01*
X0071643Y0146345D01*
X0071681Y0146488D01*
X0071722Y0146630D01*
X0071767Y0146771D01*
X0071815Y0146911D01*
X0071868Y0147050D01*
X0071924Y0147187D01*
X0071984Y0147322D01*
X0072047Y0147456D01*
X0072114Y0147588D01*
X0072185Y0147718D01*
X0072259Y0147846D01*
X0072336Y0147972D01*
X0072417Y0148096D01*
X0072501Y0148218D01*
X0072588Y0148337D01*
X0072679Y0148454D01*
X0072773Y0148569D01*
X0072869Y0148681D01*
X0072969Y0148791D01*
X0073071Y0148897D01*
X0073177Y0149001D01*
X0073285Y0149102D01*
X0073396Y0149200D01*
X0073509Y0149296D01*
X0073625Y0149388D01*
X0073743Y0149477D01*
X0073864Y0149562D01*
X0073987Y0149645D01*
X0074112Y0149724D01*
X0074239Y0149800D01*
X0074368Y0149872D01*
X0074499Y0149941D01*
X0074632Y0150006D01*
X0074767Y0150067D01*
X0074903Y0150125D01*
X0075040Y0150180D01*
X0075179Y0150230D01*
X0075320Y0150277D01*
X0075461Y0150320D01*
X0075604Y0150360D01*
X0075748Y0150395D01*
X0075892Y0150427D01*
X0076038Y0150454D01*
X0076184Y0150478D01*
X0076331Y0150498D01*
X0076478Y0150514D01*
X0076625Y0150526D01*
X0076773Y0150534D01*
X0076921Y0150538D01*
X0077069Y0150538D01*
X0077217Y0150534D01*
X0077365Y0150526D01*
X0077512Y0150514D01*
X0077659Y0150498D01*
X0077806Y0150478D01*
X0077952Y0150454D01*
X0078098Y0150427D01*
X0078242Y0150395D01*
X0078386Y0150360D01*
X0078529Y0150320D01*
X0078670Y0150277D01*
X0078811Y0150230D01*
X0078950Y0150180D01*
X0079087Y0150125D01*
X0079223Y0150067D01*
X0079358Y0150006D01*
X0079491Y0149941D01*
X0079622Y0149872D01*
X0079751Y0149800D01*
X0079878Y0149724D01*
X0080003Y0149645D01*
X0080126Y0149562D01*
X0080247Y0149477D01*
X0080365Y0149388D01*
X0080481Y0149296D01*
X0080594Y0149200D01*
X0080705Y0149102D01*
X0080813Y0149001D01*
X0080919Y0148897D01*
X0081021Y0148791D01*
X0081121Y0148681D01*
X0081217Y0148569D01*
X0081311Y0148454D01*
X0081402Y0148337D01*
X0081489Y0148218D01*
X0081573Y0148096D01*
X0081654Y0147972D01*
X0081731Y0147846D01*
X0081805Y0147718D01*
X0081876Y0147588D01*
X0081943Y0147456D01*
X0082006Y0147322D01*
X0082066Y0147187D01*
X0082122Y0147050D01*
X0082175Y0146911D01*
X0082223Y0146771D01*
X0082268Y0146630D01*
X0082309Y0146488D01*
X0082347Y0146345D01*
X0082380Y0146201D01*
X0082410Y0146056D01*
X0082436Y0145910D01*
X0082457Y0145764D01*
X0082475Y0145617D01*
X0082489Y0145470D01*
X0082499Y0145322D01*
X0082505Y0145174D01*
X0082507Y0145026D01*
X0082505Y0144878D01*
X0082499Y0144730D01*
X0082489Y0144582D01*
X0082475Y0144435D01*
X0082457Y0144288D01*
X0082436Y0144142D01*
X0082410Y0143996D01*
X0082380Y0143851D01*
X0082347Y0143707D01*
X0082309Y0143564D01*
X0082268Y0143422D01*
X0082223Y0143281D01*
X0082175Y0143141D01*
X0082122Y0143002D01*
X0082066Y0142865D01*
X0082006Y0142730D01*
X0081943Y0142596D01*
X0081876Y0142464D01*
X0081805Y0142334D01*
X0081731Y0142206D01*
X0081654Y0142080D01*
X0081573Y0141956D01*
X0081489Y0141834D01*
X0081402Y0141715D01*
X0081311Y0141598D01*
X0081217Y0141483D01*
X0081121Y0141371D01*
X0081021Y0141261D01*
X0080919Y0141155D01*
X0080813Y0141051D01*
X0080705Y0140950D01*
X0080594Y0140852D01*
X0080481Y0140756D01*
X0080365Y0140664D01*
X0080247Y0140575D01*
X0080126Y0140490D01*
X0080003Y0140407D01*
X0079878Y0140328D01*
X0079751Y0140252D01*
X0079622Y0140180D01*
X0079491Y0140111D01*
X0079358Y0140046D01*
X0079223Y0139985D01*
X0079087Y0139927D01*
X0078950Y0139872D01*
X0078811Y0139822D01*
X0078670Y0139775D01*
X0078529Y0139732D01*
X0078386Y0139692D01*
X0078242Y0139657D01*
X0078098Y0139625D01*
X0077952Y0139598D01*
X0077806Y0139574D01*
X0077659Y0139554D01*
X0077512Y0139538D01*
X0077365Y0139526D01*
X0077217Y0139518D01*
X0077069Y0139514D01*
X0076921Y0139514D01*
X0076773Y0139518D01*
X0076625Y0139526D01*
X0076478Y0139538D01*
X0076331Y0139554D01*
X0076184Y0139574D01*
X0076038Y0139598D01*
X0075892Y0139625D01*
X0075748Y0139657D01*
X0075604Y0139692D01*
X0075461Y0139732D01*
X0075320Y0139775D01*
X0075179Y0139822D01*
X0075040Y0139872D01*
X0074903Y0139927D01*
X0074767Y0139985D01*
X0074632Y0140046D01*
X0074499Y0140111D01*
X0074368Y0140180D01*
X0074239Y0140252D01*
X0074112Y0140328D01*
X0073987Y0140407D01*
X0073864Y0140490D01*
X0073743Y0140575D01*
X0073625Y0140664D01*
X0073509Y0140756D01*
X0073396Y0140852D01*
X0073285Y0140950D01*
X0073177Y0141051D01*
X0073071Y0141155D01*
X0072969Y0141261D01*
X0072869Y0141371D01*
X0072773Y0141483D01*
X0072679Y0141598D01*
X0072588Y0141715D01*
X0072501Y0141834D01*
X0072417Y0141956D01*
X0072336Y0142080D01*
X0072259Y0142206D01*
X0072185Y0142334D01*
X0072114Y0142464D01*
X0072047Y0142596D01*
X0071984Y0142730D01*
X0071924Y0142865D01*
X0071868Y0143002D01*
X0071815Y0143141D01*
X0071767Y0143281D01*
X0071722Y0143422D01*
X0071681Y0143564D01*
X0071643Y0143707D01*
X0071610Y0143851D01*
X0071580Y0143996D01*
X0071554Y0144142D01*
X0071533Y0144288D01*
X0071515Y0144435D01*
X0071501Y0144582D01*
X0071491Y0144730D01*
X0071485Y0144878D01*
X0071483Y0145026D01*
X0026571Y0161040D02*
X0026573Y0161171D01*
X0026579Y0161303D01*
X0026589Y0161434D01*
X0026603Y0161565D01*
X0026621Y0161695D01*
X0026643Y0161824D01*
X0026668Y0161953D01*
X0026698Y0162081D01*
X0026732Y0162208D01*
X0026769Y0162335D01*
X0026810Y0162459D01*
X0026855Y0162583D01*
X0026904Y0162705D01*
X0026956Y0162826D01*
X0027012Y0162944D01*
X0027072Y0163062D01*
X0027135Y0163177D01*
X0027202Y0163290D01*
X0027272Y0163402D01*
X0027345Y0163511D01*
X0027421Y0163617D01*
X0027501Y0163722D01*
X0027584Y0163824D01*
X0027670Y0163923D01*
X0027759Y0164020D01*
X0027851Y0164114D01*
X0027946Y0164205D01*
X0028043Y0164294D01*
X0028143Y0164379D01*
X0028246Y0164461D01*
X0028351Y0164540D01*
X0028458Y0164616D01*
X0028568Y0164688D01*
X0028680Y0164757D01*
X0028794Y0164823D01*
X0028909Y0164885D01*
X0029027Y0164944D01*
X0029146Y0164999D01*
X0029267Y0165051D01*
X0029390Y0165098D01*
X0029514Y0165142D01*
X0029639Y0165183D01*
X0029765Y0165219D01*
X0029893Y0165252D01*
X0030021Y0165280D01*
X0030150Y0165305D01*
X0030280Y0165326D01*
X0030410Y0165343D01*
X0030541Y0165356D01*
X0030672Y0165365D01*
X0030803Y0165370D01*
X0030935Y0165371D01*
X0031066Y0165368D01*
X0031198Y0165361D01*
X0031329Y0165350D01*
X0031459Y0165335D01*
X0031589Y0165316D01*
X0031719Y0165293D01*
X0031847Y0165267D01*
X0031975Y0165236D01*
X0032102Y0165201D01*
X0032228Y0165163D01*
X0032352Y0165121D01*
X0032476Y0165075D01*
X0032597Y0165025D01*
X0032717Y0164972D01*
X0032836Y0164915D01*
X0032953Y0164855D01*
X0033067Y0164791D01*
X0033180Y0164723D01*
X0033291Y0164652D01*
X0033400Y0164578D01*
X0033506Y0164501D01*
X0033610Y0164420D01*
X0033711Y0164337D01*
X0033810Y0164250D01*
X0033906Y0164160D01*
X0033999Y0164067D01*
X0034090Y0163972D01*
X0034177Y0163874D01*
X0034262Y0163773D01*
X0034343Y0163670D01*
X0034421Y0163564D01*
X0034496Y0163456D01*
X0034568Y0163346D01*
X0034636Y0163234D01*
X0034701Y0163120D01*
X0034762Y0163003D01*
X0034820Y0162885D01*
X0034874Y0162765D01*
X0034925Y0162644D01*
X0034972Y0162521D01*
X0035015Y0162397D01*
X0035054Y0162272D01*
X0035090Y0162145D01*
X0035121Y0162017D01*
X0035149Y0161889D01*
X0035173Y0161760D01*
X0035193Y0161630D01*
X0035209Y0161499D01*
X0035221Y0161368D01*
X0035229Y0161237D01*
X0035233Y0161106D01*
X0035233Y0160974D01*
X0035229Y0160843D01*
X0035221Y0160712D01*
X0035209Y0160581D01*
X0035193Y0160450D01*
X0035173Y0160320D01*
X0035149Y0160191D01*
X0035121Y0160063D01*
X0035090Y0159935D01*
X0035054Y0159808D01*
X0035015Y0159683D01*
X0034972Y0159559D01*
X0034925Y0159436D01*
X0034874Y0159315D01*
X0034820Y0159195D01*
X0034762Y0159077D01*
X0034701Y0158960D01*
X0034636Y0158846D01*
X0034568Y0158734D01*
X0034496Y0158624D01*
X0034421Y0158516D01*
X0034343Y0158410D01*
X0034262Y0158307D01*
X0034177Y0158206D01*
X0034090Y0158108D01*
X0033999Y0158013D01*
X0033906Y0157920D01*
X0033810Y0157830D01*
X0033711Y0157743D01*
X0033610Y0157660D01*
X0033506Y0157579D01*
X0033400Y0157502D01*
X0033291Y0157428D01*
X0033180Y0157357D01*
X0033068Y0157289D01*
X0032953Y0157225D01*
X0032836Y0157165D01*
X0032717Y0157108D01*
X0032597Y0157055D01*
X0032476Y0157005D01*
X0032352Y0156959D01*
X0032228Y0156917D01*
X0032102Y0156879D01*
X0031975Y0156844D01*
X0031847Y0156813D01*
X0031719Y0156787D01*
X0031589Y0156764D01*
X0031459Y0156745D01*
X0031329Y0156730D01*
X0031198Y0156719D01*
X0031066Y0156712D01*
X0030935Y0156709D01*
X0030803Y0156710D01*
X0030672Y0156715D01*
X0030541Y0156724D01*
X0030410Y0156737D01*
X0030280Y0156754D01*
X0030150Y0156775D01*
X0030021Y0156800D01*
X0029893Y0156828D01*
X0029765Y0156861D01*
X0029639Y0156897D01*
X0029514Y0156938D01*
X0029390Y0156982D01*
X0029267Y0157029D01*
X0029146Y0157081D01*
X0029027Y0157136D01*
X0028909Y0157195D01*
X0028794Y0157257D01*
X0028680Y0157323D01*
X0028568Y0157392D01*
X0028458Y0157464D01*
X0028351Y0157540D01*
X0028246Y0157619D01*
X0028143Y0157701D01*
X0028043Y0157786D01*
X0027946Y0157875D01*
X0027851Y0157966D01*
X0027759Y0158060D01*
X0027670Y0158157D01*
X0027584Y0158256D01*
X0027501Y0158358D01*
X0027421Y0158463D01*
X0027345Y0158569D01*
X0027272Y0158678D01*
X0027202Y0158790D01*
X0027135Y0158903D01*
X0027072Y0159018D01*
X0027012Y0159136D01*
X0026956Y0159254D01*
X0026904Y0159375D01*
X0026855Y0159497D01*
X0026810Y0159621D01*
X0026769Y0159745D01*
X0026732Y0159872D01*
X0026698Y0159999D01*
X0026668Y0160127D01*
X0026643Y0160256D01*
X0026621Y0160385D01*
X0026603Y0160515D01*
X0026589Y0160646D01*
X0026579Y0160777D01*
X0026573Y0160909D01*
X0026571Y0161040D01*
X0118304Y0161040D02*
X0118306Y0161171D01*
X0118312Y0161303D01*
X0118322Y0161434D01*
X0118336Y0161565D01*
X0118354Y0161695D01*
X0118376Y0161824D01*
X0118401Y0161953D01*
X0118431Y0162081D01*
X0118465Y0162208D01*
X0118502Y0162335D01*
X0118543Y0162459D01*
X0118588Y0162583D01*
X0118637Y0162705D01*
X0118689Y0162826D01*
X0118745Y0162944D01*
X0118805Y0163062D01*
X0118868Y0163177D01*
X0118935Y0163290D01*
X0119005Y0163402D01*
X0119078Y0163511D01*
X0119154Y0163617D01*
X0119234Y0163722D01*
X0119317Y0163824D01*
X0119403Y0163923D01*
X0119492Y0164020D01*
X0119584Y0164114D01*
X0119679Y0164205D01*
X0119776Y0164294D01*
X0119876Y0164379D01*
X0119979Y0164461D01*
X0120084Y0164540D01*
X0120191Y0164616D01*
X0120301Y0164688D01*
X0120413Y0164757D01*
X0120527Y0164823D01*
X0120642Y0164885D01*
X0120760Y0164944D01*
X0120879Y0164999D01*
X0121000Y0165051D01*
X0121123Y0165098D01*
X0121247Y0165142D01*
X0121372Y0165183D01*
X0121498Y0165219D01*
X0121626Y0165252D01*
X0121754Y0165280D01*
X0121883Y0165305D01*
X0122013Y0165326D01*
X0122143Y0165343D01*
X0122274Y0165356D01*
X0122405Y0165365D01*
X0122536Y0165370D01*
X0122668Y0165371D01*
X0122799Y0165368D01*
X0122931Y0165361D01*
X0123062Y0165350D01*
X0123192Y0165335D01*
X0123322Y0165316D01*
X0123452Y0165293D01*
X0123580Y0165267D01*
X0123708Y0165236D01*
X0123835Y0165201D01*
X0123961Y0165163D01*
X0124085Y0165121D01*
X0124209Y0165075D01*
X0124330Y0165025D01*
X0124450Y0164972D01*
X0124569Y0164915D01*
X0124686Y0164855D01*
X0124800Y0164791D01*
X0124913Y0164723D01*
X0125024Y0164652D01*
X0125133Y0164578D01*
X0125239Y0164501D01*
X0125343Y0164420D01*
X0125444Y0164337D01*
X0125543Y0164250D01*
X0125639Y0164160D01*
X0125732Y0164067D01*
X0125823Y0163972D01*
X0125910Y0163874D01*
X0125995Y0163773D01*
X0126076Y0163670D01*
X0126154Y0163564D01*
X0126229Y0163456D01*
X0126301Y0163346D01*
X0126369Y0163234D01*
X0126434Y0163120D01*
X0126495Y0163003D01*
X0126553Y0162885D01*
X0126607Y0162765D01*
X0126658Y0162644D01*
X0126705Y0162521D01*
X0126748Y0162397D01*
X0126787Y0162272D01*
X0126823Y0162145D01*
X0126854Y0162017D01*
X0126882Y0161889D01*
X0126906Y0161760D01*
X0126926Y0161630D01*
X0126942Y0161499D01*
X0126954Y0161368D01*
X0126962Y0161237D01*
X0126966Y0161106D01*
X0126966Y0160974D01*
X0126962Y0160843D01*
X0126954Y0160712D01*
X0126942Y0160581D01*
X0126926Y0160450D01*
X0126906Y0160320D01*
X0126882Y0160191D01*
X0126854Y0160063D01*
X0126823Y0159935D01*
X0126787Y0159808D01*
X0126748Y0159683D01*
X0126705Y0159559D01*
X0126658Y0159436D01*
X0126607Y0159315D01*
X0126553Y0159195D01*
X0126495Y0159077D01*
X0126434Y0158960D01*
X0126369Y0158846D01*
X0126301Y0158734D01*
X0126229Y0158624D01*
X0126154Y0158516D01*
X0126076Y0158410D01*
X0125995Y0158307D01*
X0125910Y0158206D01*
X0125823Y0158108D01*
X0125732Y0158013D01*
X0125639Y0157920D01*
X0125543Y0157830D01*
X0125444Y0157743D01*
X0125343Y0157660D01*
X0125239Y0157579D01*
X0125133Y0157502D01*
X0125024Y0157428D01*
X0124913Y0157357D01*
X0124801Y0157289D01*
X0124686Y0157225D01*
X0124569Y0157165D01*
X0124450Y0157108D01*
X0124330Y0157055D01*
X0124209Y0157005D01*
X0124085Y0156959D01*
X0123961Y0156917D01*
X0123835Y0156879D01*
X0123708Y0156844D01*
X0123580Y0156813D01*
X0123452Y0156787D01*
X0123322Y0156764D01*
X0123192Y0156745D01*
X0123062Y0156730D01*
X0122931Y0156719D01*
X0122799Y0156712D01*
X0122668Y0156709D01*
X0122536Y0156710D01*
X0122405Y0156715D01*
X0122274Y0156724D01*
X0122143Y0156737D01*
X0122013Y0156754D01*
X0121883Y0156775D01*
X0121754Y0156800D01*
X0121626Y0156828D01*
X0121498Y0156861D01*
X0121372Y0156897D01*
X0121247Y0156938D01*
X0121123Y0156982D01*
X0121000Y0157029D01*
X0120879Y0157081D01*
X0120760Y0157136D01*
X0120642Y0157195D01*
X0120527Y0157257D01*
X0120413Y0157323D01*
X0120301Y0157392D01*
X0120191Y0157464D01*
X0120084Y0157540D01*
X0119979Y0157619D01*
X0119876Y0157701D01*
X0119776Y0157786D01*
X0119679Y0157875D01*
X0119584Y0157966D01*
X0119492Y0158060D01*
X0119403Y0158157D01*
X0119317Y0158256D01*
X0119234Y0158358D01*
X0119154Y0158463D01*
X0119078Y0158569D01*
X0119005Y0158678D01*
X0118935Y0158790D01*
X0118868Y0158903D01*
X0118805Y0159018D01*
X0118745Y0159136D01*
X0118689Y0159254D01*
X0118637Y0159375D01*
X0118588Y0159497D01*
X0118543Y0159621D01*
X0118502Y0159745D01*
X0118465Y0159872D01*
X0118431Y0159999D01*
X0118401Y0160127D01*
X0118376Y0160256D01*
X0118354Y0160385D01*
X0118336Y0160515D01*
X0118322Y0160646D01*
X0118312Y0160777D01*
X0118306Y0160909D01*
X0118304Y0161040D01*
X0117910Y0067339D02*
X0117912Y0067470D01*
X0117918Y0067602D01*
X0117928Y0067733D01*
X0117942Y0067864D01*
X0117960Y0067994D01*
X0117982Y0068123D01*
X0118007Y0068252D01*
X0118037Y0068380D01*
X0118071Y0068507D01*
X0118108Y0068634D01*
X0118149Y0068758D01*
X0118194Y0068882D01*
X0118243Y0069004D01*
X0118295Y0069125D01*
X0118351Y0069243D01*
X0118411Y0069361D01*
X0118474Y0069476D01*
X0118541Y0069589D01*
X0118611Y0069701D01*
X0118684Y0069810D01*
X0118760Y0069916D01*
X0118840Y0070021D01*
X0118923Y0070123D01*
X0119009Y0070222D01*
X0119098Y0070319D01*
X0119190Y0070413D01*
X0119285Y0070504D01*
X0119382Y0070593D01*
X0119482Y0070678D01*
X0119585Y0070760D01*
X0119690Y0070839D01*
X0119797Y0070915D01*
X0119907Y0070987D01*
X0120019Y0071056D01*
X0120133Y0071122D01*
X0120248Y0071184D01*
X0120366Y0071243D01*
X0120485Y0071298D01*
X0120606Y0071350D01*
X0120729Y0071397D01*
X0120853Y0071441D01*
X0120978Y0071482D01*
X0121104Y0071518D01*
X0121232Y0071551D01*
X0121360Y0071579D01*
X0121489Y0071604D01*
X0121619Y0071625D01*
X0121749Y0071642D01*
X0121880Y0071655D01*
X0122011Y0071664D01*
X0122142Y0071669D01*
X0122274Y0071670D01*
X0122405Y0071667D01*
X0122537Y0071660D01*
X0122668Y0071649D01*
X0122798Y0071634D01*
X0122928Y0071615D01*
X0123058Y0071592D01*
X0123186Y0071566D01*
X0123314Y0071535D01*
X0123441Y0071500D01*
X0123567Y0071462D01*
X0123691Y0071420D01*
X0123815Y0071374D01*
X0123936Y0071324D01*
X0124056Y0071271D01*
X0124175Y0071214D01*
X0124292Y0071154D01*
X0124406Y0071090D01*
X0124519Y0071022D01*
X0124630Y0070951D01*
X0124739Y0070877D01*
X0124845Y0070800D01*
X0124949Y0070719D01*
X0125050Y0070636D01*
X0125149Y0070549D01*
X0125245Y0070459D01*
X0125338Y0070366D01*
X0125429Y0070271D01*
X0125516Y0070173D01*
X0125601Y0070072D01*
X0125682Y0069969D01*
X0125760Y0069863D01*
X0125835Y0069755D01*
X0125907Y0069645D01*
X0125975Y0069533D01*
X0126040Y0069419D01*
X0126101Y0069302D01*
X0126159Y0069184D01*
X0126213Y0069064D01*
X0126264Y0068943D01*
X0126311Y0068820D01*
X0126354Y0068696D01*
X0126393Y0068571D01*
X0126429Y0068444D01*
X0126460Y0068316D01*
X0126488Y0068188D01*
X0126512Y0068059D01*
X0126532Y0067929D01*
X0126548Y0067798D01*
X0126560Y0067667D01*
X0126568Y0067536D01*
X0126572Y0067405D01*
X0126572Y0067273D01*
X0126568Y0067142D01*
X0126560Y0067011D01*
X0126548Y0066880D01*
X0126532Y0066749D01*
X0126512Y0066619D01*
X0126488Y0066490D01*
X0126460Y0066362D01*
X0126429Y0066234D01*
X0126393Y0066107D01*
X0126354Y0065982D01*
X0126311Y0065858D01*
X0126264Y0065735D01*
X0126213Y0065614D01*
X0126159Y0065494D01*
X0126101Y0065376D01*
X0126040Y0065259D01*
X0125975Y0065145D01*
X0125907Y0065033D01*
X0125835Y0064923D01*
X0125760Y0064815D01*
X0125682Y0064709D01*
X0125601Y0064606D01*
X0125516Y0064505D01*
X0125429Y0064407D01*
X0125338Y0064312D01*
X0125245Y0064219D01*
X0125149Y0064129D01*
X0125050Y0064042D01*
X0124949Y0063959D01*
X0124845Y0063878D01*
X0124739Y0063801D01*
X0124630Y0063727D01*
X0124519Y0063656D01*
X0124407Y0063588D01*
X0124292Y0063524D01*
X0124175Y0063464D01*
X0124056Y0063407D01*
X0123936Y0063354D01*
X0123815Y0063304D01*
X0123691Y0063258D01*
X0123567Y0063216D01*
X0123441Y0063178D01*
X0123314Y0063143D01*
X0123186Y0063112D01*
X0123058Y0063086D01*
X0122928Y0063063D01*
X0122798Y0063044D01*
X0122668Y0063029D01*
X0122537Y0063018D01*
X0122405Y0063011D01*
X0122274Y0063008D01*
X0122142Y0063009D01*
X0122011Y0063014D01*
X0121880Y0063023D01*
X0121749Y0063036D01*
X0121619Y0063053D01*
X0121489Y0063074D01*
X0121360Y0063099D01*
X0121232Y0063127D01*
X0121104Y0063160D01*
X0120978Y0063196D01*
X0120853Y0063237D01*
X0120729Y0063281D01*
X0120606Y0063328D01*
X0120485Y0063380D01*
X0120366Y0063435D01*
X0120248Y0063494D01*
X0120133Y0063556D01*
X0120019Y0063622D01*
X0119907Y0063691D01*
X0119797Y0063763D01*
X0119690Y0063839D01*
X0119585Y0063918D01*
X0119482Y0064000D01*
X0119382Y0064085D01*
X0119285Y0064174D01*
X0119190Y0064265D01*
X0119098Y0064359D01*
X0119009Y0064456D01*
X0118923Y0064555D01*
X0118840Y0064657D01*
X0118760Y0064762D01*
X0118684Y0064868D01*
X0118611Y0064977D01*
X0118541Y0065089D01*
X0118474Y0065202D01*
X0118411Y0065317D01*
X0118351Y0065435D01*
X0118295Y0065553D01*
X0118243Y0065674D01*
X0118194Y0065796D01*
X0118149Y0065920D01*
X0118108Y0066044D01*
X0118071Y0066171D01*
X0118037Y0066298D01*
X0118007Y0066426D01*
X0117982Y0066555D01*
X0117960Y0066684D01*
X0117942Y0066814D01*
X0117928Y0066945D01*
X0117918Y0067076D01*
X0117912Y0067208D01*
X0117910Y0067339D01*
M02*
