solid OpenSCAD_Model
  facet normal 0 0 -1
    outer loop
      vertex -20 0 0
      vertex -19.8423 2.50666 0
      vertex -19.8423 -2.50666 0
    endloop
  endfacet
  facet normal 0 0 -1
    outer loop
      vertex -19.8423 -2.50666 0
      vertex -19.8423 2.50666 0
      vertex -19.3717 4.9738 0
    endloop
  endfacet
  facet normal 0 0 -1
    outer loop
      vertex -19.8423 -2.50666 0
      vertex -19.3717 4.9738 0
      vertex -18.5955 7.36249 0
    endloop
  endfacet
  facet normal 0 0 -1
    outer loop
      vertex -19.8423 -2.50666 0
      vertex -18.5955 7.36249 0
      vertex -17.5261 9.63507 0
    endloop
  endfacet
  facet normal 0 0 -1
    outer loop
      vertex -19.8423 -2.50666 0
      vertex -17.5261 9.63507 0
      vertex -16.1803 11.7557 0
    endloop
  endfacet
  facet normal 0 0 -1
    outer loop
      vertex -19.8423 -2.50666 0
      vertex -16.1803 11.7557 0
      vertex -14.5794 13.6909 0
    endloop
  endfacet
  facet normal 0 0 -1
    outer loop
      vertex -19.8423 -2.50666 0
      vertex -14.5794 13.6909 0
      vertex -12.7485 15.4103 0
    endloop
  endfacet
  facet normal 0 0 -1
    outer loop
      vertex -19.8423 -2.50666 0
      vertex -12.7485 15.4103 0
      vertex -10.7165 16.8866 0
    endloop
  endfacet
  facet normal 0 0 -1
    outer loop
      vertex -19.8423 -2.50666 0
      vertex -10.7165 16.8866 0
      vertex -8.51559 18.0965 0
    endloop
  endfacet
  facet normal 0 0 -1
    outer loop
      vertex -19.8423 -2.50666 0
      vertex -8.51559 18.0965 0
      vertex -6.18034 19.0211 0
    endloop
  endfacet
  facet normal 0 0 -1
    outer loop
      vertex -19.8423 -2.50666 0
      vertex -6.18034 19.0211 0
      vertex -3.74763 19.6457 0
    endloop
  endfacet
  facet normal 0 0 -1
    outer loop
      vertex -19.8423 -2.50666 0
      vertex -3.74763 19.6457 0
      vertex -1.25581 19.9605 0
    endloop
  endfacet
  facet normal 0 0 -1
    outer loop
      vertex -19.8423 -2.50666 0
      vertex -1.25581 19.9605 0
      vertex 1.25581 19.9605 0
    endloop
  endfacet
  facet normal 0 0 -1
    outer loop
      vertex -19.8423 -2.50666 0
      vertex 1.25581 19.9605 0
      vertex 3.74763 19.6457 0
    endloop
  endfacet
  facet normal 0 0 -1
    outer loop
      vertex -5.8941 9.28761 0
      vertex 3.74763 19.6457 0
      vertex 6.18034 19.0211 0
    endloop
  endfacet
  facet normal 0 0 -1
    outer loop
      vertex -2.06119 10.8052 0
      vertex 6.18034 19.0211 0
      vertex 8.51559 18.0965 0
    endloop
  endfacet
  facet normal 0 0 -1
    outer loop
      vertex 0 11 0
      vertex 8.51559 18.0965 0
      vertex 10.7165 16.8866 0
    endloop
  endfacet
  facet normal 0 0 -1
    outer loop
      vertex -0.690696 10.9783 0
      vertex 8.51559 18.0965 0
      vertex 0 11 0
    endloop
  endfacet
  facet normal 0 0 -1
    outer loop
      vertex -0.690696 10.9783 0
      vertex 0 11 0
      vertex 0 10.9783 0
    endloop
  endfacet
  facet normal 0 0 -1
    outer loop
      vertex -2.06119 10.8052 0
      vertex 8.51559 18.0965 0
      vertex -0.690696 10.9783 0
    endloop
  endfacet
  facet normal 0 0 -1
    outer loop
      vertex -3.39919 10.4616 0
      vertex 6.18034 19.0211 0
      vertex -2.06119 10.8052 0
    endloop
  endfacet
  facet normal 0 0 -1
    outer loop
      vertex -5.8941 9.28761 0
      vertex 6.18034 19.0211 0
      vertex -4.68357 9.9531 0
    endloop
  endfacet
  facet normal 0 0 -1
    outer loop
      vertex -4.68357 9.9531 0
      vertex 6.18034 19.0211 0
      vertex -3.39919 10.4616 0
    endloop
  endfacet
  facet normal 0 0 -1
    outer loop
      vertex -7.01166 8.47565 0
      vertex 3.74763 19.6457 0
      vertex -5.8941 9.28761 0
    endloop
  endfacet
  facet normal 0 0 -1
    outer loop
      vertex -8.89919 6.46564 0
      vertex -19.8423 -2.50666 0
      vertex -8.01865 7.53002 0
    endloop
  endfacet
  facet normal 0 0 -1
    outer loop
      vertex -19.8423 -2.50666 0
      vertex 3.74763 19.6457 0
      vertex -7.01166 8.47565 0
    endloop
  endfacet
  facet normal 0 0 -1
    outer loop
      vertex -19.8423 -2.50666 0
      vertex -7.01166 8.47565 0
      vertex -8.01865 7.53002 0
    endloop
  endfacet
  facet normal 0 0 -1
    outer loop
      vertex -9.63937 5.29929 0
      vertex -19.8423 -2.50666 0
      vertex -8.89919 6.46564 0
    endloop
  endfacet
  facet normal 0 0 -1
    outer loop
      vertex -10.2275 4.04937 0
      vertex -19.8423 -2.50666 0
      vertex -9.63937 5.29929 0
    endloop
  endfacet
  facet normal 0 0 -1
    outer loop
      vertex -10.6544 2.73559 0
      vertex -19.8423 -2.50666 0
      vertex -10.2275 4.04937 0
    endloop
  endfacet
  facet normal 0 0 -1
    outer loop
      vertex -19.8423 -2.50666 0
      vertex -11 0 0
      vertex -10.9133 -1.37867 0
    endloop
  endfacet
  facet normal 0 0 -1
    outer loop
      vertex -10.9133 -1.37867 0
      vertex -10.6544 -2.73559 0
      vertex -19.8423 -2.50666 0
    endloop
  endfacet
  facet normal 0 0 -1
    outer loop
      vertex -10.6544 -2.73559 0
      vertex -10.2275 -4.04937 0
      vertex -19.8423 -2.50666 0
    endloop
  endfacet
  facet normal 0 0 -1
    outer loop
      vertex -10.2275 -4.04937 0
      vertex -9.63937 -5.29929 0
      vertex -19.8423 -2.50666 0
    endloop
  endfacet
  facet normal 0 0 -1
    outer loop
      vertex -9.63937 -5.29929 0
      vertex -8.89919 -6.46564 0
      vertex -19.8423 -2.50666 0
    endloop
  endfacet
  facet normal 0 0 -1
    outer loop
      vertex -8.89919 -6.46564 0
      vertex -8.01865 -7.53002 0
      vertex -19.8423 -2.50666 0
    endloop
  endfacet
  facet normal 0 0 -1
    outer loop
      vertex -8.01865 -7.53002 0
      vertex -7.01166 -8.47565 0
      vertex -19.8423 -2.50666 0
    endloop
  endfacet
  facet normal 0 0 -1
    outer loop
      vertex -7.01166 -8.47565 0
      vertex -5.8941 -9.28761 0
      vertex -19.8423 -2.50666 0
    endloop
  endfacet
  facet normal 0 0 -1
    outer loop
      vertex -5.8941 -9.28761 0
      vertex -4.68357 -9.9531 0
      vertex -19.8423 -2.50666 0
    endloop
  endfacet
  facet normal 0 0 -1
    outer loop
      vertex -0.690696 -10.9783 0
      vertex 0 -10.9783 0
      vertex 0 -11 0
    endloop
  endfacet
  facet normal 0 0 -1
    outer loop
      vertex 0 -11 0
      vertex 16.6599 -11 0
      vertex 16.1803 -11.7557 0
    endloop
  endfacet
  facet normal 0 0 -1
    outer loop
      vertex 0 -11 0
      vertex 16.1803 -11.7557 0
      vertex -0.690696 -10.9783 0
    endloop
  endfacet
  facet normal 0 0 -1
    outer loop
      vertex -0.690696 -10.9783 0
      vertex 16.1803 -11.7557 0
      vertex 14.5794 -13.6909 0
    endloop
  endfacet
  facet normal 0 0 -1
    outer loop
      vertex -0.690696 -10.9783 0
      vertex 14.5794 -13.6909 0
      vertex -2.06119 -10.8052 0
    endloop
  endfacet
  facet normal 0 0 -1
    outer loop
      vertex -2.06119 -10.8052 0
      vertex 14.5794 -13.6909 0
      vertex 12.7485 -15.4103 0
    endloop
  endfacet
  facet normal 0 0 -1
    outer loop
      vertex -2.06119 -10.8052 0
      vertex 12.7485 -15.4103 0
      vertex -3.39919 -10.4616 0
    endloop
  endfacet
  facet normal 0 0 -1
    outer loop
      vertex -3.39919 -10.4616 0
      vertex 12.7485 -15.4103 0
      vertex 10.7165 -16.8866 0
    endloop
  endfacet
  facet normal 0 0 -1
    outer loop
      vertex -3.39919 -10.4616 0
      vertex 10.7165 -16.8866 0
      vertex -4.68357 -9.9531 0
    endloop
  endfacet
  facet normal 0 0 -1
    outer loop
      vertex -4.68357 -9.9531 0
      vertex 10.7165 -16.8866 0
      vertex 8.51559 -18.0965 0
    endloop
  endfacet
  facet normal 0 0 -1
    outer loop
      vertex -4.68357 -9.9531 0
      vertex 8.51559 -18.0965 0
      vertex -19.8423 -2.50666 0
    endloop
  endfacet
  facet normal 0 0 -1
    outer loop
      vertex -19.8423 -2.50666 0
      vertex 8.51559 -18.0965 0
      vertex 6.18034 -19.0211 0
    endloop
  endfacet
  facet normal 0 0 -1
    outer loop
      vertex -19.8423 -2.50666 0
      vertex 6.18034 -19.0211 0
      vertex 3.74763 -19.6457 0
    endloop
  endfacet
  facet normal 0 0 -1
    outer loop
      vertex -19.8423 -2.50666 0
      vertex 3.74763 -19.6457 0
      vertex 1.25581 -19.9605 0
    endloop
  endfacet
  facet normal 0 0 -1
    outer loop
      vertex -19.8423 -2.50666 0
      vertex 1.25581 -19.9605 0
      vertex -1.25581 -19.9605 0
    endloop
  endfacet
  facet normal 0 0 -1
    outer loop
      vertex -19.8423 -2.50666 0
      vertex -1.25581 -19.9605 0
      vertex -3.74763 -19.6457 0
    endloop
  endfacet
  facet normal 0 0 -1
    outer loop
      vertex -19.8423 -2.50666 0
      vertex -3.74763 -19.6457 0
      vertex -6.18034 -19.0211 0
    endloop
  endfacet
  facet normal 0 0 -1
    outer loop
      vertex -19.8423 -2.50666 0
      vertex -6.18034 -19.0211 0
      vertex -8.51559 -18.0965 0
    endloop
  endfacet
  facet normal 0 0 -1
    outer loop
      vertex -19.8423 -2.50666 0
      vertex -8.51559 -18.0965 0
      vertex -10.7165 -16.8866 0
    endloop
  endfacet
  facet normal 0 0 -1
    outer loop
      vertex -19.8423 -2.50666 0
      vertex -10.7165 -16.8866 0
      vertex -12.7485 -15.4103 0
    endloop
  endfacet
  facet normal 0 0 -1
    outer loop
      vertex -19.8423 -2.50666 0
      vertex -12.7485 -15.4103 0
      vertex -14.5794 -13.6909 0
    endloop
  endfacet
  facet normal 0 0 -1
    outer loop
      vertex -19.8423 -2.50666 0
      vertex -14.5794 -13.6909 0
      vertex -16.1803 -11.7557 0
    endloop
  endfacet
  facet normal 0 0 -1
    outer loop
      vertex -19.8423 -2.50666 0
      vertex -16.1803 -11.7557 0
      vertex -17.5261 -9.63507 0
    endloop
  endfacet
  facet normal 0 0 -1
    outer loop
      vertex -19.8423 -2.50666 0
      vertex -17.5261 -9.63507 0
      vertex -18.5955 -7.36249 0
    endloop
  endfacet
  facet normal 0 0 -1
    outer loop
      vertex -19.8423 -2.50666 0
      vertex -18.5955 -7.36249 0
      vertex -19.3717 -4.9738 0
    endloop
  endfacet
  facet normal 0 0 -1
    outer loop
      vertex 0 11 0
      vertex 10.7165 16.8866 0
      vertex 12.7485 15.4103 0
    endloop
  endfacet
  facet normal 0 0 -1
    outer loop
      vertex 0 11 0
      vertex 12.7485 15.4103 0
      vertex 14.5794 13.6909 0
    endloop
  endfacet
  facet normal 0 0 -1
    outer loop
      vertex 0 11 0
      vertex 14.5794 13.6909 0
      vertex 16.1803 11.7557 0
    endloop
  endfacet
  facet normal 0 0 -1
    outer loop
      vertex 0 11 0
      vertex 16.1803 11.7557 0
      vertex 16.6599 11 0
    endloop
  endfacet
  facet normal 0 0 -1
    outer loop
      vertex -10.9133 1.37867 0
      vertex -19.8423 -2.50666 0
      vertex -10.6544 2.73559 0
    endloop
  endfacet
  facet normal 0 0 -1
    outer loop
      vertex -11 0 0
      vertex -19.8423 -2.50666 0
      vertex -10.9133 1.37867 0
    endloop
  endfacet
  facet normal -0.998027 0.0627905 0
    outer loop
      vertex -20 0 0
      vertex -20 0 5
      vertex -19.8423 2.50666 0
    endloop
  endfacet
  facet normal -0.998027 0.0627905 0
    outer loop
      vertex -19.8423 2.50666 0
      vertex -20 0 5
      vertex -19.8423 2.50666 5
    endloop
  endfacet
  facet normal -0.998027 -0.0627905 0
    outer loop
      vertex -20 0 0
      vertex -19.8423 -2.50666 0
      vertex -20 0 5
    endloop
  endfacet
  facet normal -0.998027 -0.0627905 0
    outer loop
      vertex -20 0 5
      vertex -19.8423 -2.50666 0
      vertex -19.8423 -2.50666 5
    endloop
  endfacet
  facet normal -0.982287 -0.187381 0
    outer loop
      vertex -19.8423 -2.50666 0
      vertex -19.3717 -4.9738 0
      vertex -19.8423 -2.50666 5
    endloop
  endfacet
  facet normal -0.982287 -0.187381 0
    outer loop
      vertex -19.8423 -2.50666 5
      vertex -19.3717 -4.9738 0
      vertex -19.3717 -4.9738 5
    endloop
  endfacet
  facet normal -0.951057 -0.309017 0
    outer loop
      vertex -19.3717 -4.9738 0
      vertex -18.5955 -7.36249 0
      vertex -19.3717 -4.9738 5
    endloop
  endfacet
  facet normal -0.951057 -0.309017 0
    outer loop
      vertex -19.3717 -4.9738 5
      vertex -18.5955 -7.36249 0
      vertex -18.5955 -7.36249 5
    endloop
  endfacet
  facet normal -0.904827 -0.425779 0
    outer loop
      vertex -18.5955 -7.36249 0
      vertex -17.5261 -9.63507 0
      vertex -18.5955 -7.36249 5
    endloop
  endfacet
  facet normal -0.904827 -0.425779 0
    outer loop
      vertex -18.5955 -7.36249 5
      vertex -17.5261 -9.63507 0
      vertex -17.5261 -9.63507 5
    endloop
  endfacet
  facet normal -0.844328 -0.535827 0
    outer loop
      vertex -17.5261 -9.63507 0
      vertex -16.1803 -11.7557 0
      vertex -17.5261 -9.63507 5
    endloop
  endfacet
  facet normal -0.844328 -0.535827 0
    outer loop
      vertex -17.5261 -9.63507 5
      vertex -16.1803 -11.7557 0
      vertex -16.1803 -11.7557 5
    endloop
  endfacet
  facet normal -0.770513 -0.637424 0
    outer loop
      vertex -16.1803 -11.7557 0
      vertex -14.5794 -13.6909 0
      vertex -16.1803 -11.7557 5
    endloop
  endfacet
  facet normal -0.770513 -0.637424 0
    outer loop
      vertex -16.1803 -11.7557 5
      vertex -14.5794 -13.6909 0
      vertex -14.5794 -13.6909 5
    endloop
  endfacet
  facet normal -0.684547 -0.728969 0
    outer loop
      vertex -14.5794 -13.6909 5
      vertex -14.5794 -13.6909 0
      vertex -12.7485 -15.4103 0
    endloop
  endfacet
  facet normal -0.684547 -0.728969 0
    outer loop
      vertex -12.7485 -15.4103 5
      vertex -14.5794 -13.6909 5
      vertex -12.7485 -15.4103 0
    endloop
  endfacet
  facet normal -0.587785 -0.809017 0
    outer loop
      vertex -12.7485 -15.4103 5
      vertex -12.7485 -15.4103 0
      vertex -10.7165 -16.8866 0
    endloop
  endfacet
  facet normal -0.587785 -0.809017 0
    outer loop
      vertex -10.7165 -16.8866 5
      vertex -12.7485 -15.4103 5
      vertex -10.7165 -16.8866 0
    endloop
  endfacet
  facet normal -0.481754 -0.876307 0
    outer loop
      vertex -10.7165 -16.8866 5
      vertex -10.7165 -16.8866 0
      vertex -8.51559 -18.0965 0
    endloop
  endfacet
  facet normal -0.481754 -0.876307 0
    outer loop
      vertex -8.51559 -18.0965 5
      vertex -10.7165 -16.8866 5
      vertex -8.51559 -18.0965 0
    endloop
  endfacet
  facet normal -0.368124 -0.929777 0
    outer loop
      vertex -8.51559 -18.0965 5
      vertex -8.51559 -18.0965 0
      vertex -6.18034 -19.0211 0
    endloop
  endfacet
  facet normal -0.368124 -0.929777 0
    outer loop
      vertex -6.18034 -19.0211 5
      vertex -8.51559 -18.0965 5
      vertex -6.18034 -19.0211 0
    endloop
  endfacet
  facet normal -0.24869 -0.968583 0
    outer loop
      vertex -6.18034 -19.0211 5
      vertex -6.18034 -19.0211 0
      vertex -3.74763 -19.6457 0
    endloop
  endfacet
  facet normal -0.24869 -0.968583 0
    outer loop
      vertex -3.74763 -19.6457 5
      vertex -6.18034 -19.0211 5
      vertex -3.74763 -19.6457 0
    endloop
  endfacet
  facet normal -0.125333 -0.992115 0
    outer loop
      vertex -3.74763 -19.6457 5
      vertex -3.74763 -19.6457 0
      vertex -1.25581 -19.9605 0
    endloop
  endfacet
  facet normal -0.125333 -0.992115 0
    outer loop
      vertex -1.25581 -19.9605 5
      vertex -3.74763 -19.6457 5
      vertex -1.25581 -19.9605 0
    endloop
  endfacet
  facet normal 0 -1 0
    outer loop
      vertex -1.25581 -19.9605 5
      vertex -1.25581 -19.9605 0
      vertex 1.25581 -19.9605 0
    endloop
  endfacet
  facet normal 0 -1 0
    outer loop
      vertex 1.25581 -19.9605 5
      vertex -1.25581 -19.9605 5
      vertex 1.25581 -19.9605 0
    endloop
  endfacet
  facet normal 0.125333 -0.992115 0
    outer loop
      vertex 1.25581 -19.9605 5
      vertex 1.25581 -19.9605 0
      vertex 3.74763 -19.6457 0
    endloop
  endfacet
  facet normal 0.125333 -0.992115 0
    outer loop
      vertex 3.74763 -19.6457 5
      vertex 1.25581 -19.9605 5
      vertex 3.74763 -19.6457 0
    endloop
  endfacet
  facet normal 0.24869 -0.968583 0
    outer loop
      vertex 3.74763 -19.6457 5
      vertex 3.74763 -19.6457 0
      vertex 6.18034 -19.0211 0
    endloop
  endfacet
  facet normal 0.24869 -0.968583 0
    outer loop
      vertex 6.18034 -19.0211 5
      vertex 3.74763 -19.6457 5
      vertex 6.18034 -19.0211 0
    endloop
  endfacet
  facet normal 0.368124 -0.929777 0
    outer loop
      vertex 6.18034 -19.0211 5
      vertex 6.18034 -19.0211 0
      vertex 8.51559 -18.0965 0
    endloop
  endfacet
  facet normal 0.368124 -0.929777 0
    outer loop
      vertex 8.51559 -18.0965 5
      vertex 6.18034 -19.0211 5
      vertex 8.51559 -18.0965 0
    endloop
  endfacet
  facet normal 0.481754 -0.876307 0
    outer loop
      vertex 8.51559 -18.0965 5
      vertex 8.51559 -18.0965 0
      vertex 10.7165 -16.8866 0
    endloop
  endfacet
  facet normal 0.481754 -0.876307 0
    outer loop
      vertex 10.7165 -16.8866 5
      vertex 8.51559 -18.0965 5
      vertex 10.7165 -16.8866 0
    endloop
  endfacet
  facet normal 0.587785 -0.809017 0
    outer loop
      vertex 10.7165 -16.8866 5
      vertex 10.7165 -16.8866 0
      vertex 12.7485 -15.4103 0
    endloop
  endfacet
  facet normal 0.587785 -0.809017 0
    outer loop
      vertex 12.7485 -15.4103 5
      vertex 10.7165 -16.8866 5
      vertex 12.7485 -15.4103 0
    endloop
  endfacet
  facet normal 0.684547 -0.728969 0
    outer loop
      vertex 12.7485 -15.4103 5
      vertex 12.7485 -15.4103 0
      vertex 14.5794 -13.6909 0
    endloop
  endfacet
  facet normal 0.684547 -0.728969 0
    outer loop
      vertex 14.5794 -13.6909 5
      vertex 12.7485 -15.4103 5
      vertex 14.5794 -13.6909 0
    endloop
  endfacet
  facet normal 0.770513 -0.637424 0
    outer loop
      vertex 14.5794 -13.6909 5
      vertex 14.5794 -13.6909 0
      vertex 16.1803 -11.7557 0
    endloop
  endfacet
  facet normal 0.770513 -0.637424 0
    outer loop
      vertex 16.1803 -11.7557 5
      vertex 14.5794 -13.6909 5
      vertex 16.1803 -11.7557 0
    endloop
  endfacet
  facet normal 0.844328 -0.535827 0
    outer loop
      vertex 16.1803 -11.7557 5
      vertex 16.1803 -11.7557 0
      vertex 16.6599 -11 0
    endloop
  endfacet
  facet normal 0.844328 -0.535827 0
    outer loop
      vertex 16.6599 -11 5
      vertex 16.1803 -11.7557 5
      vertex 16.6599 -11 0
    endloop
  endfacet
  facet normal 0 1 0
    outer loop
      vertex 16.6599 -11 5
      vertex 16.6599 -11 0
      vertex 0 -11 5
    endloop
  endfacet
  facet normal 0 1 0
    outer loop
      vertex 0 -11 5
      vertex 16.6599 -11 0
      vertex 0 -11 0
    endloop
  endfacet
  facet normal 1 0 0
    outer loop
      vertex 0 -10.9783 0
      vertex 0 -10.9783 5
      vertex 0 -11 5
    endloop
  endfacet
  facet normal 1 0 0
    outer loop
      vertex 0 -11 0
      vertex 0 -10.9783 0
      vertex 0 -11 5
    endloop
  endfacet
  facet normal 0 1 0
    outer loop
      vertex 0 -10.9783 5
      vertex 0 -10.9783 0
      vertex -0.690696 -10.9783 5
    endloop
  endfacet
  facet normal 0 1 0
    outer loop
      vertex -0.690696 -10.9783 5
      vertex 0 -10.9783 0
      vertex -0.690696 -10.9783 0
    endloop
  endfacet
  facet normal 0.125333 0.992115 0
    outer loop
      vertex -0.690696 -10.9783 5
      vertex -0.690696 -10.9783 0
      vertex -2.06119 -10.8052 5
    endloop
  endfacet
  facet normal 0.125333 0.992115 0
    outer loop
      vertex -2.06119 -10.8052 5
      vertex -0.690696 -10.9783 0
      vertex -2.06119 -10.8052 0
    endloop
  endfacet
  facet normal 0.24869 0.968583 0
    outer loop
      vertex -2.06119 -10.8052 5
      vertex -2.06119 -10.8052 0
      vertex -3.39919 -10.4616 5
    endloop
  endfacet
  facet normal 0.24869 0.968583 0
    outer loop
      vertex -3.39919 -10.4616 5
      vertex -2.06119 -10.8052 0
      vertex -3.39919 -10.4616 0
    endloop
  endfacet
  facet normal 0.368125 0.929776 0
    outer loop
      vertex -3.39919 -10.4616 5
      vertex -3.39919 -10.4616 0
      vertex -4.68357 -9.9531 5
    endloop
  endfacet
  facet normal 0.368125 0.929776 0
    outer loop
      vertex -4.68357 -9.9531 5
      vertex -3.39919 -10.4616 0
      vertex -4.68357 -9.9531 0
    endloop
  endfacet
  facet normal 0.481754 0.876307 0
    outer loop
      vertex -4.68357 -9.9531 5
      vertex -4.68357 -9.9531 0
      vertex -5.8941 -9.28761 5
    endloop
  endfacet
  facet normal 0.481754 0.876307 0
    outer loop
      vertex -5.8941 -9.28761 5
      vertex -4.68357 -9.9531 0
      vertex -5.8941 -9.28761 0
    endloop
  endfacet
  facet normal 0.587785 0.809017 0
    outer loop
      vertex -5.8941 -9.28761 5
      vertex -5.8941 -9.28761 0
      vertex -7.01166 -8.47565 5
    endloop
  endfacet
  facet normal 0.587785 0.809017 0
    outer loop
      vertex -7.01166 -8.47565 5
      vertex -5.8941 -9.28761 0
      vertex -7.01166 -8.47565 0
    endloop
  endfacet
  facet normal 0.684547 0.728968 0
    outer loop
      vertex -7.01166 -8.47565 5
      vertex -7.01166 -8.47565 0
      vertex -8.01865 -7.53002 5
    endloop
  endfacet
  facet normal 0.684547 0.728968 0
    outer loop
      vertex -8.01865 -7.53002 5
      vertex -7.01166 -8.47565 0
      vertex -8.01865 -7.53002 0
    endloop
  endfacet
  facet normal 0.770513 0.637424 0
    outer loop
      vertex -8.89919 -6.46564 5
      vertex -8.01865 -7.53002 5
      vertex -8.01865 -7.53002 0
    endloop
  endfacet
  facet normal 0.770513 0.637424 0
    outer loop
      vertex -8.89919 -6.46564 0
      vertex -8.89919 -6.46564 5
      vertex -8.01865 -7.53002 0
    endloop
  endfacet
  facet normal 0.844328 0.535826 0
    outer loop
      vertex -9.63937 -5.29929 5
      vertex -8.89919 -6.46564 5
      vertex -8.89919 -6.46564 0
    endloop
  endfacet
  facet normal 0.844328 0.535826 0
    outer loop
      vertex -9.63937 -5.29929 0
      vertex -9.63937 -5.29929 5
      vertex -8.89919 -6.46564 0
    endloop
  endfacet
  facet normal 0.904827 0.425779 0
    outer loop
      vertex -10.2275 -4.04937 5
      vertex -9.63937 -5.29929 5
      vertex -9.63937 -5.29929 0
    endloop
  endfacet
  facet normal 0.904827 0.425779 0
    outer loop
      vertex -10.2275 -4.04937 0
      vertex -10.2275 -4.04937 5
      vertex -9.63937 -5.29929 0
    endloop
  endfacet
  facet normal 0.951056 0.309017 0
    outer loop
      vertex -10.6544 -2.73559 5
      vertex -10.2275 -4.04937 5
      vertex -10.2275 -4.04937 0
    endloop
  endfacet
  facet normal 0.951056 0.309017 0
    outer loop
      vertex -10.6544 -2.73559 0
      vertex -10.6544 -2.73559 5
      vertex -10.2275 -4.04937 0
    endloop
  endfacet
  facet normal 0.982287 0.187381 0
    outer loop
      vertex -10.9133 -1.37867 5
      vertex -10.6544 -2.73559 5
      vertex -10.6544 -2.73559 0
    endloop
  endfacet
  facet normal 0.982287 0.187381 0
    outer loop
      vertex -10.9133 -1.37867 0
      vertex -10.9133 -1.37867 5
      vertex -10.6544 -2.73559 0
    endloop
  endfacet
  facet normal 0.998027 0.0627903 0
    outer loop
      vertex -11 0 5
      vertex -10.9133 -1.37867 5
      vertex -10.9133 -1.37867 0
    endloop
  endfacet
  facet normal 0.998027 0.0627903 0
    outer loop
      vertex -11 0 0
      vertex -11 0 5
      vertex -10.9133 -1.37867 0
    endloop
  endfacet
  facet normal 0.998027 -0.0627903 0
    outer loop
      vertex -10.9133 1.37867 0
      vertex -10.9133 1.37867 5
      vertex -11 0 5
    endloop
  endfacet
  facet normal 0.998027 -0.0627903 0
    outer loop
      vertex -11 0 0
      vertex -10.9133 1.37867 0
      vertex -11 0 5
    endloop
  endfacet
  facet normal 0.982287 -0.187381 0
    outer loop
      vertex -10.6544 2.73559 0
      vertex -10.6544 2.73559 5
      vertex -10.9133 1.37867 5
    endloop
  endfacet
  facet normal 0.982287 -0.187381 0
    outer loop
      vertex -10.9133 1.37867 0
      vertex -10.6544 2.73559 0
      vertex -10.9133 1.37867 5
    endloop
  endfacet
  facet normal 0.951056 -0.309017 0
    outer loop
      vertex -10.2275 4.04937 0
      vertex -10.2275 4.04937 5
      vertex -10.6544 2.73559 5
    endloop
  endfacet
  facet normal 0.951056 -0.309017 0
    outer loop
      vertex -10.6544 2.73559 0
      vertex -10.2275 4.04937 0
      vertex -10.6544 2.73559 5
    endloop
  endfacet
  facet normal 0.904827 -0.425779 0
    outer loop
      vertex -9.63937 5.29929 0
      vertex -9.63937 5.29929 5
      vertex -10.2275 4.04937 5
    endloop
  endfacet
  facet normal 0.904827 -0.425779 0
    outer loop
      vertex -10.2275 4.04937 0
      vertex -9.63937 5.29929 0
      vertex -10.2275 4.04937 5
    endloop
  endfacet
  facet normal 0.844328 -0.535826 0
    outer loop
      vertex -8.89919 6.46564 0
      vertex -8.89919 6.46564 5
      vertex -9.63937 5.29929 5
    endloop
  endfacet
  facet normal 0.844328 -0.535826 0
    outer loop
      vertex -9.63937 5.29929 0
      vertex -8.89919 6.46564 0
      vertex -9.63937 5.29929 5
    endloop
  endfacet
  facet normal 0.770513 -0.637424 0
    outer loop
      vertex -8.01865 7.53002 0
      vertex -8.01865 7.53002 5
      vertex -8.89919 6.46564 5
    endloop
  endfacet
  facet normal 0.770513 -0.637424 0
    outer loop
      vertex -8.89919 6.46564 0
      vertex -8.01865 7.53002 0
      vertex -8.89919 6.46564 5
    endloop
  endfacet
  facet normal 0.684547 -0.728968 0
    outer loop
      vertex -7.01166 8.47565 0
      vertex -7.01166 8.47565 5
      vertex -8.01865 7.53002 5
    endloop
  endfacet
  facet normal 0.684547 -0.728968 0
    outer loop
      vertex -8.01865 7.53002 0
      vertex -7.01166 8.47565 0
      vertex -8.01865 7.53002 5
    endloop
  endfacet
  facet normal 0.587785 -0.809017 0
    outer loop
      vertex -5.8941 9.28761 0
      vertex -5.8941 9.28761 5
      vertex -7.01166 8.47565 5
    endloop
  endfacet
  facet normal 0.587785 -0.809017 0
    outer loop
      vertex -7.01166 8.47565 0
      vertex -5.8941 9.28761 0
      vertex -7.01166 8.47565 5
    endloop
  endfacet
  facet normal 0.481754 -0.876307 0
    outer loop
      vertex -4.68357 9.9531 0
      vertex -4.68357 9.9531 5
      vertex -5.8941 9.28761 5
    endloop
  endfacet
  facet normal 0.481754 -0.876307 0
    outer loop
      vertex -5.8941 9.28761 0
      vertex -4.68357 9.9531 0
      vertex -5.8941 9.28761 5
    endloop
  endfacet
  facet normal 0.368125 -0.929776 0
    outer loop
      vertex -3.39919 10.4616 0
      vertex -3.39919 10.4616 5
      vertex -4.68357 9.9531 5
    endloop
  endfacet
  facet normal 0.368125 -0.929776 0
    outer loop
      vertex -4.68357 9.9531 0
      vertex -3.39919 10.4616 0
      vertex -4.68357 9.9531 5
    endloop
  endfacet
  facet normal 0.24869 -0.968583 0
    outer loop
      vertex -2.06119 10.8052 0
      vertex -2.06119 10.8052 5
      vertex -3.39919 10.4616 5
    endloop
  endfacet
  facet normal 0.24869 -0.968583 0
    outer loop
      vertex -3.39919 10.4616 0
      vertex -2.06119 10.8052 0
      vertex -3.39919 10.4616 5
    endloop
  endfacet
  facet normal 0.125333 -0.992115 0
    outer loop
      vertex -0.690696 10.9783 0
      vertex -0.690696 10.9783 5
      vertex -2.06119 10.8052 5
    endloop
  endfacet
  facet normal 0.125333 -0.992115 0
    outer loop
      vertex -2.06119 10.8052 0
      vertex -0.690696 10.9783 0
      vertex -2.06119 10.8052 5
    endloop
  endfacet
  facet normal 0 -1 0
    outer loop
      vertex 0 10.9783 0
      vertex 0 10.9783 5
      vertex -0.690696 10.9783 5
    endloop
  endfacet
  facet normal 0 -1 0
    outer loop
      vertex -0.690696 10.9783 0
      vertex 0 10.9783 0
      vertex -0.690696 10.9783 5
    endloop
  endfacet
  facet normal 1 0 0
    outer loop
      vertex 0 11 0
      vertex 0 11 5
      vertex 0 10.9783 5
    endloop
  endfacet
  facet normal 1 0 0
    outer loop
      vertex 0 10.9783 0
      vertex 0 11 0
      vertex 0 10.9783 5
    endloop
  endfacet
  facet normal 0 -1 0
    outer loop
      vertex 16.6599 11 0
      vertex 16.6599 11 5
      vertex 0 11 5
    endloop
  endfacet
  facet normal 0 -1 0
    outer loop
      vertex 0 11 0
      vertex 16.6599 11 0
      vertex 0 11 5
    endloop
  endfacet
  facet normal 0.844328 0.535827 0
    outer loop
      vertex 16.6599 11 0
      vertex 16.1803 11.7557 0
      vertex 16.1803 11.7557 5
    endloop
  endfacet
  facet normal 0.844328 0.535827 0
    outer loop
      vertex 16.6599 11 5
      vertex 16.6599 11 0
      vertex 16.1803 11.7557 5
    endloop
  endfacet
  facet normal 0.770513 0.637424 0
    outer loop
      vertex 16.1803 11.7557 0
      vertex 14.5794 13.6909 0
      vertex 14.5794 13.6909 5
    endloop
  endfacet
  facet normal 0.770513 0.637424 0
    outer loop
      vertex 16.1803 11.7557 5
      vertex 16.1803 11.7557 0
      vertex 14.5794 13.6909 5
    endloop
  endfacet
  facet normal 0.684547 0.728969 0
    outer loop
      vertex 12.7485 15.4103 0
      vertex 12.7485 15.4103 5
      vertex 14.5794 13.6909 0
    endloop
  endfacet
  facet normal 0.684547 0.728969 0
    outer loop
      vertex 14.5794 13.6909 0
      vertex 12.7485 15.4103 5
      vertex 14.5794 13.6909 5
    endloop
  endfacet
  facet normal 0.587785 0.809017 0
    outer loop
      vertex 10.7165 16.8866 0
      vertex 10.7165 16.8866 5
      vertex 12.7485 15.4103 0
    endloop
  endfacet
  facet normal 0.587785 0.809017 0
    outer loop
      vertex 12.7485 15.4103 0
      vertex 10.7165 16.8866 5
      vertex 12.7485 15.4103 5
    endloop
  endfacet
  facet normal 0.481754 0.876307 0
    outer loop
      vertex 8.51559 18.0965 0
      vertex 8.51559 18.0965 5
      vertex 10.7165 16.8866 0
    endloop
  endfacet
  facet normal 0.481754 0.876307 0
    outer loop
      vertex 10.7165 16.8866 0
      vertex 8.51559 18.0965 5
      vertex 10.7165 16.8866 5
    endloop
  endfacet
  facet normal 0.368124 0.929777 0
    outer loop
      vertex 6.18034 19.0211 0
      vertex 6.18034 19.0211 5
      vertex 8.51559 18.0965 0
    endloop
  endfacet
  facet normal 0.368124 0.929777 0
    outer loop
      vertex 8.51559 18.0965 0
      vertex 6.18034 19.0211 5
      vertex 8.51559 18.0965 5
    endloop
  endfacet
  facet normal 0.24869 0.968583 0
    outer loop
      vertex 3.74763 19.6457 0
      vertex 3.74763 19.6457 5
      vertex 6.18034 19.0211 0
    endloop
  endfacet
  facet normal 0.24869 0.968583 0
    outer loop
      vertex 6.18034 19.0211 0
      vertex 3.74763 19.6457 5
      vertex 6.18034 19.0211 5
    endloop
  endfacet
  facet normal 0.125333 0.992115 0
    outer loop
      vertex 1.25581 19.9605 0
      vertex 1.25581 19.9605 5
      vertex 3.74763 19.6457 0
    endloop
  endfacet
  facet normal 0.125333 0.992115 0
    outer loop
      vertex 3.74763 19.6457 0
      vertex 1.25581 19.9605 5
      vertex 3.74763 19.6457 5
    endloop
  endfacet
  facet normal 0 1 0
    outer loop
      vertex -1.25581 19.9605 0
      vertex -1.25581 19.9605 5
      vertex 1.25581 19.9605 0
    endloop
  endfacet
  facet normal 0 1 0
    outer loop
      vertex 1.25581 19.9605 0
      vertex -1.25581 19.9605 5
      vertex 1.25581 19.9605 5
    endloop
  endfacet
  facet normal -0.125333 0.992115 0
    outer loop
      vertex -3.74763 19.6457 0
      vertex -3.74763 19.6457 5
      vertex -1.25581 19.9605 0
    endloop
  endfacet
  facet normal -0.125333 0.992115 0
    outer loop
      vertex -1.25581 19.9605 0
      vertex -3.74763 19.6457 5
      vertex -1.25581 19.9605 5
    endloop
  endfacet
  facet normal -0.24869 0.968583 0
    outer loop
      vertex -6.18034 19.0211 0
      vertex -6.18034 19.0211 5
      vertex -3.74763 19.6457 0
    endloop
  endfacet
  facet normal -0.24869 0.968583 0
    outer loop
      vertex -3.74763 19.6457 0
      vertex -6.18034 19.0211 5
      vertex -3.74763 19.6457 5
    endloop
  endfacet
  facet normal -0.368124 0.929777 0
    outer loop
      vertex -8.51559 18.0965 0
      vertex -8.51559 18.0965 5
      vertex -6.18034 19.0211 0
    endloop
  endfacet
  facet normal -0.368124 0.929777 0
    outer loop
      vertex -6.18034 19.0211 0
      vertex -8.51559 18.0965 5
      vertex -6.18034 19.0211 5
    endloop
  endfacet
  facet normal -0.481754 0.876307 0
    outer loop
      vertex -10.7165 16.8866 0
      vertex -10.7165 16.8866 5
      vertex -8.51559 18.0965 0
    endloop
  endfacet
  facet normal -0.481754 0.876307 0
    outer loop
      vertex -8.51559 18.0965 0
      vertex -10.7165 16.8866 5
      vertex -8.51559 18.0965 5
    endloop
  endfacet
  facet normal -0.587785 0.809017 0
    outer loop
      vertex -12.7485 15.4103 0
      vertex -12.7485 15.4103 5
      vertex -10.7165 16.8866 0
    endloop
  endfacet
  facet normal -0.587785 0.809017 0
    outer loop
      vertex -10.7165 16.8866 0
      vertex -12.7485 15.4103 5
      vertex -10.7165 16.8866 5
    endloop
  endfacet
  facet normal -0.684547 0.728969 0
    outer loop
      vertex -14.5794 13.6909 0
      vertex -14.5794 13.6909 5
      vertex -12.7485 15.4103 0
    endloop
  endfacet
  facet normal -0.684547 0.728969 0
    outer loop
      vertex -12.7485 15.4103 0
      vertex -14.5794 13.6909 5
      vertex -12.7485 15.4103 5
    endloop
  endfacet
  facet normal -0.770513 0.637424 0
    outer loop
      vertex -16.1803 11.7557 0
      vertex -16.1803 11.7557 5
      vertex -14.5794 13.6909 0
    endloop
  endfacet
  facet normal -0.770513 0.637424 0
    outer loop
      vertex -14.5794 13.6909 0
      vertex -16.1803 11.7557 5
      vertex -14.5794 13.6909 5
    endloop
  endfacet
  facet normal -0.844328 0.535827 0
    outer loop
      vertex -17.5261 9.63507 0
      vertex -17.5261 9.63507 5
      vertex -16.1803 11.7557 0
    endloop
  endfacet
  facet normal -0.844328 0.535827 0
    outer loop
      vertex -16.1803 11.7557 0
      vertex -17.5261 9.63507 5
      vertex -16.1803 11.7557 5
    endloop
  endfacet
  facet normal -0.904827 0.425779 0
    outer loop
      vertex -18.5955 7.36249 0
      vertex -18.5955 7.36249 5
      vertex -17.5261 9.63507 0
    endloop
  endfacet
  facet normal -0.904827 0.425779 0
    outer loop
      vertex -17.5261 9.63507 0
      vertex -18.5955 7.36249 5
      vertex -17.5261 9.63507 5
    endloop
  endfacet
  facet normal -0.951057 0.309017 0
    outer loop
      vertex -19.3717 4.9738 0
      vertex -19.3717 4.9738 5
      vertex -18.5955 7.36249 0
    endloop
  endfacet
  facet normal -0.951057 0.309017 0
    outer loop
      vertex -18.5955 7.36249 0
      vertex -19.3717 4.9738 5
      vertex -18.5955 7.36249 5
    endloop
  endfacet
  facet normal -0.982287 0.187381 0
    outer loop
      vertex -19.8423 2.50666 0
      vertex -19.8423 2.50666 5
      vertex -19.3717 4.9738 0
    endloop
  endfacet
  facet normal -0.982287 0.187381 0
    outer loop
      vertex -19.3717 4.9738 0
      vertex -19.8423 2.50666 5
      vertex -19.3717 4.9738 5
    endloop
  endfacet
  facet normal 0 0 1
    outer loop
      vertex -19.8423 2.50666 5
      vertex -20 0 5
      vertex -19.8423 -2.50666 5
    endloop
  endfacet
  facet normal 0 0 1
    outer loop
      vertex -18.5955 -7.36249 5
      vertex -19.8423 2.50666 5
      vertex -19.3717 -4.9738 5
    endloop
  endfacet
  facet normal 0 0 1
    outer loop
      vertex -19.3717 -4.9738 5
      vertex -19.8423 2.50666 5
      vertex -19.8423 -2.50666 5
    endloop
  endfacet
  facet normal 0 0 1
    outer loop
      vertex -17.5261 -9.63507 5
      vertex -19.8423 2.50666 5
      vertex -18.5955 -7.36249 5
    endloop
  endfacet
  facet normal 0 0 1
    outer loop
      vertex -16.1803 -11.7557 5
      vertex -19.8423 2.50666 5
      vertex -17.5261 -9.63507 5
    endloop
  endfacet
  facet normal 0 0 1
    outer loop
      vertex -14.5794 -13.6909 5
      vertex -19.8423 2.50666 5
      vertex -16.1803 -11.7557 5
    endloop
  endfacet
  facet normal 0 0 1
    outer loop
      vertex -12.7485 -15.4103 5
      vertex -19.8423 2.50666 5
      vertex -14.5794 -13.6909 5
    endloop
  endfacet
  facet normal 0 0 1
    outer loop
      vertex -10.7165 -16.8866 5
      vertex -19.8423 2.50666 5
      vertex -12.7485 -15.4103 5
    endloop
  endfacet
  facet normal 0 0 1
    outer loop
      vertex -8.51559 -18.0965 5
      vertex -19.8423 2.50666 5
      vertex -10.7165 -16.8866 5
    endloop
  endfacet
  facet normal 0 0 1
    outer loop
      vertex -6.18034 -19.0211 5
      vertex -19.8423 2.50666 5
      vertex -8.51559 -18.0965 5
    endloop
  endfacet
  facet normal 0 0 1
    outer loop
      vertex -3.74763 -19.6457 5
      vertex -19.8423 2.50666 5
      vertex -6.18034 -19.0211 5
    endloop
  endfacet
  facet normal 0 0 1
    outer loop
      vertex -1.25581 -19.9605 5
      vertex -19.8423 2.50666 5
      vertex -3.74763 -19.6457 5
    endloop
  endfacet
  facet normal 0 0 1
    outer loop
      vertex 1.25581 -19.9605 5
      vertex -19.8423 2.50666 5
      vertex -1.25581 -19.9605 5
    endloop
  endfacet
  facet normal 0 0 1
    outer loop
      vertex 3.74763 -19.6457 5
      vertex -19.8423 2.50666 5
      vertex 1.25581 -19.9605 5
    endloop
  endfacet
  facet normal 0 0 1
    outer loop
      vertex -7.01166 -8.47565 5
      vertex -19.8423 2.50666 5
      vertex 3.74763 -19.6457 5
    endloop
  endfacet
  facet normal 0 0 1
    outer loop
      vertex -4.68357 -9.9531 5
      vertex -5.8941 -9.28761 5
      vertex 6.18034 -19.0211 5
    endloop
  endfacet
  facet normal 0 0 1
    outer loop
      vertex 0 -10.9783 5
      vertex -0.690696 -10.9783 5
      vertex 0 -11 5
    endloop
  endfacet
  facet normal 0 0 1
    outer loop
      vertex 10.7165 -16.8866 5
      vertex 0 -11 5
      vertex 8.51559 -18.0965 5
    endloop
  endfacet
  facet normal 0 0 1
    outer loop
      vertex -8.01865 -7.53002 5
      vertex -8.89919 -6.46564 5
      vertex -19.8423 2.50666 5
    endloop
  endfacet
  facet normal 0 0 1
    outer loop
      vertex -10.9133 -1.37867 5
      vertex -11 0 5
      vertex -19.8423 2.50666 5
    endloop
  endfacet
  facet normal 0 0 1
    outer loop
      vertex 0 -11 5
      vertex -0.690696 -10.9783 5
      vertex 8.51559 -18.0965 5
    endloop
  endfacet
  facet normal 0 0 1
    outer loop
      vertex 8.51559 -18.0965 5
      vertex -2.06119 -10.8052 5
      vertex 6.18034 -19.0211 5
    endloop
  endfacet
  facet normal 0 0 1
    outer loop
      vertex -8.89919 -6.46564 5
      vertex -9.63937 -5.29929 5
      vertex -19.8423 2.50666 5
    endloop
  endfacet
  facet normal 0 0 1
    outer loop
      vertex -2.06119 -10.8052 5
      vertex -3.39919 -10.4616 5
      vertex 6.18034 -19.0211 5
    endloop
  endfacet
  facet normal 0 0 1
    outer loop
      vertex -3.39919 -10.4616 5
      vertex -4.68357 -9.9531 5
      vertex 6.18034 -19.0211 5
    endloop
  endfacet
  facet normal 0 0 1
    outer loop
      vertex 6.18034 -19.0211 5
      vertex -5.8941 -9.28761 5
      vertex 3.74763 -19.6457 5
    endloop
  endfacet
  facet normal 0 0 1
    outer loop
      vertex -5.8941 -9.28761 5
      vertex -7.01166 -8.47565 5
      vertex 3.74763 -19.6457 5
    endloop
  endfacet
  facet normal 0 0 1
    outer loop
      vertex -8.01865 -7.53002 5
      vertex -19.8423 2.50666 5
      vertex -7.01166 -8.47565 5
    endloop
  endfacet
  facet normal 0 0 1
    outer loop
      vertex -9.63937 -5.29929 5
      vertex -10.2275 -4.04937 5
      vertex -19.8423 2.50666 5
    endloop
  endfacet
  facet normal 0 0 1
    outer loop
      vertex -10.2275 -4.04937 5
      vertex -10.6544 -2.73559 5
      vertex -19.8423 2.50666 5
    endloop
  endfacet
  facet normal 0 0 1
    outer loop
      vertex -0.690696 -10.9783 5
      vertex -2.06119 -10.8052 5
      vertex 8.51559 -18.0965 5
    endloop
  endfacet
  facet normal 0 0 1
    outer loop
      vertex -10.9133 1.37867 5
      vertex -19.8423 2.50666 5
      vertex -11 0 5
    endloop
  endfacet
  facet normal 0 0 1
    outer loop
      vertex -10.6544 2.73559 5
      vertex -19.8423 2.50666 5
      vertex -10.9133 1.37867 5
    endloop
  endfacet
  facet normal 0 0 1
    outer loop
      vertex -10.2275 4.04937 5
      vertex -19.8423 2.50666 5
      vertex -10.6544 2.73559 5
    endloop
  endfacet
  facet normal 0 0 1
    outer loop
      vertex -9.63937 5.29929 5
      vertex -19.8423 2.50666 5
      vertex -10.2275 4.04937 5
    endloop
  endfacet
  facet normal 0 0 1
    outer loop
      vertex -8.89919 6.46564 5
      vertex -19.8423 2.50666 5
      vertex -9.63937 5.29929 5
    endloop
  endfacet
  facet normal 0 0 1
    outer loop
      vertex -8.01865 7.53002 5
      vertex -19.8423 2.50666 5
      vertex -8.89919 6.46564 5
    endloop
  endfacet
  facet normal 0 0 1
    outer loop
      vertex -7.01166 8.47565 5
      vertex -19.8423 2.50666 5
      vertex -8.01865 7.53002 5
    endloop
  endfacet
  facet normal 0 0 1
    outer loop
      vertex -5.8941 9.28761 5
      vertex -19.8423 2.50666 5
      vertex -7.01166 8.47565 5
    endloop
  endfacet
  facet normal 0 0 1
    outer loop
      vertex -4.68357 9.9531 5
      vertex -19.8423 2.50666 5
      vertex -5.8941 9.28761 5
    endloop
  endfacet
  facet normal 0 0 1
    outer loop
      vertex 8.51559 18.0965 5
      vertex -19.8423 2.50666 5
      vertex -4.68357 9.9531 5
    endloop
  endfacet
  facet normal 0 0 1
    outer loop
      vertex 10.7165 16.8866 5
      vertex -4.68357 9.9531 5
      vertex -3.39919 10.4616 5
    endloop
  endfacet
  facet normal 0 0 1
    outer loop
      vertex 12.7485 15.4103 5
      vertex -3.39919 10.4616 5
      vertex -2.06119 10.8052 5
    endloop
  endfacet
  facet normal 0 0 1
    outer loop
      vertex 14.5794 13.6909 5
      vertex -2.06119 10.8052 5
      vertex -0.690696 10.9783 5
    endloop
  endfacet
  facet normal 0 0 1
    outer loop
      vertex 0 11 5
      vertex -0.690696 10.9783 5
      vertex 0 10.9783 5
    endloop
  endfacet
  facet normal 0 0 1
    outer loop
      vertex 16.1803 11.7557 5
      vertex -0.690696 10.9783 5
      vertex 0 11 5
    endloop
  endfacet
  facet normal 0 0 1
    outer loop
      vertex 16.1803 11.7557 5
      vertex 0 11 5
      vertex 16.6599 11 5
    endloop
  endfacet
  facet normal 0 0 1
    outer loop
      vertex 14.5794 13.6909 5
      vertex -0.690696 10.9783 5
      vertex 16.1803 11.7557 5
    endloop
  endfacet
  facet normal 0 0 1
    outer loop
      vertex 12.7485 15.4103 5
      vertex -2.06119 10.8052 5
      vertex 14.5794 13.6909 5
    endloop
  endfacet
  facet normal 0 0 1
    outer loop
      vertex 10.7165 16.8866 5
      vertex -3.39919 10.4616 5
      vertex 12.7485 15.4103 5
    endloop
  endfacet
  facet normal 0 0 1
    outer loop
      vertex 8.51559 18.0965 5
      vertex -4.68357 9.9531 5
      vertex 10.7165 16.8866 5
    endloop
  endfacet
  facet normal 0 0 1
    outer loop
      vertex 6.18034 19.0211 5
      vertex -19.8423 2.50666 5
      vertex 8.51559 18.0965 5
    endloop
  endfacet
  facet normal 0 0 1
    outer loop
      vertex 3.74763 19.6457 5
      vertex -19.8423 2.50666 5
      vertex 6.18034 19.0211 5
    endloop
  endfacet
  facet normal 0 0 1
    outer loop
      vertex 1.25581 19.9605 5
      vertex -19.8423 2.50666 5
      vertex 3.74763 19.6457 5
    endloop
  endfacet
  facet normal 0 0 1
    outer loop
      vertex -1.25581 19.9605 5
      vertex -19.8423 2.50666 5
      vertex 1.25581 19.9605 5
    endloop
  endfacet
  facet normal 0 0 1
    outer loop
      vertex -3.74763 19.6457 5
      vertex -19.8423 2.50666 5
      vertex -1.25581 19.9605 5
    endloop
  endfacet
  facet normal 0 0 1
    outer loop
      vertex -6.18034 19.0211 5
      vertex -19.8423 2.50666 5
      vertex -3.74763 19.6457 5
    endloop
  endfacet
  facet normal 0 0 1
    outer loop
      vertex -8.51559 18.0965 5
      vertex -19.8423 2.50666 5
      vertex -6.18034 19.0211 5
    endloop
  endfacet
  facet normal 0 0 1
    outer loop
      vertex -10.7165 16.8866 5
      vertex -19.8423 2.50666 5
      vertex -8.51559 18.0965 5
    endloop
  endfacet
  facet normal 0 0 1
    outer loop
      vertex -12.7485 15.4103 5
      vertex -19.8423 2.50666 5
      vertex -10.7165 16.8866 5
    endloop
  endfacet
  facet normal 0 0 1
    outer loop
      vertex -14.5794 13.6909 5
      vertex -19.8423 2.50666 5
      vertex -12.7485 15.4103 5
    endloop
  endfacet
  facet normal 0 0 1
    outer loop
      vertex -16.1803 11.7557 5
      vertex -19.8423 2.50666 5
      vertex -14.5794 13.6909 5
    endloop
  endfacet
  facet normal 0 0 1
    outer loop
      vertex -17.5261 9.63507 5
      vertex -19.8423 2.50666 5
      vertex -16.1803 11.7557 5
    endloop
  endfacet
  facet normal 0 0 1
    outer loop
      vertex -18.5955 7.36249 5
      vertex -19.8423 2.50666 5
      vertex -17.5261 9.63507 5
    endloop
  endfacet
  facet normal 0 0 1
    outer loop
      vertex -19.3717 4.9738 5
      vertex -19.8423 2.50666 5
      vertex -18.5955 7.36249 5
    endloop
  endfacet
  facet normal 0 0 1
    outer loop
      vertex -10.6544 -2.73559 5
      vertex -10.9133 -1.37867 5
      vertex -19.8423 2.50666 5
    endloop
  endfacet
  facet normal 0 0 1
    outer loop
      vertex 16.6599 -11 5
      vertex 14.5794 -13.6909 5
      vertex 16.1803 -11.7557 5
    endloop
  endfacet
  facet normal 0 0 1
    outer loop
      vertex 16.6599 -11 5
      vertex 12.7485 -15.4103 5
      vertex 14.5794 -13.6909 5
    endloop
  endfacet
  facet normal 0 0 1
    outer loop
      vertex 16.6599 -11 5
      vertex 10.7165 -16.8866 5
      vertex 12.7485 -15.4103 5
    endloop
  endfacet
  facet normal 0 0 1
    outer loop
      vertex 16.6599 -11 5
      vertex 0 -11 5
      vertex 10.7165 -16.8866 5
    endloop
  endfacet
endsolid OpenSCAD_Model
